<mxfile host="Electron" modified="2024-02-15T11:22:58.337Z" agent="Mozilla/5.0 (X11; Linux x86_64) AppleWebKit/537.36 (KHTML, like Gecko) draw.io/22.1.18 Chrome/120.0.6099.216 Electron/28.1.4 Safari/537.36" etag="Am6_Wp28u_7fY5ADGAXX" version="22.1.18" type="device" pages="3">
  <diagram name="deployment view" id="iipwh64n65vx4WovocLg">
    <mxGraphModel dx="1434" dy="958" grid="1" gridSize="10" guides="1" tooltips="1" connect="1" arrows="1" fold="1" page="1" pageScale="1" pageWidth="1169" pageHeight="827" math="0" shadow="0">
      <root>
        <mxCell id="0" />
        <mxCell id="1" parent="0" />
        <mxCell id="yRzJGyd7bDUnVyytgLMS-36" value="&lt;br&gt;" style="rounded=1;whiteSpace=wrap;html=1;fillColor=#008a00;fontColor=#ffffff;strokeColor=#005700;gradientColor=none;shadow=0;opacity=50;" parent="1" vertex="1">
          <mxGeometry x="250" y="450" width="160" height="40" as="geometry" />
        </mxCell>
        <mxCell id="yRzJGyd7bDUnVyytgLMS-12" value="&lt;br&gt;" style="rounded=1;whiteSpace=wrap;html=1;fillColor=#008a00;fontColor=#ffffff;strokeColor=#005700;gradientColor=none;shadow=0;opacity=50;" parent="1" vertex="1">
          <mxGeometry x="250" y="370" width="160" height="40" as="geometry" />
        </mxCell>
        <mxCell id="yRzJGyd7bDUnVyytgLMS-10" value="&lt;br&gt;" style="rounded=1;whiteSpace=wrap;html=1;fillColor=#008a00;fontColor=#ffffff;strokeColor=#005700;gradientColor=none;shadow=0;opacity=50;" parent="1" vertex="1">
          <mxGeometry x="969" y="330" width="160" height="40" as="geometry" />
        </mxCell>
        <mxCell id="yRzJGyd7bDUnVyytgLMS-6" value="Legend" style="rounded=0;whiteSpace=wrap;html=1;dashed=1;fillColor=none;verticalAlign=top;" parent="1" vertex="1">
          <mxGeometry width="160" height="80" as="geometry" />
        </mxCell>
        <mxCell id="yRzJGyd7bDUnVyytgLMS-2" value="Smart Contract&lt;br&gt;Instance" style="rounded=1;whiteSpace=wrap;html=1;fillColor=#008a00;fontColor=#ffffff;strokeColor=#005700;" parent="1" vertex="1">
          <mxGeometry x="20" y="20" width="120" height="40" as="geometry" />
        </mxCell>
        <mxCell id="yRzJGyd7bDUnVyytgLMS-3" value="«UUPS Proxy»&lt;br&gt;ConstantFlowAgreementV1" style="rounded=1;whiteSpace=wrap;html=1;fillColor=#008a00;fontColor=#ffffff;strokeColor=#005700;" parent="1" vertex="1">
          <mxGeometry x="680" y="240" width="200" height="40" as="geometry" />
        </mxCell>
        <mxCell id="yRzJGyd7bDUnVyytgLMS-4" value="«UUPS Proxy»&lt;br&gt;InstantDistributionAgreementV1" style="rounded=1;whiteSpace=wrap;html=1;fillColor=#008a00;fontColor=#ffffff;strokeColor=#005700;" parent="1" vertex="1">
          <mxGeometry x="680" y="280" width="200" height="40" as="geometry" />
        </mxCell>
        <mxCell id="yRzJGyd7bDUnVyytgLMS-18" value="admins (as proxy or Ownable)" style="edgeStyle=orthogonalEdgeStyle;rounded=0;orthogonalLoop=1;jettySize=auto;html=1;entryX=0.5;entryY=0;entryDx=0;entryDy=0;exitX=0.5;exitY=0;exitDx=0;exitDy=0;" parent="1" source="yRzJGyd7bDUnVyytgLMS-5" target="0KwlKN-99ruFgOMUbXw1-1" edge="1">
          <mxGeometry x="-0.125" relative="1" as="geometry">
            <Array as="points">
              <mxPoint x="560" y="140" />
              <mxPoint x="905" y="140" />
            </Array>
            <mxPoint as="offset" />
            <mxPoint x="1070" y="320" as="targetPoint" />
          </mxGeometry>
        </mxCell>
        <mxCell id="yRzJGyd7bDUnVyytgLMS-37" value="admins&lt;br&gt;(as proxy)" style="edgeStyle=orthogonalEdgeStyle;rounded=0;orthogonalLoop=1;jettySize=auto;html=1;entryX=1;entryY=0.5;entryDx=0;entryDy=0;exitX=0;exitY=0.5;exitDx=0;exitDy=0;" parent="1" source="yRzJGyd7bDUnVyytgLMS-5" target="yRzJGyd7bDUnVyytgLMS-11" edge="1">
          <mxGeometry relative="1" as="geometry" />
        </mxCell>
        <mxCell id="yRzJGyd7bDUnVyytgLMS-38" value="admins&lt;br&gt;(as proxy)" style="edgeStyle=orthogonalEdgeStyle;rounded=0;orthogonalLoop=1;jettySize=auto;html=1;entryX=0.5;entryY=0;entryDx=0;entryDy=0;" parent="1" source="yRzJGyd7bDUnVyytgLMS-5" target="yRzJGyd7bDUnVyytgLMS-27" edge="1">
          <mxGeometry relative="1" as="geometry">
            <mxPoint as="offset" />
          </mxGeometry>
        </mxCell>
        <mxCell id="yRzJGyd7bDUnVyytgLMS-5" value="«UUPS Proxy»&lt;br&gt;Superfluid (host contract)" style="rounded=1;whiteSpace=wrap;html=1;fillColor=#008a00;fontColor=#ffffff;strokeColor=#005700;" parent="1" vertex="1">
          <mxGeometry x="480" y="240" width="160" height="40" as="geometry" />
        </mxCell>
        <mxCell id="0KwlKN-99ruFgOMUbXw1-2" value="governs" style="edgeStyle=orthogonalEdgeStyle;rounded=0;orthogonalLoop=1;jettySize=auto;html=1;entryX=1;entryY=0.5;entryDx=0;entryDy=0;" parent="1" source="yRzJGyd7bDUnVyytgLMS-7" target="yRzJGyd7bDUnVyytgLMS-5" edge="1">
          <mxGeometry x="-0.3333" relative="1" as="geometry">
            <Array as="points">
              <mxPoint x="660" y="480" />
              <mxPoint x="660" y="260" />
            </Array>
            <mxPoint as="offset" />
          </mxGeometry>
        </mxCell>
        <mxCell id="yRzJGyd7bDUnVyytgLMS-7" value="«UUPS Proxy»&lt;br&gt;SuperfluidGovernanceII" style="rounded=1;whiteSpace=wrap;html=1;fillColor=#e51400;fontColor=#FFD966;strokeColor=#B20000;" parent="1" vertex="1">
          <mxGeometry x="720" y="440" width="200" height="80" as="geometry" />
        </mxCell>
        <mxCell id="yRzJGyd7bDUnVyytgLMS-51" value="creates&lt;br&gt;(as factory)" style="edgeStyle=orthogonalEdgeStyle;rounded=0;orthogonalLoop=1;jettySize=auto;html=1;entryX=0;entryY=0.5;entryDx=0;entryDy=0;labelBackgroundColor=none;" parent="1" source="yRzJGyd7bDUnVyytgLMS-8" target="yRzJGyd7bDUnVyytgLMS-9" edge="1">
          <mxGeometry relative="1" as="geometry">
            <mxPoint x="950" y="340" as="targetPoint" />
          </mxGeometry>
        </mxCell>
        <mxCell id="yRzJGyd7bDUnVyytgLMS-8" value="«UUPS Proxy»&lt;br&gt;GeneralDistributionAgreementV1" style="rounded=1;whiteSpace=wrap;html=1;fillColor=#008a00;fontColor=#ffffff;strokeColor=#005700;" parent="1" vertex="1">
          <mxGeometry x="680" y="320" width="200" height="40" as="geometry" />
        </mxCell>
        <mxCell id="yRzJGyd7bDUnVyytgLMS-9" value="«Beacon Proxy»&lt;br&gt;SuperfluidPool" style="rounded=1;whiteSpace=wrap;html=1;fillColor=#008a00;fontColor=#ffffff;strokeColor=#005700;gradientColor=none;shadow=0;" parent="1" vertex="1">
          <mxGeometry x="960" y="320" width="160" height="40" as="geometry" />
        </mxCell>
        <mxCell id="yRzJGyd7bDUnVyytgLMS-23" value="link" style="edgeStyle=orthogonalEdgeStyle;rounded=0;orthogonalLoop=1;jettySize=auto;html=1;entryX=0;entryY=0.5;entryDx=0;entryDy=0;exitX=0;exitY=0.5;exitDx=0;exitDy=0;" parent="1" source="yRzJGyd7bDUnVyytgLMS-11" target="yRzJGyd7bDUnVyytgLMS-25" edge="1">
          <mxGeometry relative="1" as="geometry">
            <Array as="points">
              <mxPoint x="190" y="380" />
              <mxPoint x="190" y="230" />
            </Array>
          </mxGeometry>
        </mxCell>
        <mxCell id="yRzJGyd7bDUnVyytgLMS-11" value="&lt;div&gt;«UUPS Proxy | EIP-1967»&lt;/div&gt;SuperToken" style="rounded=1;whiteSpace=wrap;html=1;fillColor=#008a00;fontColor=#ffffff;strokeColor=#005700;" parent="1" vertex="1">
          <mxGeometry x="240" y="360" width="160" height="40" as="geometry" />
        </mxCell>
        <mxCell id="yRzJGyd7bDUnVyytgLMS-15" value="&amp;nbsp;«Immutable»&lt;br&gt;CFAv1Forwarder" style="rounded=1;whiteSpace=wrap;html=1;fillColor=#008a00;fontColor=#ffffff;strokeColor=#005700;" parent="1" vertex="1">
          <mxGeometry x="40" y="240" width="120" height="40" as="geometry" />
        </mxCell>
        <mxCell id="yRzJGyd7bDUnVyytgLMS-16" value="&amp;nbsp;«Immutable»&lt;br&gt;IDAv1Forwarder" style="rounded=1;whiteSpace=wrap;html=1;fillColor=#008a00;fontColor=#ffffff;strokeColor=#005700;" parent="1" vertex="1">
          <mxGeometry x="40" y="280" width="120" height="40" as="geometry" />
        </mxCell>
        <mxCell id="yRzJGyd7bDUnVyytgLMS-17" value="&amp;nbsp;«Immutable»&lt;br&gt;GDAv1Forwarder" style="rounded=1;whiteSpace=wrap;html=1;fillColor=#008a00;fontColor=#ffffff;strokeColor=#005700;" parent="1" vertex="1">
          <mxGeometry x="40" y="320" width="120" height="40" as="geometry" />
        </mxCell>
        <mxCell id="yRzJGyd7bDUnVyytgLMS-19" value="«UUPS Proxy»&lt;br&gt;ConstantOutflowNFT" style="rounded=1;whiteSpace=wrap;html=1;fillColor=#008a00;fontColor=#ffffff;strokeColor=#005700;" parent="1" vertex="1">
          <mxGeometry x="240" y="160" width="160" height="40" as="geometry" />
        </mxCell>
        <mxCell id="yRzJGyd7bDUnVyytgLMS-20" value="«UUPS Proxy»&lt;br&gt;ConstantInflowNFT" style="rounded=1;whiteSpace=wrap;html=1;fillColor=#008a00;fontColor=#ffffff;strokeColor=#005700;" parent="1" vertex="1">
          <mxGeometry x="240" y="200" width="160" height="40" as="geometry" />
        </mxCell>
        <mxCell id="yRzJGyd7bDUnVyytgLMS-21" value="«UUPS Proxy»&lt;br&gt;PoolAdminNFT" style="rounded=1;whiteSpace=wrap;html=1;fillColor=#008a00;fontColor=#ffffff;strokeColor=#005700;" parent="1" vertex="1">
          <mxGeometry x="240" y="240" width="160" height="40" as="geometry" />
        </mxCell>
        <mxCell id="yRzJGyd7bDUnVyytgLMS-22" value="«UUPS Proxy»&lt;br&gt;PoolMemberNFT" style="rounded=1;whiteSpace=wrap;html=1;fillColor=#008a00;fontColor=#ffffff;strokeColor=#005700;" parent="1" vertex="1">
          <mxGeometry x="240" y="280" width="160" height="40" as="geometry" />
        </mxCell>
        <mxCell id="yRzJGyd7bDUnVyytgLMS-25" value="Existential NFTs" style="rounded=0;whiteSpace=wrap;html=1;dashed=1;fillColor=none;verticalAlign=top;" parent="1" vertex="1">
          <mxGeometry x="220" y="120" width="200" height="220" as="geometry" />
        </mxCell>
        <mxCell id="yRzJGyd7bDUnVyytgLMS-34" value="creates&lt;br&gt;(as factory)" style="edgeStyle=orthogonalEdgeStyle;rounded=0;orthogonalLoop=1;jettySize=auto;html=1;exitX=0.5;exitY=1;exitDx=0;exitDy=0;labelBackgroundColor=none;" parent="1" edge="1">
          <mxGeometry relative="1" as="geometry">
            <mxPoint x="560" y="390" as="sourcePoint" />
            <mxPoint x="320" y="400" as="targetPoint" />
            <Array as="points">
              <mxPoint x="560" y="420" />
              <mxPoint x="320" y="420" />
            </Array>
          </mxGeometry>
        </mxCell>
        <mxCell id="yRzJGyd7bDUnVyytgLMS-27" value="«UUPS Proxy»&lt;br&gt;SuperTokenFactory" style="rounded=1;whiteSpace=wrap;html=1;fillColor=#008a00;fontColor=#ffffff;strokeColor=#005700;" parent="1" vertex="1">
          <mxGeometry x="480" y="360" width="160" height="40" as="geometry" />
        </mxCell>
        <mxCell id="yRzJGyd7bDUnVyytgLMS-29" value="&amp;nbsp;«Immutable»&lt;br&gt;Resolver" style="rounded=1;whiteSpace=wrap;html=1;fillColor=#008a00;fontColor=#ffffff;strokeColor=#005700;" parent="1" vertex="1">
          <mxGeometry x="40" y="160" width="120" height="40" as="geometry" />
        </mxCell>
        <mxCell id="yRzJGyd7bDUnVyytgLMS-30" value="«Immutable»&lt;br&gt;TOGA" style="rounded=1;whiteSpace=wrap;html=1;fillColor=#008a00;fontColor=#ffffff;strokeColor=#005700;" parent="1" vertex="1">
          <mxGeometry x="40" y="400" width="120" height="40" as="geometry" />
        </mxCell>
        <mxCell id="yRzJGyd7bDUnVyytgLMS-33" value="" style="shape=image;verticalLabelPosition=bottom;labelBackgroundColor=default;verticalAlign=top;aspect=fixed;imageAspect=0;image=https://www.worldatlas.com/img/flag/vn-flag.jpg;" parent="1" vertex="1">
          <mxGeometry x="730" y="450" width="29.85" height="20" as="geometry" />
        </mxCell>
        <mxCell id="yRzJGyd7bDUnVyytgLMS-35" value="&lt;div&gt;&lt;/div&gt;Unmanaged&lt;br&gt;SuperTokens" style="rounded=1;whiteSpace=wrap;html=1;fillColor=#008a00;fontColor=#ffffff;strokeColor=#005700;" parent="1" vertex="1">
          <mxGeometry x="240" y="440" width="160" height="40" as="geometry" />
        </mxCell>
        <mxCell id="yRzJGyd7bDUnVyytgLMS-41" style="edgeStyle=orthogonalEdgeStyle;rounded=0;orthogonalLoop=1;jettySize=auto;html=1;entryX=0;entryY=0.75;entryDx=0;entryDy=0;dashed=1;dashPattern=1 2;endArrow=none;endFill=0;exitX=1.041;exitY=0.675;exitDx=0;exitDy=0;exitPerimeter=0;" parent="1" source="yRzJGyd7bDUnVyytgLMS-45" target="yRzJGyd7bDUnVyytgLMS-11" edge="1">
          <mxGeometry relative="1" as="geometry" />
        </mxCell>
        <mxCell id="yRzJGyd7bDUnVyytgLMS-44" style="edgeStyle=orthogonalEdgeStyle;rounded=0;orthogonalLoop=1;jettySize=auto;html=1;entryX=0.5;entryY=1;entryDx=0;entryDy=0;endArrow=none;endFill=0;dashed=1;dashPattern=1 4;" parent="1" source="yRzJGyd7bDUnVyytgLMS-43" target="yRzJGyd7bDUnVyytgLMS-7" edge="1">
          <mxGeometry relative="1" as="geometry" />
        </mxCell>
        <mxCell id="yRzJGyd7bDUnVyytgLMS-43" value="&lt;div style=&quot;font-size: 9px;&quot;&gt;&lt;font face=&quot;Lucida Console&quot; style=&quot;font-size: 9px;&quot;&gt;&amp;nbsp; &amp;nbsp; function updateContracts(&lt;/font&gt;&lt;/div&gt;&lt;div style=&quot;font-size: 9px;&quot;&gt;&lt;font face=&quot;Lucida Console&quot; style=&quot;font-size: 9px;&quot;&gt;&amp;nbsp; &amp;nbsp; &amp;nbsp; &amp;nbsp; ISuperfluid host,&lt;/font&gt;&lt;/div&gt;&lt;div style=&quot;font-size: 9px;&quot;&gt;&lt;font face=&quot;Lucida Console&quot; style=&quot;font-size: 9px;&quot;&gt;&amp;nbsp; &amp;nbsp; &amp;nbsp; &amp;nbsp; address hostNewLogic,&lt;/font&gt;&lt;/div&gt;&lt;div style=&quot;font-size: 9px;&quot;&gt;&lt;font face=&quot;Lucida Console&quot; style=&quot;font-size: 9px;&quot;&gt;&amp;nbsp; &amp;nbsp; &amp;nbsp; &amp;nbsp; address[] calldata agreementClassNewLogics,&lt;/font&gt;&lt;/div&gt;&lt;div style=&quot;font-size: 9px;&quot;&gt;&lt;font face=&quot;Lucida Console&quot; style=&quot;font-size: 9px;&quot;&gt;&amp;nbsp; &amp;nbsp; &amp;nbsp; &amp;nbsp; address superTokenFactoryNewLogic,&lt;/font&gt;&lt;/div&gt;&lt;div style=&quot;font-size: 9px;&quot;&gt;&lt;font face=&quot;Lucida Console&quot; style=&quot;font-size: 9px;&quot;&gt;&amp;nbsp; &amp;nbsp; &amp;nbsp; &amp;nbsp; address poolBeaconNewLogic&lt;/font&gt;&lt;/div&gt;&lt;div style=&quot;font-size: 9px;&quot;&gt;&lt;font face=&quot;Lucida Console&quot; style=&quot;font-size: 9px;&quot;&gt;&amp;nbsp; &amp;nbsp; )&lt;/font&gt;&lt;/div&gt;" style="shape=note;whiteSpace=wrap;html=1;backgroundOutline=1;darkOpacity=0.05;align=left;fontSize=9;" parent="1" vertex="1">
          <mxGeometry x="400" y="520" width="240" height="80" as="geometry" />
        </mxCell>
        <mxCell id="yRzJGyd7bDUnVyytgLMS-45" value="&lt;div style=&quot;&quot;&gt;&lt;font face=&quot;Lucida Console&quot;&gt;SuperToken.changeAdmin() can override the the proxy admin through the devolution process of SuperfluidGovernanceII.&lt;/font&gt;&lt;br&gt;&lt;/div&gt;" style="shape=note;whiteSpace=wrap;html=1;backgroundOutline=1;darkOpacity=0.05;align=left;" parent="1" vertex="1">
          <mxGeometry x="40" y="520" width="160" height="120" as="geometry" />
        </mxCell>
        <mxCell id="yRzJGyd7bDUnVyytgLMS-47" value="multisig" style="edgeStyle=orthogonalEdgeStyle;rounded=0;orthogonalLoop=1;jettySize=auto;html=1;entryX=1;entryY=0.5;entryDx=0;entryDy=0;endArrow=classic;endFill=1;" parent="1" source="yRzJGyd7bDUnVyytgLMS-46" target="yRzJGyd7bDUnVyytgLMS-7" edge="1">
          <mxGeometry relative="1" as="geometry">
            <Array as="points">
              <mxPoint x="940" y="480" />
              <mxPoint x="940" y="480" />
            </Array>
          </mxGeometry>
        </mxCell>
        <mxCell id="yRzJGyd7bDUnVyytgLMS-46" value="" style="shape=image;verticalLabelPosition=bottom;labelBackgroundColor=default;verticalAlign=top;aspect=fixed;imageAspect=0;image=https://www.pngall.com/wp-content/uploads/2017/03/Winnie-The-Pooh-PNG-Clipart.png;" parent="1" vertex="1">
          <mxGeometry x="1040" y="440" width="80" height="80" as="geometry" />
        </mxCell>
        <mxCell id="yRzJGyd7bDUnVyytgLMS-48" value="&lt;div style=&quot;font-size: 9px;&quot;&gt;&lt;div&gt;function batchUpdateSuperTokenLogic(&lt;/div&gt;&lt;div&gt;&amp;nbsp; &amp;nbsp; ISuperfluid host,&lt;/div&gt;&lt;div&gt;&amp;nbsp; &amp;nbsp; ISuperToken[] calldata tokens,&lt;/div&gt;&lt;div&gt;&amp;nbsp; &amp;nbsp; address[] calldata tokenLogics&lt;/div&gt;&lt;div&gt;)&lt;/div&gt;&lt;/div&gt;" style="shape=note;whiteSpace=wrap;html=1;backgroundOutline=1;darkOpacity=0.05;align=left;fontSize=9;" parent="1" vertex="1">
          <mxGeometry x="400" y="600" width="240" height="80" as="geometry" />
        </mxCell>
        <mxCell id="yRzJGyd7bDUnVyytgLMS-49" style="edgeStyle=orthogonalEdgeStyle;rounded=0;orthogonalLoop=1;jettySize=auto;html=1;entryX=0.5;entryY=1;entryDx=0;entryDy=0;endArrow=none;endFill=0;dashed=1;dashPattern=1 4;exitX=0;exitY=0;exitDx=240;exitDy=55;exitPerimeter=0;" parent="1" source="yRzJGyd7bDUnVyytgLMS-48" target="yRzJGyd7bDUnVyytgLMS-7" edge="1">
          <mxGeometry relative="1" as="geometry">
            <mxPoint x="650" y="570" as="sourcePoint" />
            <mxPoint x="830" y="530" as="targetPoint" />
          </mxGeometry>
        </mxCell>
        <mxCell id="yRzJGyd7bDUnVyytgLMS-50" value="&lt;h1&gt;References&amp;nbsp;&lt;/h1&gt;* code as doc: contracts/utils/SuperfluidFrameworkDeploymentSteps.sol" style="text;html=1;strokeColor=none;fillColor=none;spacing=5;spacingTop=-20;whiteSpace=wrap;overflow=hidden;rounded=0;" parent="1" vertex="1">
          <mxGeometry x="640" y="720" width="520" height="80" as="geometry" />
        </mxCell>
        <mxCell id="a_0XLxlSzXslzA3Ya2Eq-2" value="&lt;h1&gt;Superfluid&amp;nbsp; Framework Deployment View&lt;/h1&gt;" style="text;html=1;strokeColor=none;fillColor=none;spacing=5;spacingTop=-20;whiteSpace=wrap;overflow=hidden;rounded=0;align=center;" parent="1" vertex="1">
          <mxGeometry x="320" y="30" width="520" height="40" as="geometry" />
        </mxCell>
        <mxCell id="0KwlKN-99ruFgOMUbXw1-1" value="Superfluid Agreements" style="rounded=0;whiteSpace=wrap;html=1;dashed=1;fillColor=none;verticalAlign=top;" parent="1" vertex="1">
          <mxGeometry x="670" y="200" width="470" height="200" as="geometry" />
        </mxCell>
      </root>
    </mxGraphModel>
  </diagram>
  <diagram id="7v50mMISGiVaYA7oZsmH" name="Macro Forwarder">
    <mxGraphModel dx="2074" dy="1230" grid="1" gridSize="10" guides="1" tooltips="1" connect="1" arrows="1" fold="1" page="1" pageScale="1" pageWidth="1169" pageHeight="827" math="0" shadow="0">
      <root>
        <mxCell id="0" />
        <mxCell id="1" parent="0" />
        <mxCell id="AxLeNag9hkkuSHpGYqFt-1" value="Permission-less&lt;br&gt;User Defined Batch Call Builders" style="rounded=0;whiteSpace=wrap;html=1;dashed=1;dashPattern=1 4;fillColor=none;verticalAlign=top;fontStyle=1" vertex="1" parent="1">
          <mxGeometry x="640" y="460" width="200" height="160" as="geometry" />
        </mxCell>
        <mxCell id="LPRJF1tosnZyEq9DZlT5-17" value="" style="rounded=1;whiteSpace=wrap;html=1;fillColor=#008a00;fontColor=#ffffff;strokeColor=#005700;opacity=66;" vertex="1" parent="1">
          <mxGeometry x="690" y="540" width="120" height="40" as="geometry" />
        </mxCell>
        <mxCell id="AxLeNag9hkkuSHpGYqFt-2" value="forwardBatchCall" style="edgeStyle=orthogonalEdgeStyle;rounded=0;orthogonalLoop=1;jettySize=auto;html=1;entryX=0;entryY=0.5;entryDx=0;entryDy=0;exitX=1;exitY=0.5;exitDx=0;exitDy=0;fontSize=12;" edge="1" parent="1" source="LPRJF1tosnZyEq9DZlT5-1" target="AxLeNag9hkkuSHpGYqFt-5">
          <mxGeometry x="-0.3793" relative="1" as="geometry">
            <mxPoint x="200" y="674" as="sourcePoint" />
            <mxPoint x="1000" y="540" as="targetPoint" />
            <Array as="points">
              <mxPoint x="920" y="680" />
              <mxPoint x="920" y="540" />
            </Array>
            <mxPoint as="offset" />
          </mxGeometry>
        </mxCell>
        <mxCell id="LPRJF1tosnZyEq9DZlT5-5" value="view: getSignatureTemplate()&amp;nbsp;" style="edgeStyle=orthogonalEdgeStyle;rounded=0;orthogonalLoop=1;jettySize=auto;html=1;entryX=0;entryY=0.5;entryDx=0;entryDy=0;fontSize=12;" edge="1" parent="1" source="AxLeNag9hkkuSHpGYqFt-3" target="LPRJF1tosnZyEq9DZlT5-3">
          <mxGeometry relative="1" as="geometry">
            <mxPoint as="offset" />
          </mxGeometry>
        </mxCell>
        <mxCell id="LPRJF1tosnZyEq9DZlT5-10" value="POST&amp;nbsp; erc712signature" style="edgeStyle=orthogonalEdgeStyle;rounded=0;orthogonalLoop=1;jettySize=auto;html=1;entryX=0;entryY=0.5;entryDx=0;entryDy=0;exitX=1;exitY=0.5;exitDx=0;exitDy=0;" edge="1" parent="1" source="AxLeNag9hkkuSHpGYqFt-3" target="LPRJF1tosnZyEq9DZlT5-9">
          <mxGeometry x="-0.3448" relative="1" as="geometry">
            <mxPoint x="160" y="540" as="sourcePoint" />
            <mxPoint x="360" y="280" as="targetPoint" />
            <Array as="points">
              <mxPoint x="200" y="540" />
              <mxPoint x="200" y="240" />
            </Array>
            <mxPoint as="offset" />
          </mxGeometry>
        </mxCell>
        <mxCell id="LPRJF1tosnZyEq9DZlT5-16" value="build &amp;amp; sign" style="edgeStyle=orthogonalEdgeStyle;rounded=0;orthogonalLoop=1;jettySize=auto;html=1;entryX=0.5;entryY=0;entryDx=0;entryDy=0;fontSize=12;" edge="1" parent="1" source="AxLeNag9hkkuSHpGYqFt-3" target="LPRJF1tosnZyEq9DZlT5-14">
          <mxGeometry relative="1" as="geometry" />
        </mxCell>
        <mxCell id="AxLeNag9hkkuSHpGYqFt-3" value="EOA or Contract" style="rounded=1;whiteSpace=wrap;html=1;" vertex="1" parent="1">
          <mxGeometry x="40" y="520" width="120" height="40" as="geometry" />
        </mxCell>
        <mxCell id="AxLeNag9hkkuSHpGYqFt-4" value="&lt;div style=&quot;font-size: 12px;&quot;&gt;buildBatchOperations&lt;/div&gt;" style="edgeStyle=orthogonalEdgeStyle;rounded=0;orthogonalLoop=1;jettySize=auto;html=1;entryX=0;entryY=0.5;entryDx=0;entryDy=0;exitX=0.5;exitY=0;exitDx=0;exitDy=0;fontSize=12;" edge="1" parent="1" source="LPRJF1tosnZyEq9DZlT5-1" target="AxLeNag9hkkuSHpGYqFt-6">
          <mxGeometry x="-0.7538" relative="1" as="geometry">
            <mxPoint as="offset" />
          </mxGeometry>
        </mxCell>
        <mxCell id="AxLeNag9hkkuSHpGYqFt-5" value="Superfluid (host)" style="rounded=1;whiteSpace=wrap;html=1;fillColor=#008a00;fontColor=#ffffff;strokeColor=#005700;" vertex="1" parent="1">
          <mxGeometry x="1000" y="500" width="120" height="80" as="geometry" />
        </mxCell>
        <mxCell id="AxLeNag9hkkuSHpGYqFt-6" value="AverageMacros" style="rounded=1;whiteSpace=wrap;html=1;fillColor=#008a00;fontColor=#ffffff;strokeColor=#005700;" vertex="1" parent="1">
          <mxGeometry x="680" y="520" width="120" height="40" as="geometry" />
        </mxCell>
        <mxCell id="AxLeNag9hkkuSHpGYqFt-7" value="sendTransaction: runMacro(m, params)" style="edgeStyle=orthogonalEdgeStyle;rounded=0;orthogonalLoop=1;jettySize=auto;html=1;entryX=0;entryY=0.5;entryDx=0;entryDy=0;exitX=1;exitY=0.5;exitDx=0;exitDy=0;fontSize=12;" edge="1" parent="1" source="AxLeNag9hkkuSHpGYqFt-3" target="LPRJF1tosnZyEq9DZlT5-1">
          <mxGeometry relative="1" as="geometry">
            <mxPoint x="170" y="384" as="sourcePoint" />
            <mxPoint x="160" y="714" as="targetPoint" />
          </mxGeometry>
        </mxCell>
        <mxCell id="AxLeNag9hkkuSHpGYqFt-9" value="&lt;h1&gt;User-Defined Macros&lt;/h1&gt;" style="text;html=1;strokeColor=none;fillColor=none;spacing=5;spacingTop=-20;whiteSpace=wrap;overflow=hidden;rounded=0;align=center;" vertex="1" parent="1">
          <mxGeometry x="423" y="30" width="323" height="40" as="geometry" />
        </mxCell>
        <mxCell id="LPRJF1tosnZyEq9DZlT5-1" value="MacroForwarderV1" style="rounded=1;whiteSpace=wrap;html=1;fillColor=#008a00;fontColor=#ffffff;strokeColor=#005700;" vertex="1" parent="1">
          <mxGeometry x="440" y="640" width="160" height="80" as="geometry" />
        </mxCell>
        <mxCell id="LPRJF1tosnZyEq9DZlT5-7" style="edgeStyle=orthogonalEdgeStyle;rounded=0;orthogonalLoop=1;jettySize=auto;html=1;entryX=0;entryY=0.5;entryDx=0;entryDy=0;exitX=0.5;exitY=1;exitDx=0;exitDy=0;" edge="1" parent="1" source="LPRJF1tosnZyEq9DZlT5-3" target="AxLeNag9hkkuSHpGYqFt-6">
          <mxGeometry relative="1" as="geometry" />
        </mxCell>
        <mxCell id="LPRJF1tosnZyEq9DZlT5-8" value="buildBatchOperations" style="edgeLabel;html=1;align=center;verticalAlign=middle;resizable=0;points=[];fontSize=12;" vertex="1" connectable="0" parent="LPRJF1tosnZyEq9DZlT5-7">
          <mxGeometry x="-0.7477" y="3" relative="1" as="geometry">
            <mxPoint as="offset" />
          </mxGeometry>
        </mxCell>
        <mxCell id="LPRJF1tosnZyEq9DZlT5-3" value="MacroForwarder712V1" style="rounded=1;whiteSpace=wrap;html=1;fillColor=#008a00;fontColor=#ffffff;strokeColor=#005700;" vertex="1" parent="1">
          <mxGeometry x="440" y="360" width="160" height="80" as="geometry" />
        </mxCell>
        <mxCell id="LPRJF1tosnZyEq9DZlT5-4" value="forwardBatchCall" style="edgeStyle=orthogonalEdgeStyle;rounded=0;orthogonalLoop=1;jettySize=auto;html=1;exitX=1;exitY=0.5;exitDx=0;exitDy=0;fontSize=12;" edge="1" parent="1" source="LPRJF1tosnZyEq9DZlT5-3">
          <mxGeometry x="-0.3793" relative="1" as="geometry">
            <mxPoint x="530" y="650" as="sourcePoint" />
            <mxPoint x="1000" y="540" as="targetPoint" />
            <Array as="points">
              <mxPoint x="920" y="400" />
              <mxPoint x="920" y="540" />
            </Array>
            <mxPoint as="offset" />
          </mxGeometry>
        </mxCell>
        <mxCell id="LPRJF1tosnZyEq9DZlT5-11" style="edgeStyle=orthogonalEdgeStyle;rounded=0;orthogonalLoop=1;jettySize=auto;html=1;" edge="1" parent="1" source="LPRJF1tosnZyEq9DZlT5-9" target="LPRJF1tosnZyEq9DZlT5-3">
          <mxGeometry relative="1" as="geometry" />
        </mxCell>
        <mxCell id="LPRJF1tosnZyEq9DZlT5-9" value="MacroFarwarder712&lt;br&gt;Service" style="rounded=1;whiteSpace=wrap;html=1;fillColor=#a20025;fontColor=#ffffff;strokeColor=#6F0000;" vertex="1" parent="1">
          <mxGeometry x="440" y="200" width="160" height="80" as="geometry" />
        </mxCell>
        <mxCell id="LPRJF1tosnZyEq9DZlT5-12" value="Smart Contract" style="rounded=1;whiteSpace=wrap;html=1;fillColor=#008a00;fontColor=#ffffff;strokeColor=#005700;" vertex="1" parent="1">
          <mxGeometry x="40" y="40" width="120" height="40" as="geometry" />
        </mxCell>
        <mxCell id="LPRJF1tosnZyEq9DZlT5-13" value="Back-end Service" style="rounded=1;whiteSpace=wrap;html=1;fillColor=#a20025;fontColor=#ffffff;strokeColor=#6F0000;" vertex="1" parent="1">
          <mxGeometry x="40" y="80" width="120" height="40" as="geometry" />
        </mxCell>
        <mxCell id="LPRJF1tosnZyEq9DZlT5-14" value="Macro-specific&lt;br&gt;ERC712Signature&lt;br&gt;Builder" style="rounded=1;whiteSpace=wrap;html=1;fillColor=#f0a30a;fontColor=#000000;strokeColor=#BD7000;" vertex="1" parent="1">
          <mxGeometry x="40" y="640" width="120" height="80" as="geometry" />
        </mxCell>
        <mxCell id="LPRJF1tosnZyEq9DZlT5-15" value="Front-end Code" style="rounded=1;whiteSpace=wrap;html=1;fillColor=#f0a30a;fontColor=#000000;strokeColor=#BD7000;" vertex="1" parent="1">
          <mxGeometry x="40" y="120" width="120" height="40" as="geometry" />
        </mxCell>
      </root>
    </mxGraphModel>
  </diagram>
  <diagram id="qV7gaxN8sur2AVLikFHi" name="ERC-4337">
    <mxGraphModel dx="1434" dy="958" grid="1" gridSize="10" guides="1" tooltips="1" connect="1" arrows="1" fold="1" page="1" pageScale="1" pageWidth="1169" pageHeight="827" math="0" shadow="0">
      <root>
        <mxCell id="0" />
        <mxCell id="1" parent="0" />
        <mxCell id="-NLa-8ApIeDYxgnOEL4Y-1" value="ERC-4337 CA&lt;br&gt;(Contract Account)" style="rounded=1;whiteSpace=wrap;html=1;" vertex="1" parent="1">
          <mxGeometry x="330" y="200" width="120" height="40" as="geometry" />
        </mxCell>
        <mxCell id="-NLa-8ApIeDYxgnOEL4Y-2" value="" style="shape=image;verticalLabelPosition=bottom;labelBackgroundColor=default;verticalAlign=top;aspect=fixed;imageAspect=0;image=data:image/png,iVBORw0KGgoAAAANSUhEUgAAAoAAAAEuCAIAAACRUTR3AAAAIGNIUk0AAHomAACAhAAA+gAAAIDoAAB1MAAA6mAAADqYAAAXcJy6UTwAAAAGYktHRAD/AP8A/6C9p5MAAAAQY2FOdgAAB4AAAASwAAACfQAAAX9CNRAFAACAAElEQVR42ux9d4AkR3X3773qnp64+fKdcpZQQIBEEAgRRDBJ5GiCDdgGDBgM+CMYmwwmmpzBGJtoTM5JCCEJJCHpJJR1uny3eXdCd9d73x8dpmd2Znb2bi/hLfPp29utqX7z66p6VS/8Hq1a9zCstJW20lbaSltpK+3gNl6BYKWttJW20lbaSjv4zVFoh18rQOj4l16Nkg/2aIfbyEeo2CsjrwCyAvXKyCsv8QiH2qGOf6HMf5f6sH46HFYjH6Fir4y8AsgK1Csjr7zEIxlqR2E7/FoBUihDCdTH2SDqRgKlPs4RCiUoHxYjQ+NP9TX4kgCRw2PkwwbqJY0MOgKhXlkvK+tlZb2srJclrJceJmiFRn9c9NaddCPt7yKvUED1sBh5aYMfOED+D0C9pJFjMI4sqFfWywrUK+tl5SUuYb30NkETEP29j/t51I1o0Y6H2cjpp5Z9cDoCRz6cXuIK1CvrZeUlrqyXP+v1cthGQac3c90nx3c/gx+JI+MAj6wHcGQ9EGIfuS9Rj5CRV9bLynpZWS8HCpDDVgEnx4fIvbHM05ESaz61vozlEvvAjYwDPDIdqJEjj8gyv8QDCjUdqVCvrJeV9bKyXo6Q9eJ0/ds+CKT9fVB7/i32XSc2d4p/arnxN0MP9mnkCHfS5J+ZwbuN3GvwtpFTsY/EkZcb6nTkhZEIy/ASV6BeWS8r62VlvRzB68VpfgYLJdAlRqktyZWNTiOnh6lESrYQArUCFFvtdZ9GBkigDLYghXDL4JT21L4BWTAyBCwHZuQIkCWN3BGQjBvjAEKdjBzFRgq3GFx6j5xO4kMG9YF+iQcG6pX1srJeVtbLkbNenM7HEyR38yX5sSOwFr8BU1OUHroc2WNgpNppsRPKUkaOwUpPQ9Q6MvUNyIKRCa3nrGUcWZc+MnqNDBwUqNE0qfU58qGH+kC/xAMD9cp6WVkvK+vlyFkvTqw1F6jU+C67NAVMi3OFLDJyJpms7fV0MBG0ppH1P7ISuNm1ZfBuyV69Bm9NJuPWw9Eyj4xeMrflAvYzchQlf+Cg7nGG6z1yr32w7SXiz+ElLjvUK+tlZb2srJfDfr2YYuVYJEHszf+ln+lmgm6xeCckXan2jSb2wmH7GbkteqJ5DOzyjmOXyVJGTuHsOHiKbzry4oMfhJGp+dluI9OSAMl6JvYZarQMQpnNoC0EhjqJ0WPkAwt1x6e0QX3QX+KyQH3YrZeOTznM10vv6XEgoV7qetG2zf0QQn3gVuKBhPpArMSlQO0scsHtdhxrWrxbKTKpKbYSCKSqRLSEkbPjkAICIsB04tOkzvxgi46sCiJAAAUxOpN1dmEe6zH4gR05et1KKgBD45FbAzX2FZB9gHrhyqeOz01GBoGW8hIPENSK9p2L0D6B4z8dmJcYu38OJNSHyXppg7qjzAd0vTSh7jFyn1DrQYJ6qeuFDh+o92l69IB6n9fLAdUvugDz/YPa6YuFumncb54aFERQ1kgHUFM8bYmiJ2pqj9YjSbefF0LQZVrse6Mu/z1sRs5YvJoIMUhJiVpywrXpaNhvyfuBus3VkenelaHtcHiJqYGo9dNNI2Q/4y+j5PsDNfU63R+2UHeeHgduJS4v1Adta1rSyIcb1PgzhTrrgFhmqLmPoKn4tqvRhZZUQVBSApTiX6iIithQrVW1qqJiVZVIVbXF355mKLfkSFGStqztSejagkP8J+30+5bPtmZEZdOisx9PecU0Q+TWkqCtnQTrkibfMnLUJ/PEVnHbn9L21QgEjdEmjQ40qhpNA5b4v+lvdDmnpS625gEoSBJ/WPJzX6xyB64tRezsD4dS7P9LUB8amfVIhrp/JsXDAeojelb3J/MBgNrp45AFANHlK43lUopvvqoKMDEziE3serZiY9JMJUBAkdU0GgcZsz4BDBIAzQCuSFuzQJB0S74ktcYiSvou0VRBlA1ga3WoRMJEXn1KQ9Q4PkVGMijACkmONtoaNYBM4FxkasgmcTdH1sTJRFCJfQCS4slNhu5Wx4BCE3yjgcAana8kOqYohFRZVQBWBVjQ/eDYaXolp7UFKdvNfAaOLWCdP52J0oyPU4iPUNQ81PQSJIuqdpxvPb6PdhlQ28VeeOJJ4xKbAFDz6/TOYW8adnosk25iLxHq7GGxM9Q4BFBrOuF7QJ0aDztB3S7zYlVQlwdqAknX6bE0qPuYHssGdX8rsV+osQjUXb/ZPszqPlfikQZ1mtG73FA7i2loAgmEAVUSUlYALKQkCqgaR9gExH7dn6k25pmNiikWio5TtkFOQgarxsqSwZFy0gxMif6LD0QUfyuN0qdsJppLmkox8oASx7pNCWSbhm5w6wtgqCaPIEgU9S2J2k71d4KmGJAmj5aWV9WmrSmyH5j4QKQGitipoApYgEAM1VjyOD9MMvaWZEeTyJ9rVDSWhFQ1xp3UpIceUlYwxcpYGCSRJ74DIXt6O26GAVBzg0tPJ5mwPUonoi6Yo8n8i/PnBELxvGWFUMuhRylTBkRb9wvOxP0vzAXMJlyiQ1C9tkY3xANSi9gtMqdnOwI0FhWJzKDMYk5SMNPMhKY5QpuTqnMuYDYLsKPMmZGpJ9SIcgfRHWpeZqg7ytwGNVPGodUNauoFdbvMESDpjNRk+aOZJblsUHeRmRDvBrQo1AvWSweotUUP7SPU/a/E/qFuiwZaALUuF9T9r8Q+oG5fiYcQ6szbX26oF1XAqZtBosuYChCIEgiO45jJyR2+f2dhVa08hBKBDWansXsGCOGZ4yr5Y0lJ1RJZABAXECAEAcrxXRACWHAAiXQqAwZqoAZEoAZUoU78aiXJNgYnCi+6QwegROFJVjtSrIBhQRaagzIQXUx9RNdS5Xh8lSSbOQQHAADTDC4nQFyoghtQghYhbqx6SWK1rQQVcAPwQQp1oA7UQDm+FlMIWKgHKYAa4Fp0lTXGMDnVeZRLI0FYt7YuqLpOFMZGqoZImUSFSBnMUFEi0uZOQJ1TEaK1IYgi4SJ/AGVvfkmfdG0s9GpkD4PZ8P3sE6OnLDwwxvKYzArMROErL5C5Y75H9gu1kssodxY7exCJJga3sdIka5u088hZEgSllpNfh1yRhekNPWTuAXWXdJcWqLXlrrD/UEcH0w4O5czI0QyLby3doE6G6gh11+mRgbq5aR5gqHXB12+TuR3qBeulM9S0HFD3uRKXCequ02OpUO/rSuwKdTYW+tBCrQv2jWWDuh8FzLHXUWPHr6gWCrmGP7Nr1w3rT3Je8donnHHPSnFglrnGlPNr3rZt87Pj5W/8x45Lf7K7mB9mNkBAKvH1l8JYQQpANkOhZROdF4FikutpYtlQtwlx7DFNrrNIQgdjZDVW58j4YgGoQA2YIARwfAISbjkWxStfYkkgyf/S66+FmkQqigVQACbeOFSbeWDR21XOlKZKtsW4Q1yWa2ZuoubvqFobzPnFwTWl4mCtJsVCKXouEaBMlMRGEkeUK0KIo7E6eBIEEr+7eP+MvMbUauGIEJMEtxjStow9zcxFdFbA7adNap3l6fFTkvWDpjG/mwLuHJxHrTusxBl7qdhtUYfNcaiDAl44eMvenRU7eQp10wq9yeDaRu4CtVLkWOgOtXYFZN+g7i1zPD2yCrgb1Lq/UGc9GssJdReZI6hbxtkfqHmZoO57JfYLNfWCuqvM+wB1/yuxP6h7r8SDCTWWCHWy4QKLQL2oAs6MTbEOcRzj+5Pju66+1yMrn/ivh5J3MzvWM4bhijoFGlxzXG3QHHXXbfM//e71ea9iuCRiiRQcghqgGtRT64EEFBJcFZe4oWDAgRhAiGyiz1yNb8wObIHYgnxwkGgyBwgVlhiqBvGtMCCKLr4c+U0j1U4gpZBYNUpMACcGKFUKoZJ8TQKxag5qIETGTxwtRkmhTJoDqVIAslAHFIJ9AsXXaIkUrIF4UEdJIoUMssRWFQQXpOAqyKgUQIEiyHkD8xN/+rdP3+/0c9GYXfW6V37xjs1TIwOnBQ0HYOEGAYCjDCVLSpEgpCxQJWKoqmbmDiIgiOKvB6XUXd4espU1qRG3XArRMi1brDGpL7wH2U2Lzz47msbexK5pixkvS+e4yKwJupWiKPuUpmmIWlz4WFRmdBEbLURFHY11vWROR+4Gtbbukt2gxnJCncWnB9QtIaAdoW79+n1Bnb7EbGZIem9YLqi7TI/U99Qm875Djf2GeikrcVmg7jo99gHqpa/EHlAvuhIPJtTaml/bD9RZHLpD3Y8POBvGrAQOwlB4euQ45/Vvv8AMXDk9PUXBybdu3nP7LduNKQ5UhssDxZNPOHHvnrqSqqoKGA5iJcGAIRgihyi0IqIhk4G4xA7BUYBYVUURqirDMBu1APJEOVVfFMwMUlVALUgJDHGZDQBFyAgUKlaJhcgQSIWICGqiqGw2rEIqpGAikCgbVbKgAGpVhGAYHuCASMUBGgqrAFMOIBUFWYqsHBKChZjVxgZsIjA7qlAlaJSFBSYTmZqZrIoKQkAZBdKckjJL6Cv8PRuO33vSqb7qKOeqQWigHtRRWCWAmJBTWIsGQZgYcAGHyBJJfK9VQEQp0r5REBwAJUZkeVZ0TPiilii2znHzuuCP1OFndBm5PW6CshbzHrnmi5+7W5Mf+xhnoSmpx7m7u9j7K3MPqKlDhsYBhZp6pyJS0yy8aNrGfkKdet2WGWrqBXVHmQ8l1H2vxGWB+pCvxK5Q97cSDw7UWCLU2VNFT6j7D8ICkYoKEw0ODN+166pHPKp46hmFuZrK1L1f/7e3XvqjbV6JbViFhkQ5w9/JmdHB4nE2JCJLoJmZWWMckAWEyC/mZXCwXK2L36ibnFOd93O5fOhX2eVcrjhfna83xq1f9bzVw0OrxZrQwmImDGt+0HDYCX3LBuVyvu5LqThQrwkBbs71gwYbna/OKELDjloMDo44pixWfL9eLJYDPyQ3NzMzGdpQRBzHUdVSoeIVHS9vavWaKhr1QMWqOPlCsVbTRt0qzdmwOjB4lGGXjQGBlY1hJwffD4MGz85OE2koUiiVSvmiH9aIBaQO3HpdjXFCX1W1UPImZ3eK1NVvOG5lqLLGsGMcN7J7V6uzVevngF07KZx19/iz5VJJELqeEaFavR6i5ttZrc8DDpsB5kJlwHNdbjR8IjYUJ4EnJneN/hGZuA9ZXkKWfY019hX1TpM/HFqWju5IEfvPAOqWoJUVqA881EeMzEcU1G10p92hdlT72JnjuGUlIiWdn5t33dr9L1rTkK1MAz/69p2Xfm96/dpHE1sVAigMXBWxqBIF5NjAbq+HN288tbhm7ZBowzhaq+odN+y5e8dguXwqc8n3593y9spYNZirTtbm64Jj71GpDEkhX7rjT9ft3Naw/qpypTEwFoytyq9avXpiz8yWO6ZqM8N57zhFrmHHRzfO1mt3sccze6ZLgzjxtOJJJx09M1u9/qqtEzudcuHsQq6s1AgFtWC8Htyx7jhev2FwZLQ8V63OTtXuuGH33tnCEE6AVGzoF4bGneJ4MFufnm+4ZZx4xujajYUgCKYnZvbuNLWp1SzDIA6CQKkxMXdTeWjmpJNLa9ePKHTHrlu33z4/PZsbKh9fLKyanZnkwkxpeDYIZqYnAgy4J5/GRx+9yq+H2+7aueWWzSY40aM1hcrWVcfC5KfA/lz1+k0ngYLxkaHbG/MjE3sD5fzU/JbBsZnjj6mMrMpb8afHZ6enwupkrja7EXZ9uViemp6inEdMKgIiIk6Od0QEAZhIJDJCUOcZg0ymdcc055YEgR7TZsH4TaONLvLR7IMW77mo2P3L3E3sJAqhf7GXS+aDCfUSZD7AUPd1VFxuqBem9xwWUO//SlyB+qBB3UXmxaB2iGjxo4QSiDQyQSs3fL8y6Bx9osdmvjqf+/1Vf8oVT8p5pampbcZRIgHlOOe6ZNmh6cnx8uqdr37dSY97xrHlkjjwBaIoXnft9Hv++frf/mDrurHztm7d8uQXFV/ztvsODIff+tZPc/n6Yx9xP8B34U7Ual/+/Oaf/9B/7guOuteD1hQrPsMC66d3V976mqv/9wtXrNt4/12TN/3DP5z4jL967MzsxDe/+dOzzhk+/x7n1DBH8OamTnjL6675zuf/ZPjY4dHy9h23FCp7Xvm645/xV8cPlgNGw4cvyN36pw2f+fdbv//fd5Wds/aO73nec9e+6T0X7pne8sPvX7vhKO/e991YJqqiARn6+Xerr/2rzcH8GaOjq+r1+q49mx/8OPflbzzvzLMGgboLVpx95TU7P/Xvt33vS7dWSmtna1tf/Y8X/vU/jO6Zvfb737nh6GMrD3/gCYI5oNTQgf/8+M0feefde+/c/eynr3/t2x8R8NVWxt3izKe+MpTPrSvgvt/5z8ZLn/e54oj3sCcMveL155xwQlkxnwMsnOl6oLVTPvte+cwHb62T4+VcjdO8ELuAVQkcG6hjx0RETdZlLsSOio7cLtl4SGDxOdNGUJqOjL5p17Td99N15nf0FKKVc6e/qprtpINp4lmfYssSZeauMje//oGHekkyd+bhaguXPQyh7nN6HE5QL74SV6A+aFDv60pcDOp+bsBNB3LEgWXYJUc3HVv2uL5rJr91Sxj4UqsGObcMDkCBYccqiPJhMG7p+vd+4kUXPdSO2z+NTxTHx+cLRaoMTp96ZvkDn3r6K5//k0t/dA05ZIp7nfwtk/W9T3386Yo1d+2cbNjZkbGAnfHnvfiov33xMTkMb5vbunXr3NBQLlfYMjBa/Jd3PvKuO75+6+atxL5T2TYf7g6c+guec27Djty+fca4oevt9gr2PR9+bKXwh8996DrwcU5+65s/+KhHPaksZsuuCd2zd9Zx5KhjisefXPvndz+kOnXND792k1MYVrMX9rrA3HXJU491aGhqKtw1v3toVCz98aK/OPuNb3/8q1/w7ULBmZy98WGXFN/zsSe4A3+cmNu1427rGl6/CaefXfnEp57wnJnvXfbjzSY3v2atsPljvvKnF//lw6swW/bcLaiWB6ZtsOUFLz51z/bBj77lD4XCKbYxoB5bbhhb8OuurZbEKTimghCPeuKmD/37X0zqz2YaU9XZMpNDsJ5b2jh87EknsZO7VcSHEjmR6o20L8eUHkoZ3jECoL0S66nnYZBaTna9DoPZ9LhFR174ILQkjC42Nxc7d1OGbQ09xUZnroZ+xV6SzLSIzAcT6iXI3APqLMPJYQV1n9PjcIN60ZW4AvVBg3qfZV4E6v4UcJRCGif2ILBKALt+VWtzs5XpKbiuMcbx/Vx04TKGVIRQ3LPrime8YuM5F0zvmN+6a2vxs+8bv+aKrWOrnEc8bdVFj92zZvT2S55XvuG6m/feUWZGgLqH8uV/nPzDz93Nf5iemtt7nweOPeOFlengtl1zU9dcMXD178wdt+wcGS4+8fnDJ52+e83q7fe8P667eqvMNHLOKs/J1xu47Hfzl//Auen6neWCe/FT1519wV05+t1DLgl/+gO5+8bbnv6SjQ/+i2C+cdu2u/hzH959/R8mKoP08Mcfd/FTpsYGb3/xq8+67Offnt7BirLP1Zzhq6+av+Y3zp2bG3vHJ8+/8KgnPd9t2C0PeuTJpXVTM+M7Vm2o/f2bTisO3bh1C778melf/3inhvLQR5/xlBfn1oz94SWvesA1V31rYksj8Oskvml4P/3tnb/+BW27c75a2/v4p53ygIvq8+GWs++ztrTW+8n3tu3dOf+Mv5cTT/dKfNq73nJVdbIy6O26+YZacQ098klmV/CbPTuqv/uFd8XPZ/PugOMFhUJ48olbr/xNrVabKZfGvFzJD6yoMBOgIsocRWQDmi2J0T04oSW6b0F4fTN2I7pmS5czncbh69mn9BoZnR+Urp/Fp2e3wTOJsPFCki7fPckXb/vrPoi9XDLjIEK9pDLei0BNRx7UzelxmEG9yEr8s4RaM4F+hw/U6UrU7lB3mR6Lid2fCRoEIgURRVbNyBrtMHlEXpLiGsDUI7KO0Fq1WrdVztuLH3Ms57Zqvfjuf/3xz7+kpYHTb7l62613bz3pzOPHhifOuR+fc+81P75jnGlArDdcWf3T7/344/9yA4IRuO6vfvaH+1yw/sx7ju3aVv3w+++46ZfID62q7719ct75l3edOJ+bOe5kU3Rqc3CtGLGe0fKH33fVZf+N0uBR89Nbrrr2ps/97+n5tf4xJ9HpZ47efeOe8x94rFvYQ7r6vW/72c++HHqlTeDalb+65rjThlY/wBlZs/UBFw9+9zMzrjNoyAwU1n3rq9u/8r4b4JSZ3J9/+7dnnLfpvPsMzQW7zzyXf/vdnSecNnja6a6GjZ9/f+4Tb7u1UF5tq7l/v+qK488+5tGPL59xzsCao4oTW2tz8zWHPFdWf/rDV//q63CGh8LJ+h+v+t0n//use98zv2Fj8ZjjV22+du/t19zxkKesO/vMSujnfvi/jfHbb0bYIFM46nQzOEJ5Z27X7pm3v333/E2JGs3loTchGC6WN1hhPwgVIBJVJuLIzkyAxOHQUQYwMSPSzT3fNToT/bdUh6BF6Ms7TP8+Iz66pY1ikeNnh8GzQ2lPYnTqKvMSxF5qoFtvmY84qLV1Gz18oO5zehx+UPdaiX+uUNPhB7W2ykZLmx49xeb+MI0ciJzuCyKk1oPmRR0LKEG4IVwVrgmHVkQgDX8qX/ZXbzCC+dnJ8qU/0dLIpg3r7rFq/akTW/HbXzQcNqvGZHS1C4RQD7YYakXDYr5o1q07/+hNF1QquZuun83phrGhTZtWOznvqGOP/ovcyEnjO+z4jiGHK0cdtbY4UAK4XoNoycG6PHv50up1Yw8YGT1vz3b87AczQ96xI8PDjgc25XXri4HMhdXVt11XKVbWD5VOXDNylpujy35ed2hNebC+fmMOaERcFaKrXR3MD+bWrz7z2KMucLzCn64fn6nXTa62dn0Onn/0cYO+3TM5V7/hD/OwyOWkPDQIFK67dk/V+q7jr90YIgcvV/CcAdsYKzpnuJUNxx9z4eDqe1T3Dtzw+1Dhjq0eLJc8jwfckfLg4ABrTq17zNE0PLrm+BPO3bDhGL+hnjMU1vNr1nuvePUJD3ny8fd4wPrVR69hruRzG1evO83NDYl1AispRbQqVFkVnaZLNjGj4/96zwR0qJzRgQq141O6de6+kvv9X18TeJ9kXqJCXTaxe0CNQyr2ouMchlAvy/RYgfogQK2HJdT7s+kt0vog4og4FJWJoi1doCTWyTkjquNsfNdAwhCkRCFFdKDEzCzqFwqU82pEfqPqSACHc3v27AERrDs7WcphWGl7ucJA6LpWEShpoy71WamD/EB9n2uzluHasGqM8ed5dgoSeHPT1Khbw+p5IXk5IMznXNcxfgAHGviV2owr9Xw94Ok9RYZXcb1isejmg0JRPUd27K7ZwC+Wjm5UTRggmNPx3S5QMK6MrRkGdgYN34f1KO9wrlFFnZhsIax547vrDo845OaL5BXk6GNWh7xjPtz+iEs2rj/+qOEhF4o9E2tPP//uWn1nya17HmDBhkKtKcEhLwyL8zMS+sNWNvh1R0nYaRhH6zUfHFpfLFnfNxN7dH5GSq7UakGtWrr8Z8E9X3LefPjrZz+//LjHe9vv4pv/NDs1bi77xd2//sGVJe/MnJsLwkAj7l+KQ52j5GDKHL5iYg7an/D9dJJxpwNgj7MhtcdlHNQsgrZ80COi7RvUh4/YdATKvAL1CtQ9ZMayQ92nAjYJMWTEFskacnWOBkccJ1fP5eG6bs7xfCuGiABRITLMIApdVwFrQwaBHWsbdUMGjqehKjzAGMNAwE5IJiCEzAArsfo13xdhdYlIpU4McEEtqQRBYBU+qa/sxxyQGqg2HMfMzvoSUM7JVQkIJfS1EYZ5Y11XQVYpdJRVSS016rW8y35DwHkbwEIDKw4XIouBwgIaBFYDH0oauuBS2FBD5aChvh+4OTgOe1RwvJnHP7Ly7EceXYM1sA4aVQxPgUdxSlD/Mepo1KuBnReYWm1KQ99vBBAT1kMV14BEasoWxoGA1TBykHwQEBnj+w1jjCfHfOJ9m4uF8oMfu14r0xtHqseM5I8/x+bgPuHp577uRZsv/ckuxbDvw/MKBGWyGhOAxMfkKC6rOZuWRwFT6xTs4T/DAndU784HbgnxApkPYdW2fYZajoQdlpcyPVagXoFakkJbR5DMywB1H1zQcX09UkHMCUuuH+iNm2/bePRIabC68Vj3zmsLpGXYghCISESsKpNTr4eMAmmNTEAGQWALuYK1VaVarmhV60o6PVMFrA2U4Bg4jiE4cEjhEltDJk/Ik3HZMJgcLhCGDMMYYiLDjmEGwMYwHOKc67qOcYiITWjySqYeylzD8VUC36/5fgDiUrnouKbemHe8hmguXy55+QYhMCZXm68CaoyxsKI24h21alQZVkWtFV+oTiQSONNTtbwWyY598atbr/nDn0reoA0DdnwyLmxxoHTt3beAC3Adz5iqQ44xRTDYIXKUOc/sEpS54LBhgpAHFADXUNE1xMgb46qqwUB1av0/v+q3X//PkfVHY8PR3oZNAw948AlD627PDWz/+3963FWXf6k+J2yGNSqahLoCKg6RoWYYdGYuKWg5l2eb1ajHDNZWd+whL1m6IFCzC9veYSBwN6i7JTwebjIvyEvpBfXh0P4vQI3DA23tguSRBXXv1OPuQViLPSkq78OQpBSDIrrRbtsyE8qqtUO5c+591M++eKM/WCqWYcUaQr0xF4YaiGE4jXqeKDcwaosDkJmZcsWtNuqusaXBOlMwU5WpiRBgG5K1EJVQFBYKFW0AVsRYsFgjqtBALCA5FUic3UoKAcRaBbGKEFl2Z938DAd7PE+HV9dzblj1JfBV/UZ1FtUQlUGxzOROlAZDktxEbXZodQg0KKzMz1cBx4p4KHrkskNg43CODcOB61JEWmUcrs/L1GTDqufQ4DW/9b/wvl2lQRIpCULREKi5uauMKajjiGVRY4lVcrB1RsgAKFQ4AljriGWxIZSAkmjNSsMCjjfpetWZ6TnjwjUVl+9x/WXhtb+t5QpzpYE7v/bZ2de9f+jsM2pjazRfatSrNc8Zs5ZASiQRAWVEAg0kpRywgAlx2Vp6gEUmUFAXHBizNhw51KddWrCQegez4PC4VVArwtxdtsNKZmQqvvUD9eHQ/uyhPnzQpmZh1vifRxzUvG9Q93kDtqCQSBXEpKWKMztufvvL4MUvOmkOv3jE4wcv/dHO333nF3AcWAsApMVRlConTO4N7rp9z/A6f2Bk55OfWfz0m6cbjcuC6Zm1Z9CFjxyc9Ke2b+GJPQQM+TIPmieqMQsbh8iDNnQuqDXmGACMCoCAnRrxrADKriUEjcAGPhB4brHWqAqmZ+vSaGy7Y+f3/OrMqRfmHvvUUUVt91bZtm0W0K1baudymfM7H/Hk+qfeVdu65QrkeGCtf8lTTwt0emZ86IZrbwRUNVTQnG0EvgUEFMZlBJkczonL7LA0GnfdscPno8rl6kOekP/m1zG7ZSdgAEFeUUfAZmjdKt1ryUFDUbeOWAdirA2s+KLT1vqEYjHvQaiQKzTC+cnJcSEUK7PFsWDL5qnZiR+Dh0dWDVBuYmpy1i2W7KSt1Rq1Cd07NTs3uzHnrWvU69GRyBggVAJBiWM6aBOns6gCIKWopiQpLccE1lZHDjVLhnWYcOlkRbNoVVQv+ZA17SKetvbhzF52OBgktXUbWljf/pBb+xeVeVGo0T3f43CG+jCcHr2hxmFjr9bWHeNIhLqbzNkOHaDuRwEzRMAhSEkdVa7X511n5Opfb7vqiuoxZ5fLw/Pv+tSDrruiOr7Luly2lvKF4KTjT/3GF3Z9+Yvbv/jp68674NGOs+X5f3vmycesuvoPdw8PlS945NDomtvKuWOu/s3WG6+tkzPimhnVcD6cF7HG5Agmny/M+soMqwgDJjKOR8Y0lOZFUa/ZesOKRHUOXLVqQ99xJ573N8fe7z7DoY+jjivf5yKPczcwnXHT9TM3/HEaZuh/v37dwx7z8NLI5F+/7MyTjstf/dtdw6OD97to9ZoNd7s0fPvm8mU/nYC7hokDdQZp2MsVYQVqVS0gfiDzdV8tBYECfMfN05uvqx13qjn+jKmP//e9/vS74YlJX5SKZXd0eN34Tu8zn/waSGGchhqhnOOScatWQkgdWq/7SjrQqIVE6rhUC7BjW81vDHre9L99+LyrfxeOFO71+9/UPveZ//h/b33s6Wccfff2u+rzwfx8zeQbJ59ROv3cxmxdd9zdCHz1cgUoiIQICiElIoIkAVgqCpAmFSWXZ+p2jADs9htaMDWl0yAHv1En8dC6EdBh5jNuW9Xd3svh5ufuH2qsQH1QoD58cMYCD+sRB3UPmdFD5n5M0FH1WScqyqtqHFMeGxzYNWH++VU//tJ3n1Us34ny5EMfUwUAGKCkomvY+dkP6szlX3x7939/Yu9zX3rC8KrbH/Ws2QddUjEuefnJIh1z9ZX44kfvYnuU486WSkOV4qaSMzpYGSmWan59jqwplArDQ6NFGqkMipcrqHK97lurlYpbLJQq3ki5NM/OBDDn+zXjGqXJR/7F6IUPL5E4vk66LkrOKbffuPpT771+emdl7bqjL//xtV/40J6/evWm1QM7HnrJ1MMvGVE4ea+eo01bbh95xxt/5NGpYTDnOIUxOkqoqCJgjuoTgsxgZcx1SkJOpTxGTrhji/PZ909++NNPktIPzjl//vRzxEoetgh1h8ur6uNnf/Hz3wSjUlw94Jgwz4oJGza8HAWu45h8ITdqaLRcGYPv+n7NyxV+/v3dT3n6g4z3p00n7zru5OFRVNauOeq/vin3uFfhQfcd2F0XLy9zjZrrBoYDaGWMzn/9Z/53/C4eHhs2ricURkUSFSauhBSxp1KSFpeEQS/r5Ou4ZrqZoCPL8+EWcKE9sxLbLOqHg/lLe1Z7aZP5MIn91gV2UfScM0ci1IehzL3zgw+f6YH+cpqPuJVIrTtMezdTLB/bKT8k4xinqJAkkZIykxoiR5UL3vCWu3b98Ae/9dxCqVTxw0YYhrV58evujm2TV1x1x8++u2fX3XmjA7+59I93b73t6KM3KVGh4Fhr9my3X/nPm//1NVdNbF2/euT0qentg2ON0ZHRuemBS3++c/M1DZdWKzBX3XHcSZXhsdU3Xjf+ix/s3HZrvjKwXmzdK82fcuomv85XXzlx6fdm6nV66OMrp53tzVent27bzSgbU6zO8d4d3re/etebXn35HdcNrF19MhtxzfClv7hp647bS4OO47quS6Te+C763je3v+rFv7jrOirkTwzCxrpNNLapcued/Msfbrn9Fuu5G12nNDe/e/1RWLN63Z5tuZ989+4dt40MDxz3h8tuuvzKzes2DFYGhnOu02gEYUC7dkxff+32//36H6+8bKs/a1avX10Zk/GduZ9+Z3rXDr+QLzTqYRgEJ58+VhryNl+jv/rpjp3b5gYGRm69Ycf27eNHH3s0kTczY3ft5u9989bLfnmrk5+YbUz4wZRxragEDVObL13xq8lXveIHv/jexKZ197Wha0NLJCBRIoqLFke1jbWlrhbF/7ccjbpnFaPnTkqH0w6LnsHbvMDKdPj4n6j7jpAtMH6YxMQuSmLAhzRRbf+hPiKmRxbqw2p6YDEKlCMO6o6BLwtqwY6uuWiRb5JUsIqPTGQVgSoxuaHMTM/clSuGJtcw7DNrFDEtoYpfRLiWUSkVpRHurYbjisArwXUdsBs0yAYehasYYy57xvgz9T+RM+3lSiQl0lHWgVrVKk06+W2Uq8Iyy1oNN4rNKQI1u938OPN8GHLRnL1r17Xv/PyGxz9zrF4rvOQFP7niZ7x6qBIE3GhIvapkR3LOGuOSYF6VVMPZ6lbHq+YLzCxWoNaxoSdBOe+uIhTY2EB3+LKLMRTWBjyzKucOq5LS/Lx/MzuzCla/UsqfRAox4/XgbqtTXtm4RqxABGQdaFFs2aDimApxdT68yXCBg6MNDbJrIErsK+8MZRxSscGAWgcspA0yfiAz7Fo2ImEuqJWZHderg2ts6q4XkoFYVluUwPUbbt5Z65pBVRG1BIeIFSBlUkdZkrKfiQmaRFhYeDkun12I7vr61GGeKdFDBxzOSSlHrswrUB9CsVemx6GUuQ8u6Pg+bEFM4qgqTBjV2DFUHh44XcWxvqMhREURgEID13NypmCJfaZq0duQM6eGvglmfUuOcQoOYKCgQBCIhg7csnt6GIQIHWLDJlTVfKHA7JEdkUaUfOwqe4ZgHI9QErsBoTVhwIUxsICtqCEZCubR2DtcC+/rNxrMZrRS8IOqWD8M6sp5IpCUxipHq5jGnA1CS0YdhwsuyA1DW4uoG3M4ppg7XcXjgXwQ1Kz4BJDmy+7ZIgCUcmCosE9SKefu4RivUQvDMATIsOs4eYeNOjWlQKyKX6w4D1RVMaECImRYiBwKj/H0JBDIE9VAEJISxHW0oIFLgRCHpRIMQyFBINbXsOYrhaxFprznopAPgMBqCBKK88RIhUAMTk3QAGnKDU5xLPsyTjJdYn8c9gm47VO/529WZF6B+oiGemV6HEqZF3JBp3cU21LYgQSqUI/UEQ6YrMIhBpElGFeNOAQhkAH5RArU4QQqQWAV6uaMl6vkqtVAYUGBY4xIIBISQiYj4oiExvGISMRay0RsmJmYXMMkqqRCUEMASEFi4DJyrA4Rw8CqCEQQKAMmMCYwTkjGhiCLUFggHkkeJKqWHYCQY1jLzEIsAoFaJldVoVZBQVgnldAGlqwaIQXBMBnHMaoKhEBIgAoTsZtzlHxHQtUcUY5YQb6KikBI2CXDnmiootCQI4+sMBSiFgoSVbiAAxOS47uuEhgQZsPkiVhQw2XikFUNEROHTLNR8SOrgbAlJdUoCNmCo+LPBlHpXwZUieIw6Mxb3v+5RfvkjDmySKmoj9+syLwC9REN9cr0OGQyL7wBL4ilbhYoFZAgrgzMKlAIYEXrDEVs/wwhoggB0bAuEFaHlIKgxkHd8xw/bFjbkBDM1jjECrViJVCNqIwBEoAVGoY2YnAijgQnhapasqqqIjbnuCBDTOzkPHfI8LCYkuOyyZEiZEONwJ+tzuU91xiXyVWwaEhMs3MzRMZ1XTbsNxogBSspm+gx5EZuUmIhsiI2qielDCuxiR1kSUKFEjl+Q+u1eScnrmtCkdCvRUFbTCAwk1Ho9PQUG+PmhJkRKUQ1IOY0Hko5OnwoERAqVEVIDaBEIGNVmZSJDGCtDUIEgAtlMrGaZZAQgVQzZmdQWlKeknLWtEzWm32LojyybsArbaWttJV2AFukgDt65tKbikAYRGBRqsUppiBiqwrAMBFBRBuR0VNIWInhKBU5Lj5rDEEhVd83xMxhpFlFbZRYDI4YtCBiASKOlLGhmNmYmAmQqBATwFGuqyULoN6YLeYHgvqq6fHBoOGWiuXK4IgNIESum/fyeRWoiEJIlRgCdpw8EayoQNg4qkoQEIVQAhniKFvHMogtQ0VUGEqhwyAICKoagplZADKUc1jEBlahYFZiCKlIRM0MBfLlskp0zyaWpDwgCAYqIFaK6DvJIRgVgkYFiwhwABHLDCU2ospMpK6SS3FiUXRsgBIpVMCIylUR4kpaSdaRkpIwKwmBl164p7Vp4v0N+9PlWYcxVhTwSltpK22lITFBo8UwGEVdteVuR7coFeK4wDAzAyoiAIhDAllhIomqwYuSEhOgYAJpRAEBEhVjFM0IXVEyHP2gSkQqqhAiVmhUV4CZoLHiFYWqJAmvkSJjh0f+81O3XfqzLW4ud8PvDeywACBRgkblEwFRQTMHJ67NJ5A4Ok2ImJiiIvYxJBSFLZEqCTERQcVGJwpNb6+kBFIBEYtAYRUKBUFBpBrTdxKJQqO6kCkVc1zVMVakIIICqtzMGoqH4aibqhKpRobkuEIGIkE0KoFEJs7wie67UbeEijKSNHIMx16FqOM+zpx+yrdlGy3gND+C6iKstJW20lba8jeng0FSYz9rc3tuKz+ZWB9T87UqJYop2v9VAFJRjosRgyIFFtlw4803ViaqkdmUQKJR1qqoimpauoegRBzpkEgPRXfUSIVYptE//aHyx99UwX6ucEI5PywI2PixZ1SZDGAVKhopH4IaJaWYKBlQUhAx4nLHkLiOPZhEVDkygAuIIu0KAJIoeJUmfUBUiYjApBL1jxkhI/u5Jh73SL1SXO05rpWgCmWQSKJmKSoLQSoCgBkKIUBIlGJLsybFmSN0hAgSGcBJBcqWlEhYSZhYIAKh2ErBpMl9eMntMGFkXWkrbaWttCO4OR0uIvGFK7kNZ1tc5T2yQmt6eyaK1UhCvUSJVokHIVVAo0tzdGGL3JIgBcV1bJEo/JS6OPkhpgNBfDFlqMR/iizZSpXK6pGRYhjWrK2pNohspAgJEtFXEwtlihDEepg1VYVIYpUkimEigCi6kyPSsxT9GwJlcHSxhyZ6kpLHRbdzEtZU+uR+G5uk0xrX8UcR/zI27ROlmbrJNZGFKOFgI6VIdROASF9Htl0GwKmSV42OJ0neLymiMweIKBJ7GTOCV9pKW2krbaUttTldrzKRHhVClrowVoNEpEKWlYkpoVoiTjSHJIQMkdmWHTfnGmO4Wp1XUgmFYpNuFP1ERJEtWglMCfUHaXSjBJIbJSRyFSfXrzjeSImCINzT8AFiYnFIkvDfSC+GCjBpFM6VWF81ClkiQbM8EAGAqDBFdmBRiSXiplqOVSITKYRi1otImSpUlAQEITGRhidBjKAmXyq+/4MInJ4sIgQBEKWhWRrfTZOPxbUniCP7t5KqaGRDAHGsTSMDAcVXaM2QcESm7vTlrkz+lbbSVtpKO5TN6cQinflX5ErMBkXHqUnRHS/+kzY9gho5QZPbrCjARF7Oy3keMUEhGgRBYK0FkQiMEjSxaTZdz4J49EQ/UWwZh0bsmFYTipDoA0SkHACkyonZN7JZR4HHQHIzBzTSXJHo6VUcyiAl5fhiDiYiUUF0e1UADCFliazYAMc2gti9SpErFhzxlhCIVSOlr6qERDDEt36CUNSfYKApepx+X4JRkqgqYpSuBKgmilmVlFgpJkmJrevJC02Sf5tpwC2MqovUz+rd9u2zun8PXWkrbaWttD+r5nTgyoo1naZOyVbaXmoqHAIUomCQxC7h6F4JhURkHY7jguzdW+6E7AXy0QUwPzBcKJTEKsASXU+JHMe4Tg6x0ViJGEQqUT15BchaDRohsZPLERuRmN1JQRDLotZyXS3BZ1EwiSoIRsFEyDmuY4zAhmKh6uRYjRGFBEEYhFBIYtWOLM6cfkU2UYAyCSkpGyNqIttzpOUYTERWQmZjTMScLQo1RKrW2ugYYYlIhESsQ0ZVmR3DzGwEKjZQhUr0jY2CmDnmcVbEmh4CMSBBrL85egvRFTsKeqb4xMOUxJpRfMaIItpiP3QEmyonhZH2zQq9JB67vljZVtpKW2kr7f9Uc1rr0qSWWEruYeiSTUyxYlaO4pEJSgyoAQlHN9k4MKgxsWv7eQ94wCMf8RABgsCfnJz52le/HvgBk6dKxsTxXHvGdyO4EzCACxSAILkzGcADakBpaPR4f76+d/ftwASQa61Ey4CSUxpdc6L6FPi2UCg1qj47IPZ3bd8JTAPGKQwSFYJqFZgGLDBUGVnlug7FEcZxOFh8aWUOGg3Xy4mIcY3jBHNzU5CSY1xjbNzB96EYGhpuNPzZuRlrQwtfrc+GK5WhfH6gUQ8Zgapl6ODgmN8ImXlmZnbe921YAwUjY0NO3oNwo+5Hl1VrBaqO63q5XCQJ1CqRakAkYo0NWWFBcXpV6nfX2O0d2xKEOHKyI6kOHJ+aYo2tGaaVpba2CmK928LKaCvad6WttJX2f705HQqjpkFYiWuy0wc1uSsndy1KYqOJSAQKZWKmyfFtj37cI9729jedeera6JO7Ju0N123+/VV/LBaK1iJoBI7LM1M7L3rwhX/53Pda+H495+U8vxFGsUTMqAyw68hXv/rbr33lYyeecOFL//6Vo6uKUxPWOJEPFQJUG9U/Xv+7S3956S03XLf+6HvPzQbVaqPklev+1PTebY987FMe/5hHDo1ieMhj48zP+5PjwfS0/vDHv/zBd/5nYHgkDH3XzUeMGMiAwsykYq3U/Bl/egu8imdMruQBlshCNZczgW+33Hk9MAdUTH5waKREcKxiYuc26LbS0Iail1eF5+Xuuut2yARQyOWHh4aGcm4ltHM792xDMFkePLpYGg0bSo6d2LUV8IEwY3uItJcFFBgaHj2KSUVDojT2CqqsBIZNYrAii33ESknZeGvSNGpsP9uSFLAu/YMrbaWttJX2Z9ucDjyUmrp+qRtpUuzspCjhSDXOWYqjnSKzaGREtSqvf8ObTjt17Ve++euPfeSTQ8Njas0tN9/tOgWxCiVjHNcxYYizzj7nWc94RM+cmOJ//+db1m9Y/7hLHr1hdYdCinV5/C13bv3Gf/3qn//fPxUG1+W9Yr0eTM9Mv/7Nr/r7v/3LsbGBzJeM218++4KhwS+6udXGGJHYxYr0EKKa83KOMdMT2/76ZX/3jKeef8WVt736lW8bcr3AJyJhQ7V6Nec6r37tPz76UffknFMplb2CVwtEJbDV6re+d+nb3vzuhjNSzJdmZvY+9vEXvezlz1TF0NCA6+Udx/WDhj83c+vtW//mb1+9Z+fWoeE1M+N3fvIL/37aiRsbEtokfzhyG4uGw4XCj35+zXve/jFhdnNuaENiV+Mi90KR7BpHi1FM/BynMzW/feRg3q884IVYLtrtiKOAX2krbaWttAPY2tRY5gYMpHm9oDSCJ079ZeaImkoR81MmqTU2SoNRBdQSoVgevMcZqxr1+otf/IrJ3dOgCrReKA57nqdKqmoMyBhgZveuu6eq/u9+d+U/vebtpF4+n1dliminAikWC9VaA1g3Ozc5MzMdBPqqf/iXGzffXCqVVSUI7bq1o89/wbOf/IQHn/raZ01Pz7zv3z40WB7Zufvm5z73GW943d+o43zgI//7sQ9/pDbvi7rG0MDQwOo1YyOjo25hBATXdev1RkQVGX11VUQ8VbNTEzacf8mLHnP6SRs/9anvqD8rugYKVSbDtbnq2KaNz/7LJ9zjlNV1i127quMTu71Cbu3ajaMl5573PPOM0097xlNeys6ArdvHPu7ih1xwbwvsmd29Z89eUXPUUZtGi8fe515nnX7mmY9/9PMnJ6qh+BdffNGm1aVu72zb7pkwnDNODoCS4SiiGxLFkzWVapKzzIpMti9lX/TBvQHvwwdX2kpbaSvtz7Y53f/UEn4c5xepMhER+X5gXCfw/YFyOQgaYiPaK1JV15hGo+E4Jp/39uzdXRkoiFgBVavV0VUbK+Xh6ampyK8ZabsgDEtlBvJscgXHqc5Vr7ny6nx5TX0uiMkLifOFAoBisQgMQENjuB40rrj8D3ffdSe7wyICW78W/i9/efldb37Nq175l8979sUf+/dPjO/dvW7dyU9+6iU51/nXd33yrW98k+o6N1fy/WkRoW17b775biYqFysSWKuW4gzlOMWHQALNcW7v3Pzjn/i0YzaN3bHF/8p/fT1fHII0lOsABMYruJPTMy98weunp6d379oahjVRdVyQzj7hiU/6wAff8qQnPvhD9z3/97//Yy5XeMfbPviRj3xy+/a7G/Vpa4nVMDln3uueH/zgm84+5diHPuxBn/7El8sDR1/4gKdBJLQWBAaB1Ripzt3xmEue+ZH3v3FyclY5zw5ishSOCEFi2o6YCSt9h8BKtu9KW2krbaUdhs1prcXQSj/ZUiKbI4ZFhfq+n8/nQQQn3LtnS9ComnzJhiFCHxB2ipWB4TAkKxTU5/dWd/sBlLQxtysMaHzPDidXGBoe9hsR2zMl1BGG2RCR6zr5UnGgMlAuOiomugEDUEXOdUBKRomESctD5eLEmkplSKyFqMLOzk69610f+IdXPKdQ9o47ftMN1/3s5FPPu+jBZ921dfu3//dHjUZh46YNtaqf81yiqMQhRIQIsKJEYCaRKOEo4lmGsrUKVF/4oqeXCvnPf/7z9dnG2OoRz3PD6jwYNpRisajWXPG7a7x8vuDlWDlKA56dq336Ex97/l8/5373Ou3e97nnb39z+djqVdu37731TzMwWiqXXJM3Tr5UqvziRz/75jfvd8Zr/uq8+577H5/7msOlPbuq9VrdSuT3JTYU+rOAPeboY4zhzdffXJudK64etTZkMqpKEUFI5/eYFGJYmewrbaWttJV2ODWnyWvR7qWjOAg5yjeKSIVZAfE8j4hmpqdDf/qJT7v4pS/729NPP8lxbBDwb35z+fve+6Ff/PTKQmF0bs/sm/7lLfe4x0mVklGYL/zXf+fzbt4rfv97P/3oRz61etVRQSAAJypWo4aIOBrwfQsh5ogjEnHujSpgQZrEWasKiRKD/EajUCg3GnNT86GXL286atUN19WPP2lt3uMrfr/55s23Dg1vBFPdn3eMQ0wg4Zh+KiXUjHmrEmZIzbn5Pbu3nnTyeSedtAbAF77wJQDGsLWA5kkgELGqKpWBHBt1HGLkCUZUNm06/vbb7rx7yx323FPHxoaB0HGcXM5zhoe8vCsSMjzmgmNKgNmze2cdtGbNmJszrotSqZzPu9bGCth1za6d4+dfcP6L/+Yvr73p7h9870eOm4MWbVhzXCem66Ku3vPYH7wy2VfaSltpK+1wak7MhtwhTjVpqtH1N6G90Fq9zhAbzL7339/6shc9ced0bW5mppQnVTz4gnMf8/Avv/7NH3rbv35Qbe2xj73XScdvdIgU9MhH3q9WtyMlxxj/ox/6KDMpLKtJQ3MBEJG1NgwDv1F1nArExGUKo9xYJpAoQlElg7BRb1RrOachVkmpVK7MzU2LztVqNSAqg1AaGcqr6pYt26cn5waGBhr1umMYiJylRqGqQhQlMpPCxEzWGlUuEjYidu9fPu9JRx+95uvfvnz7tt2jq9bPz1fr9UYuV3Acx7DDRgVWJVDDkUlfVZkxMb7LmOHTTjvNEG3btg3IBUEoFqIw7KggCALXaUzPjAP+uvUbC0Tbtu7yG9Y4DVEEfmhtbKhv+KFbyD34ovsNl+iT3//h5utvHx45ViwZKqhAyUJX7rcrbaWttJV2hDVHlDqVI4x+5jgNRuOrmKgQU8Fz5+bHH/7o8172oidefcO2l73k/136ix8CA0DwzGc9673vffVb3vTSn/zwJ7/77eUPfvCz121Ydfnvvj5flTNPf5ChPJEbBDZfWuUHYcQMlST7EhExUK/X826uXp0hFqgDVXYcAur16sDAJjenjdqMtYHnOsYh1+V8zoQBEdBoNGZnJ4865qj1qwZuvXPbDZs3A0UmB6DqzBwgrgO/4WscpxTVWGAnx8zCrCqOaB5gZm3Uq6HvF8re7Mwe48hFFx3nAO95z/vDUGCtX62dddapjUBuuvH2YsljJhuEXq4wNzs7VZ8BLOADTqUib3nbW0875djtu+e+9t/fyOdzNgg81w0s7dyxm8hVqUMDN1d44lOf/+xnXlKtNb7w2a8GARdAYdggyjtMoWiplB/fu/WEk9a/8AVPG5+of/971wJ5xxR8PyBmVT8uO7iiglfaSltp+9iy5LSLEtUeJp0PK0n2sUUmaLRXl0sTR+NA6IjdmSBCQBCERPZFL36+H4Rf+o9vX/qLHw4OnVwqllXqX/qPD55//ql/97dPe8CD73/FlTfOTO0B1aMk1fFdO9iMqpBxnEKxENdTIJvkthIzzTbseefd58Mf//dycYzJUSVVKeS9O++8683/+s6pmZ25Qo5yOUMi1p+bn2/Ux3fV64AL+ACtWb/6df/0CgC7t+/ZetdWopIxhgg2VEDAULUxQzUpEIBQrzeILGBVXUWd1CiUmYxjCvnK3p13XPLUx206/thrb9p10/W35Zy8CNxc7qqr/nNyunr2OU/ftWur45QN89zc9Niq1U988mOKBWd2dqpY9h72sIc+5MJ7bL7l7qc95fmzszOuUzLGhDZU6POf/1erVw82gqpI9dTT7vHkSy6y4fwznvuqyy+7cvWaE0I7Y60PKMgU8o5IIOJf9NALj9k09tFPf/0XP/leuXyUtVEeUVxKIs4+2h8rc8f6RnTYpAtppxVBB/GJ/8cBWUHjyAJkCd+hz5+X1HmfP7jPTzn4T+z9prvl7yZVYOMJow6ymUbNmRSXAEp8wBwzMxMB1oY25+Tufe97btk1/uMf/yhf3FQsl2ampgYHBojWXX75LX/9Yr3f/e7zycp/hdYZGChEmtYtVgZKw6JMIGttHHoV8TdpXI3Pc3TN6qELLjibybGhALBWBkrO6KjkC06j0RDbcJg8z2OSc+952knHHz88st5vNIxjN27a+OxnP/k+555015Y9r37NBwxX2OTdnAOgXg+AkIhULRsigkjIRn2/lvMMYAFRDUAKcZi9Rt2Hol4NiOQJT3j6hpGR//eaN0xNzlZKY42GzeVyQRCOT8w06jNBY47KJdd4E5PbTj/jwte//u9GhmGtJXai2sLf/e53Gn7d96t5byCfL8zOTA4Mll74ouefeeZQww9LRWOYGPif7166Y8fdgA2CGkiIGKpkLEgnp3ZtPGbd85/3lJnZ+V/98lpmLpcrtZolEpCNTQiKfSkq2LZ3oKX8FbX8f4e6ZcQ7SILFdSrbRTisAFE6WIItmB7oQdJzSKfHQRLsMF8vS/gO2QuYSWyfaQfap87IKJSOnbEcnZGJFLZY8Cr2qXP2O3bs3BGQhcBSd8ijbJWY6KpLGlJUo6jJVBgxU0bkhSQigyMD60ZK1+3dM753L9SGvi8ScTjTxMTeyan60UcfXcjndu3Y2xgYYwKRBn4Q5IIo2pmZo4q/xIjVOhTQQPi3l135dy/6h1JpTRhK5I718gXHmN27dlcqA3PTc44x9Xp4yvHr/ufrn1so+A9++uuPf/h/Lr/syoHK+qnpHdFXYCYgBJRNVJiBcp6pVqvr1q/58EfeSYSY6JFYLMr58o9+fOm/f+Bze/fcffoZDznj9GPna43LLr2qUCqPjA7PzMyysa7rgExlkKenxPNofna+UBy7+vfXvPCFrysUUa3OFgresccd9bCH3PfVL/+b5z7nBRde8MQtd+0iQMB7Jube8Pq3rFmzdvfeLYUybdqw7vz7n/vMJz7s8Y9+6CMf9zc//M5PKgOjxrhKACSwDRtOn3/+A889+7j/+d6l3/6fr1YG1oMICIgBDZrBc5qptrgPTZGwY2VnQUsprEPZWsU7GIJppm7kYQzIQRJsZXocWYD0+R2ScrEJl22mTjll+yy1MzKcTgemM7LXxqRKfdx/PztT986dAOmFbcdpEyWtRBda7aGADWscdUVgqKoykZABEXm5nKqKlfnZWQLyOa8q846TM8S1WtVv+AUvbzhH5BhjImopJhZVx5g03TZ+lCaWVJAfYGp6atuWW4X2GhQRsShCc16+kBslODZkx8nBOHfunvzCJ740N2ugHgig6df904sbGr72tW+89qo7jj/u3uN7JwGZn6spMDBQBMSG1nVzQRASiePkg2Bmw4ZNRx21jkiJ4wKGYRgO5AuDQ+58dVp16pInPujsM456w5vff8tNf3BzYzt332nDQGxNAFF/69Zb6vVApMEsAwMDczO1b3zt24SCIiRqqI6/852F73z3KxdfdO83/fO/PPUpT6kMDIpILuf+9Kc/ltAHM4hgJ//9fVN7P/aRv3r2kz/y4Tff9w9XTU1Uy6URgTJTdXaqPDTwkpe+YHq29vOf/WF+dnL9hmNrtSoxVEOiAMRxqQbi/VyM0fbByQ9Ch+MOywdNsGjex1WVD1NAIvEOhmCt+ibCRA7L6XGQBDvM10tfqjf6bxSIwxltZJBWH8+UuUtoIZqM8t07I75Bdu2cXnD3tXNMUJGKzZnP7k/nhYBkO+sCBcydVLgsqoBZWUiU1EmYF1uP+lEabFJ5MCkFGJdIUpX56ryosuGcl6vN191crlwpq8JKjVkNE6Bi513XSc3LqpJm/SY/AKkHE6SqpQKNDA16pbFifpA5F+UdKSCiYeCrKhjV+aoDOz87+9GPfXjnti1ACTDAzhNPPvZZz3rUO976hkde/Nfzc3PMAtjxyWkVGagMEA1ZsYYJMKqYn/PLpaHLL//DJU/4GyYBhVGtelXK5/ITk1NhMDk6tu6CB50yVw1+9OMfb9g0Wqls9BtVK36+MBgCBY9POOmYoCG7d04HoeMYaxxeNbqpkC9bbSj8UuWEO26/8UMf+PxFD7r3KScfQ1QIgrBSLldrtdVrVhcLJYBr1ZrrHbdn962f+OjnHvqQC04/4bjBwbGp8R2qUUC436jP3O9B973g/LMv/f31//Wlz+WLR/t+GIah47CoRAlc8Rlpid4nWvDvpGox0rh40iXEHyxvlEIP8bKC6QF+omYN0UsBZNljNnqI16ShWz5AeuGPGJPDc3q0CaYH5YmHfL0s/dukhlZdYI/VBUbXtiqibYoWrSFEbd06dtbl6IzWP2nrb9BJ7H46a/fOHWXTTm+VEtMxLZg2sQk6+tlJiCOJ4gL3lKhpsKaeJkqkiUoDSqNWFWZjzGBlcHqi0ajXQhs6NiDiUnlwsFLcsmVbaGFtyGyiwvNsjGpEmJUIkyjgZn1aVbEiElgJ/CCIVHb0UGIiIpCAjFgpl8sbNp3YqJVyXp6Z640N73zHe5//3Mdf8MALTz71jC137hwdHZqYmti1awczb9y0YXT1mlrNJ5egTGSYWEItF0e23LU9DH2CFVgBQGL9xtjqUUAe/qgL73XeeeUCPvGJdwc+DQ4M1OoSSiPvWlaMjo5+7atfmJ1pvPlN7/3+d386PLhawoaIPzu/l0hUrTElNze4e+eMDXVwKB/9Mu8VA5FGvV6vNcSSiFS05OaHd+ycmp2Zsza0DVU4RABxGIZeufTqf3xV3Q9+/cvf7N65ZeNR501Pz7MxCiWyICVK0pZpyYu6ZbtIlDgn00fQl1qnxWwx+9y6iScptciyJje3b57pFXNfATmAaLSKJ6kz+MABsmB6AJDDcnpEgqXT46ABcsjXy9J1cCJCzCkcFywHC4TAbZfaZB0IkkWYdmYwFtyAe3dG69Vz6Z1jsQXCUAJbEBLGXWk9T+xfZ5IMl2/bd+TWEqttOpszMyVhQkqo/RksECV1RJOiOZERNhmOVJK83+i/8VULoq7DpObuLdOrh4ePO/60O+/YWix7VvxC0VWdOe64Y/Oe2bz5tvmqtdb6fsMQmGFDm+raWLLUa6kRHhRYUmWHxQ/qnjug5BBpTMShMMaFsGM8znm+H8xN12ZnGyWQSJB3S7fdfNeXv/rtx/3FxW/+l5c/7clPZx51c6u379h9061b7nXv088869if/ejHw8P3dFwRa4gcGwbMSh67FcMM0YjfwyrE8xzQxK6d47+/anMhJxFNVrW2t1azRJR3ccrJ8EXH985NTM0rXGtprjoXWBkaGGIWhYShFUhtfsfppz2VmWZmRSQMJZyamSLiYrmsAhWw4XKltPuWG84466yh4bEQTq26NwyniYtqpTY3ec69T734onvdeMudn/7ENyoDJ4ShBazjmDC0xIBGdZujklB9r+gFqiWegOmNQZslodGHWqfMrre/+0rG1NlNvFSwaFLvr92vzbia/V77AYgul0ewD/GiOLzoWcvwFnpOj1QVRVWmD/b06G/2sjZ/c6ABOcTrZR/PERrXu0vPC0LJV1IIAwqVKEK2v8669M68v50BCAMACSQ6bQkk25l7dUZa8L5HZ01+TiRJa/Wm0a/RmFH1XihIoABYSUkjouAWJiRKYptJiZQcVYUSx4SQ2YhoBZKbsAKQxHerrjGzs7Nf/o9v/b9/evbTn/moH37/a7fcch1UgNmBgVUXXngvx+Gf/ezXtfnJXLEMJYYyZyw16QxMCKc0uQEz8c5d4zOTtwGYxRDgZWa0w+4o1AmDMGgIGbLWYS7m854fqusUct7A2/71vc96ymMe9OBzTzjplO1btw0Nr9t8wx9/8JNfv/zFz3z5K/7mrju23nbLZcAg4AABYIBcobjGDQLDhoyIBBE8fj0cGV33+6uue/5zXmZyPDs7C1FiiIaw6hWLN9/868mJiac/48V+zTZCGDdfrTca81vnZmaBIgAgABrHHHvvv3/FM11HfnXpb4F5wWAQhPVqdWryeiAPFIAa0PAKQ6/4hxdvWDN67fW31+pThSLX67OMASb3JS/5Oyv49S/+dNufbly38eRateo4johEXGCRoyCizEzytvvbUBBv2Qsvkc3LpS5hOSulRoz93l4R5771EC99ruz/c7W5a3e8Uu8bILLcgPQWr3kc2f+H9pwe2YdS32gs2/Tob/bS8j73cF4v+/h9eMFunJwpmjop+WHxzgBkiZ0jJbOkztS5c/xiYttHpjMv3jl9hV07I5EkceumneNXrs0jWPM30e4lUSIRRV7f1okT/w5wKL6WJobpdMYRRQbOaJsHxU5cIrJWgiD42te+/dKXPedpT36QcT95w/U3zkzPjY0O3/Pccx998Xm/v/qWn/7sN04u5zqu63q1elirWcctUJPrI67cAICIo+u3alCvVy+835lf/uo3AA5CI8IRCSYj9Bz3l5f98SPvf6vnnS9imYhgRK21KlYbtjY8NHbTTXd/7X9//YiHnPvGN/7jc571vOGRDUFDP/XRzz38ogc85hHnD/3Hh66/7obxidmpyamhweG1a9cMDhTy3uAlj3/x0OCYlZBIo2NBGIZQWEu7du5xPU/EilhAPc+rzldp3mfrh0Gwd3xvWGUy+fvd777veOffbdm6tVFt7B6f371rNxOOO27jOeeccfaZG2oNvPtd/wYqlgu5L33rM9Xq3q3b98zOTUxMTllrx0ZWn3r66RddcFbR8979zo9OTlTXrN8omhvfNX/WOfd+3F888O7tez720S8bMyQWqkqkqkIgRFdg4iixGbSUbPFseHtzY0guUslu3qc5NfZ10DKlf1DGzdJJPEVLsjr2/7nU9Nhoy07ZftvuH5DlEaw/8VrckMvy0B7TI9khgX4DD5Z5evQxe5XSbfDAA3LI18uSmkTF0SJLbPbInok/SsvRxmfJ3p11nzoTSPoWo1tntERCLa1zYqTits4LgpxJoKlFLv6CykLCCgbb9LxCSXxzamOgZhBVWk0wnTZRTFVSDYmaAdcCxApfKfkLEVSgCo6Dp8bG1m6+/sbHPvZZH//Eu571lEfiKY9Mv+UvLv3Dy1/+z7MztaGR1bMz016uODRQLFfgOvm2UveR65Li8F1bLJbXDBfXDB91/HFHdZw8AZU+8v45z8uNjq5mZmaEoR+GnioFNnCcnEOFd77lw0967H898YmP+tD7/2LzjTeu3XjiDX+84xnP+Ps3vPHvn/jYB19wn9Paxrz0t1vDoO6HQd7zgiCMyC0Mu2EY5HKF4aHRMLSNRkNgAXUd11r2cm6hkBsbW7N29dFTkw2/4Vfnq0PDa+533lkLZb72hrte9pLX3nX7TcOjx1Tr8wA/+uIHLey2bXft5W9+yze+8o3h0WNENQwskXvhgx40NOD94tdbr736V2vWnuz7tdhhr8qcLRVJS7j+tu4q7Wm1S89rXErcyfKIRwfmue2b577mAR8gQHqIR5kOBwH/FhEOv+kR/Styax5MQA75elm0RVbOmEYfbdaS6IfI7mpjixpps0/XzhlLdUtntMYuZTtzf53tgs7a2rlNTS6pc3RjkQWd0SE+i1ITYxx1FbtmKTkFa+wtpiZunM6/lniV5rRJzNkDYxdSi4Ervu3G6lxFozzdRGgVJSbHOPV6fWZm74aNm44/fsPIyJhxnLnZ6cmp2VtvvXV6ujY4uAqAtWG9XjvllGNFsHnzreVyhdhJLM/RY0RBxpDfqI6tWjU8VGg0wsQ6TTEbl1oRcRx3fHJ2185t5dLo0cesV7Z33LZdQnJz0bEkT6SidYUcd/xxEuq2rROzs+MDQ8VGQ/yGVCpm/cbBVavXj46MFYve+MSeHdt3+Q07vjeYmJjOuZ5hCCSySxAxkYI0YtESEdVY34kKEZ9x+ilBoLfdereqhtZv+NXVawaHhrzR0dGRkaGca0CmWq1u27Z7z45d45MzpeIo4PhBbaCSK5WcwbHKwEB5sDKUc73pudrunXtnpqt33nl3znEKxXJoQ7FKakbHRtatH56YrN5+260DA0NB4BOxQlVATElAe9bX2N9xui3BJvNLymTdaKe0ijYil+xvlt3l2UM8TdbFMuR+tOWTLJTk8ACkt3iphMvp8uyEf6xlun/BNkCWGY3+Zq8ml/WDAMghnh49oO9oMY9uwLHC0F7sGfFttWPnBWHJKq2dkYlCWq7OlBil21iHsp0VJJnOGXXe4QuiU+cuVBsxGhJ1jkzKqqpxEVsQDEW308gNHE8QJXCLCTrNAxZSViWNFXD7yxIoq4nPQEIkUdAW4jssQ9kYtpbmZmeCUEGq6gNqOF8qek4+L1F5eOIgqM3NzoNQLpeZHGOaChiwopHCE4B936/O1TKQcWtYvJPLe14uF4b1hl8l0mKxzBxXc1J1CUKmJorpiQaxU8iz4ypxQCiSVur1iVptMjFB1AEARZDreblCoUREAsuANlO4oojbhORClUAgVSERnZ2pGfaKpZIxrGStFd+vWuvboB6RYkYCg8nLFYuligqJgIjCsGFt0PADtZEMAUBAwXXdYqVo2LE2UDikUASBH9br5DhcKufDsJ5zc1ESGMDxkleyFHsolpAG3LZ3NN84SGAyeY3CsWFGM8tZkckY1OafLC8w+eyHvmnfQDLi2cQLszwbWUc0kicaackDjgCJvV3UXNALAcmitzwnku7iWWqKpMukb7pND87s7XbB9FgIiOqyTo/+Zm/0rAiNAw3IIV4vXSTWpusxvd2liVkiTRd0qns4o5koUiFQ6aCtWwDN+EfTztkE3M6dBYp4IfXqHP0z7UwZJZ125uT+mvpfNdM5UcAdO0dTM3aJcjO8uQMgHJXga3ZOpjvFdMBK7DBYyJIQSIhFRWMTb1YBC5SVhIwYy1ZZqTJ2IcuCG3B8RU8DwwUkgI04m6GOKhOBmA2bKEfIWmutjeaYRjhwLKIxTKDQ2lBs5EUmkKiNv1ycSqEEZhOlHBkiIjVEHD0oqlQoKlCb1EZUQKNBiKDK0ZmCiZiNqipZRV1RV+uRFpgJFIoEIkLMTE7cTWNTO0gporyGjUsfRhHr2ixwr6SkrAoy1lCo1hCKRC6zY4xlE4YSBH6oIiDyfb9crhjHmZqYybkFNib+6rAiYWgD13WhtlavlUoFEKwNNFL06kBYocwOEQdBkPMcP6i7nqdiVYWIWza6+AzW9x4jkKxqyR6g29bxwhN9YvheeLFYnhO9xLvYwiCstnT3yJK0DHoueeLCKKfFAclkGBxoQHqLt5zb+n5MjxQQWfDXZbvw9SGedjolHBJADvh6QduEaJ7CYp8k0qAKFVFmBsBqQAQGKakyNS9/SbgvSVICIKPttE0BJ8HS8VpNOseOojbNne0s8e1zkc7ppTPqTJmjTdvVmTIXZc101mao18LOcUSJgLKd2+7ZkWqKjQEJlQVBVAFJKgmKSuRLjUK3QaKkEBAJqWkLwmozozhR/E4zjiOxUlNz8kQnqmSLj34NEgWsRNFJmoSBEbMxRuJK8lAVUbVh7H/QKCSb4hDeJI05UfSRdTUuEUhAfEsXK5H+RZIRHAWXUaR6kkLCRIAYIbHWV7UgEFkyCrIqsXvXcY2bc1RJLMSqKIg0/qrR/0siN4hI4sOsapwEpgArWBlAKAjAVm2O1Kja0AZEviLi1zQq6jq5IAjDQLxcjpiZOHlnKiIi4vsNxzEDgwM29H3fZ1bVyLVrlUAwqqpic57TqDdcLxfZwaPYuGySDiVknugzCiThVsMCH2c7t3z2FJ8a96Q1ejH78f3PQ03j/NFLPIpdBcsWgdXCqLAYIM0fkovEwQGkh3gpXMsScLTP06MHIMuDRn/iURLhesgBOeDrpUUBpyF5HJdqUSUG1CoAdZkg6iuq03N7gABGMueIhHyqSQ6VsQWCW7eWbGfbyv20sHPUsp3Tq2TvzpI8q1vn6LkmYWxu69xGU9XWWZPvuGhnSbpJs6cCUDa5Qr6sNs9UYnhAvGkDIIiQUBzAHNX+ac6m1OFMoNgEvfAwJQSjmkwpbT5eFcSqhpQlqikUHzApimeOqDaSKvcanQ5ElYiYOS09yOlxWVWSYxgjzWmNBqH0+puGlCWrgSJ3N6mBkibp0hrhFR/ZBCREJHH4dhQ2rCnDJcDJ7TGy6FqkcWLxTEZkUhCYtCRFQloSAqQwJMTKSpZaT8hRvINCObqwxkszwkWa2XjRIlUba9fExU/EokoCsCOIjq4iSuAoKJ1iX3B6Vup/KXfMmtA4biV709IM3U+aWtPt2L68Ls+OE5ITKsro5yZNzHKYoLssgZZ7TzbnRKlZvLPzwAceEJNQUaaALKPFtSP+WctE5+lxQNHob/baZZweh/l6aRUpVfuRsNaGrsugWig+Yzj0tRpsKQxMDY011qx3x1aVc3lSsUTSiVUxO2ZCSdGb/uaAd079bQeoc+LlpU5nG1JVkpjYUY1x5mfDm26YnNmmYThaLG5yuGS4WK/7YJ84iHN4Cc3jWzxthJUjKkohad6A2499FCcdKLV5yAFKcg6jmGhDSRZx8nsFgUSFmTmJvosvm5IkKzJrdE6L73ExTqSszXkQXe1jU3bzCJkmYCW5NxQV+I28uELMaQwXJQlVHF9qE2tUkoScKjAFpcHmSay+JvRf8b1fm4kw6sariCPNDYrpQ7MYkkp0uY5urbGFPqYWidLcREFRQHjiM0gM/kREhgUWyiKWDJOqNM/Y1DRQ7OsNeMEbb7lpdT7Ro/MDDsQNuJt4RE2et2W8AXd8IhYA0oKG9ip8chAAwQJAlvHC1/FxKSCdp4ceyOnR3+xN0QAOOCCHeL20jJgE5UZ5LyL5gteo10MrlUFvanoLS/XBDz3nMU+46Njjx8YntoxPbhfxvYJREeJs8FHHW+nCmvHowoec/ZMsRp588Duj+827a+eoijwTR+5RJhJFzimOjmzcu7v+lS9/9/KfXB7kN+ZzR7luyUqQJiEpZTK+m9TLkedTiYgGxh5Iyp1mR3qQ6rCqonemoioZhmfDUFVi1shCrUQkKlHgkBKxYU3sqMSIyjvAxr9TqEOUDdqOnBZREDL1uOIlnuf40hlbsJFOF9VYAasqcyYSHG1nj0wJDI3DvjUlFEuOBJEXnZQpMRqbxE7QJbsgVrwdv0sitiTk2E0GOAVFyRSiYCI1DFUhBtQ0adooSxDeFx9HxxM9NUuSpGGfKRlc24m+LfY4nf7LEFPS7cJHLRVTsskcB+oGnOaSLgAkvQVK5px4SABppiE1OWQPzIVvwfQghek4PRYAspxo9CMeWrmgDxYgh2a9tG7KCaGwKAmx2pBVTGWgPD1zR7649bVveeapJ573yY9/+8ff+119FghDAHBMhugxE7jUwebcVo2ghw7uVpPgsOpMXb6jdNDimtSKsNLcm7UBVy569FkvfsmTtmy7+Z3/8tm9OyrD5TPCsKGIaB/jDZzIJg7sdNrElmUaHHtQh+nZMuc6pK6lCVAtCjhSqlGMUOQWJkJGAYM4priMDNXNrOQ4ao+VOp6hF1HALZpsEQWcGafbcamVzAjQyD+cmODSm3psI+/OUtRR8n1TwEQUXfCjNO1s0GmW03PfiYjbyttFS7D1RC+ZdJdORbwOZDHyg1x9rycgWFAOSPHnDkj2ccms4C7Tow2Q/2vT49Ctl2Q/FQGJQlQ8L5+fnb21Mjj5vk+88dZbb3zzP3wMuVV5Z33BW+06xcD6UJtRq22BSwtjkttcMq322/boRDmsO3eI6KYOVuisqdyAQaomrtTLYa0xMT97E+zMq97ytHufd59/eMn7t9/J5fI6scTMRAyN3K/xlTgNT08mqnZRwPs3L9OcOU1WaWSoEQHHjFpMJnYMU4a/hjWm1dwHgTIKONVkHY8z/U3kVAFTTM2dLpokQ5qjwK3eClhEoshDIkp/XkzsjAJWVlIhSn1OgIBMZv1GQXC8vwq4+0vssaEc2F318GmtgOAwrMd30NHITntdrpzsP4vpcegASc0gAlIRdrgIzFt7xXs/98qbb6i+6/99LVcZHRtZVZ33wyByfYEMqyhFqTvEiRWPW90JmUyslLEJaMllWnjGSOkbD9POCxQwqJlr1BJSr62AUHKpEzbM7FtMTu/a/Levf849Tj/rNa96e3WyXCxsjDZzhZEwjFin2EAEbRrA5IvH7IuKapKqNFtk3U7rKmVDNJsnYmoWbYk/nyFmof2oIBYPpllGlVbzcg8H1YJk+egTLf/NUvFF3yF22QKdXETNMagZl7UUsTXNhk2pzRIG3oSGo4W0sV3kFiniF7b46m0LHFVqBSTz17a0T+pRA3PfyH+0mcq4+KbT/FA/W14/J4fWkVv9zalftuUFNIMSDgQgS3iJrSguCsh+odE8+WWCNBYC0vMZf9aA6MGZHpGWTGgRlInUcXVi9w0vfO0TShX/7W/4vOuckHPLKtba2KJHxBRXyEujZgxFKabEyS+ZQBR5iQmkcVm6+H8dOoMQ3xG7dCaC6dTZtHY2SWcn05mXMnLPzvGXokxnELS9c/Y7qiFG/JEkhkjUGC4WhoZ+/d0fPf5pD+Rc7aY/3mXMKBNTHISkiWwLyxMmVJRLbS2BUa1aTpBIl1a2yFaySnd2SWKqkQTrJ+lO2kWRLSqSalakOPkNqRu8raqjtnCetHkWU2r7CENOs7ST6lDxREfzBk9dxEoZ0ajTuooMEwvE1pQyFFF0mKYEMJSEhzdlVCwWhBXHV/fedDLnCcQnemTi3hQtN2DEfqwmBQj1HHnpkyz+P8XiYrf8m/obva8O1HmDXBBzlHku4UAB0u9LbP8VHUA0OgLSisSiLI0HDxA6+ICgLTjuwE0PTc6FqkrG5Zm5LWuOK5903Blf/vKX/TkeGDZASIY1DFU54cGI+BMzFQk5LUCUxSzj7MrWXksPFkStRwdOOrd+szjHpbWsgnKTuqzFIcsJdpk9Ju7caWSKGfJbNkLt3hltYlDrjt0mNieSJO+V49pKQSBFZ63jTvz7xz758n94wu8v33HH5rmBgUHEGboc01dEN87WF7uPCrhbSzOL0kc1U3qQKYqYxCURtVg1qK10U7MtbknO1jROr9VErJ1vni1G42b+OjIRp9RKPd9k5E6PF9QtRzOzEtHCH9hB7CgROVP2mahpS4gi2ZrCNItyAURxQhtnn78wjWCJN2CNF1NmTrYAQs38jmS29nlX6NMY18wgSenN+x98sftN/7bzrmKnIGTr8SXZ9vs18iIyL+HC1xy5JyD7gAZ6AEL/FwHp0LO5TJr+tQONRpbGlQByiIPqjgsf+pCJvTN//O3OQuXonOMFYRD6lpQjBn6ilICIEWc1ppQPktxVLNRk7JNNMn8093dqWjLTTYlS0og2aFL6C5uMQDFDVktQWiQVZwbh5INoWiObGEjSOUs2maStdBZDUx2VnSAdUCc0g7mad58otEkI1KjVK6Prrv3lFfqSoaM2brzt+luAklgCclGeUYT0wrGXXwEz4shnyhopI0dl7BdRImIy0WmI0Or3pXYu1cSVy33NQ4VNwpqIiNh0DuBqK7O6wKXXzOBK3diKNJMoOTzFqlGoi3ZtPe1qtyMLkYpNrfpkTBovpslTlFJ6mEgwmznXCXV8ZBMUEwfHda8xl7i2Ncofp0z5ryzJQ3OrTUZeigKWJW6vsQLmXol8caBjyowtiytgXsoOK731jSY88EJKaajkAQFk8ZeYHVmTSD1ZXN+YJWqFzoAwmlEv8TJfGiCyFJXDqQLuAxBJMjkX9cvuAyDSTQFzJm1RYgVscGDXC0gRh8IqQesjq5zdO3bPjReHhofrtQACYhMZRJNyAqn2SriRF+5ZKk1NGYPPiKvYZegyUlVHCg07XqRa9F+sZdFU5HEBhtQpqCCb0feSTKduukAW7LKaYYrOfKmFVob+kU4DZBEFyIJJrQTlgjcd0p0310449uTfFm+2YdVQCZFXj2NLeFMtpgo4PdlgOaIHKVOHqan2sszsKe2jStP52TWDJ7vsZRFw0gBlcBJ1FjF1KnVRfYQWrU+Z81DzlWXum8iUJIvpuCMTdPfjSHxYUu22mJqEIyluyNKnxAbnJOckUsQ2Uza3fbTsSU4ptkshdg4tqGrXAgaSmtCUnRVtIGd8WtnU7B6TJ2vnWWxuNWWOYhioh8zZwWO/QV+JsP2Z+OLtrJm01jIpkzhKIFuJPJN/uvyALP4SsyNrag/Aov7OJaKh7f37AaTn3kJLkWTfAEkWy/IDQguf3cEEfcCnByXLIGYqVAUcFMu86645wHheqe7PMzcJEBJbcmIQjhWhLlBLFDNTxvcMIlZVSfYIm4wmmlrvIsZioDtDkHagdW1+a20PQqEFgS5Z+qE0myY+hGRfEatK4pxMU3Nim/KSI0izsymJSlMhEIloGFoh3H7H3RvXnezlcqEvOc8JfWgSxhPzP7VurE7W6LoMSeu9rnrpDZiiI2n8/y+igNFyillEAatS1p2bmkipq2bvqr7iX6R02BmvZ0T8hfQG3FUk0ShbOmLz6jgXU1KNFjdwi9gRLSeSSleIZnfifO10HcmcKrKpiqkRgrvPrt4zocVBsPTidP3MnnYqyp4yd5N/GVqWfiE1gWh8AkpBkOasbnkVdCAA6eMlHihAOr2XNB+J+gNkeYKBO72X/gFZ3unR9l5oASDZcOiFe8sBWS8JoS5AMHAMua4L+H7gU6p1WvSXdljhLftk9KYNiCKSS1VLDLUhIApLAFijMnFQowKFE5EkJNZH7f4WJU1iBSTliFAVYtIW5s8FoSbU5odWzbhBmuLHLEoRSWLEMSxJRYK2E4IuBfe0dLFE+jwMQjgOkdYbNd9v5JyyiKhyRNBEFO0c7fM0vgHzAaqQ1WnvTmKlKA0d7OL3zcJN/YhF6dGPaDnFbn18/0O3WQK6pTInR89euc7dxeih/1vSRdI4smWApi0R5cCVI1xkbhzI1loDpxt6qXim1fF0gMoRLudLPDDvJWuOBppqadmpKOnwAIQPj+lBTRdtfEQPggC+MJEENmbnjcRUijJhFmw2TXNj6r9oikgK4TC0rsOul6/XZ3OecVx23VwYNsLQZ+MGfug3AsA4huN6smqSaKWFciOp9BBZcyW+pKrW63XXdYOg4XmFTIALNXmIqT3xPsPHkOUly+RMElRUVAyz4xiArI0K+cQsyYjl7OuVpA47AAoTMRwrEZQMG2YWG3IOGloih8DapFduH9xJHdXAgc1rzAQmUH/6dH+etMyD0YEaPjMs0TKLkU3ey9QTW0YFnNYNXLbJs2BDITqUCpgXQy8bbtMeQr+8gCz7Szww72UhIMu8t/T3Xg4eIPs0PQ7EekncSFG9UrI2hICIwzBEzEOQKJqevtlItOxeHbnao9KxorA2MA5Xq1PV2V1ADZSHKuAD+Vx+1M2VI6LFyCFEHR/XjCsRpdiToHEJH1qzZu38/DyzE19Po/ctCjXJSSJi/k80uyTRmjErcfMZ8WEx9ooTgxqNRrk8QKRxmfckBpZaK9wsrhTiPCSJGabIMBGUwjB0HJeZrIRMeagqKST1Wy9QwE3mGlpuCrcFmGcdRf0MvqSEuIWZv/G/tecHsDQZDhX1RC8xurMVZmmJ0Mrfu0Qcu4+ciVlbGi5dGP5I20xqfci8HFtYx+/Y5vRsr4aUeTeSQUD3jYV4MUCW8BKXHZCe70UXANKSU7CMaPR8L4cKkIVitABysKZH9M+EoD9WR01mwuiXGimuLsPH9MOUeYmRFiVRIXZK+ZK1getix/ZbvPLA8174wnvc42Rl1Obnb7vtjj/ddNfm62+p1UPXoSSDKFNGJz23JaZyUs3U1qZUBd55++1Anbk8PLrKhiEB7TG6FNM6qoCSwouZo5CopoUJ0pAVEoXnufVGY8+umwC3NLDOy+Uktp0n4TzdN77WSR6PLXEWKUtU6YBUiBRWKTa/S8Q11YyradceTupm657XuDyt3WZF/XwkDV3Q/h6RhuVpGnOhHZ+VRs4vJshBuwGjLzGaZqLOvt4OSyq1zGSCUDovP1KKCmAtHqeZjpxGPil6Td0OR6GOHPdpmjXQrKNJPe3sHQfv1b81TbArenFUOmUjF9t+SOjJJCoBJxEjWYZpYZFY5SUA0s9L3Cc0sh/sIUZ8UyBkAMmQTiwKCGHRUPZWsXvO6rTc7SEHhDtNj6YPWJPqyM0b2wGZHtTMrlVEcTZxHmZCFERRimHmDrRw86S41nqSFUzaDEYRgTTqDVA4MX73Qx/+sM999m2lSmWgUoziY6dmax7ss/7yH7/9Pz8uFQahqhKxWmRVryaVZKO7r0VUAZ1UlSKFBei73/vukeHh97/vvTdcf/XwyCYrNjYOU1tUg0QleKNvpsIa1YmPDh9qFJFyJFGJkk2q1RrB/v0r33D+eef/61vesmXLFtd1waoixJzQSNAi+iue5CRJ4ceo+nL0zWKFG08KIRKK6ugmRX/b05BMxnthNIlIPzxY5ZJYbxKYfgSRZg4BURoPr6Dea+1IatFX4QWLMOOfowWJx7S4iS7Rc2TU9AXOEsL20k3JdBa7o8z9id0ZkCUg2YFYMbsjRemMHRjD0wwfRDW4Y7qUJYa5LgWQJaCxYOT+0egqRnqSpW6ASHLrlaSieRaQPqKgO8/qDkloSwZkP6bHooCQoY4qNAMI6MBPj5Z5y6QpcUFLcYWIW77rZqtRWqshVeEkhQRxELGqssHcXHV0bO1nPv+RDWu9ydngP7/865tv2ZzPe2tXbzzn7HuP725AQ4etHzQK+VKjHoiI4zoA2TCw1npeSdWEYQ3ccHORvZyYXFUHQtZak5O/e8kjVfCTn5x8/XXX5As0MT49NDRM4DC0osLECrYKz8vPzc26hsOwAZKcW2SUjDGi1Wp1jtlldsgYv9HIF1wVQ8Ru0dmzd+rvX/HkjRtHrr3uYe94y1uHxzYEYei6norGNXK7b3gdV31U+o/ivK9I48QxV0Iq7BM4CsWiKKGyVQU7acWj1LhxEPzBfbZUAS/p+JrSRVEToE6TPFOcZNnlbgYKLPMDOnkpFvrnFmpXXWTZU5Z3ihY3QTcZC/aZMyjrzOuyEZEuKYNlvxTwAjGaJEZteXrZuLOWjInWkbtfcfYJkD5e4jKg0VWMbAZIk7w9W/62NyA9b8A9Z/Vi0+MQA9KpCETHcoSt00N7Tg/dh/USh1+l1v80oCqlPu6cS9eqgNP6b5RY2jShPgaLiN+Yuf8DH7VprbdnauZ1r33nZz/5aeMMC0KIS4Bhb926E+r+9NTU3hmaJ3JAnqgx5FYqg27O1OrT8/N1oprQvCEBNFcoS8hhYIaHx2bmxm04GVi1tnrnnTepzu3du933/YkpP2w0iJH3yvVGQ8EiVq0FLLON7tZzCtXc6MjRoa27rjM3PxMEDdfJKbRWmzZmgChvbRXhbj9UF/qnm/8I+JPju5h4cGRtM3q8iz+j1ySnhByQoCRKEvm2lUgpAEiRiy0TaM+FcdqIn7KsC4dW+yJjgu4/ZitR2JodonsG7oGSOyayQHM1LlPrpB47pCK0LOVMHmLX19qM6+tzy0ryufs4pnVR6RmTWieZW8RejNlq6TTCnUzQrfa9Zs5z6pQhtNCBpcEvmep7LTR3SyP7XQSQxV/iMqDRVYwMGmj3UrUQPy0AJK4etlQu6K7v5fADpHV6YAETVuv0SOmUlnd6pLtNQpYSJe+mM7GN774lPCxzoCBQFFIs0SWPYqINBbE6Ko6j973ffaB6ww1/+vTHP14ZOGZgcKDRqDHl/IY4jlOtztZqM09+6mNe+OKnHX/C0X6D/njt5ne87X3XXnNjuTxcGci/7R2vHRopfuc737jXvc9+wiWX1Kr1yy674i3/+u6tW24/+5yz/+Zv/xk0D9h/fN2Ltt79RLHuG9/4zw972ENe+tK/e9c73v3Tn3zrNf/05nuee68X/fULz7/fvS554uOO3rTxmGM2gvTGzbd86AOf/+H3fzo8vKremHNzwd+99PlPe9qTB4YGatXa3Fz9HW9/1++vufIfX/tvGzYOquL5L3j2A+7/oHy+9J53f2jnjt3F4mAYWmIA3DsDkyJNKiSkyvEEiO67kS06vTVm8/G7mqAXEnEscz7lfqqypavKNHO7z7C2A3oDJhz4G3Dmby1/bona6PsGvGRx6IDJjCVyOOwDkt0HaiHiQGf0WqmPidpBoWUG5KBc+DqL0Qca3QFZTKxFAGl9L0caICn7UPpG2yg5Ojxa92V6aGwv0vYkkwx9bcvvFviDYxNi+vs4ETcqlQQIG1OsDJ188jEK2ru3DthKZXh2Zt4YkIHDjipmZ7d/+nNffO6zHzTrB3MzswNF8+QnPOSiix7wwr965Te+9snTTr/kSU951OhY/tlPf8R8I5yrzW9Yv+Yepxxz5j3OftiDH376Gac9+SlPVFSHSoOPeNiDSHHd5i2lUvH0M45+4P1PLL7lH97zvredcsLYXB1snJe89LkPvO+9ZqsNA3Ec8+iL73vf885+xtNf8cMffKdYGvrAB9/yguc+ObB2dq4WBu7QwMaz73mP7bu2PerRjy47jlW9+CH3ftiD7jkzW//GN76/ffsubVJGL5bZltgu4loLsQlaSRmxITpVv0DWqdxpMrbkAccF7w71xfeIb2mB7iQVUuiQiZHN1j0CCsYtRhF68F8i9YEedQnTOxAp14fmJS7xvXTMm6flk6TP93KYLK42LZeYGqWTM30pPKmaMDtlLluiUOLWZybV9NqVclsN3TQwNS6Im97gY5O2kogNg+rAQJEIs1PzgDIc1+RCG/gWruNMTe165KOecvHF5/iBfcubP/S5z/7H0ODat771X570hHPf/q7Xfuub/1Wvz05Ojq8ZXf/1b/38c5/70m233f5Xf/2i5z//Cfe990kbNx73nf/5UaVSev8H3jzrB+96x8duuv62YqG0feudjmNU9cSTjp2enLjiqlt/8MOr5ufCd7/jC+91Prdz+9Y94ztXrxr92Mc/fK9zT3zqUx77wx986qEPedwLnvvkaq3+ne/8+H0f+LjfoDPOOPfK3131p1tveeM//euHPvquNQPFD3/y6z/8wa9Hhoavv/6afL4gIhRFbrOF8GJhA/F1hZTj/F8lVoIwCYOyDJqLNCeyfGcL3cSvB/t0dVPtd+YumE6LfOGlFghDynSpvYVKi/8p9vG22sldFzNHJkahpYjdWqFw8UdnGfCRKSeVqVzUTBbSdmfQfm9EzWIb/Q+bFbujzC3bVR8y79tL7CpGqyQL0dOFsO/TlO30HZbnJS4zIIu9l0UBWR40FnsvywsI7cd70bYPLpAlCrGnzmSyaI3V7wInUax+s1VuO1ZiRVrKN9kPKcNyRc1vFqcipWVzGABYVAFlFREiUQQAiFzAUWXVKJeVjXGsnbr44oeuXT3w2ytu+rd3foDg7t5Rf/WrXvukS35SKuTvcfZ9qvMTA4P5aoDPfPpL3/vOF7380a951evuc+9T7nfeWfc8935f/s/Pf+zDH3/Pe95kg+BXP7/017+4AvALxeLA4BAR/eLnl73iZa+747adAIrl0Z/+6BuADxTzhdLUxMSPf/Kz8849cXCkDPDRR68VkV9feu1LX/Lm3bu35wsDf7jqaqKSVyx89T8//prXvXrV6Uf95Mc/+d63vgoMeKWhglcBEJd4b3W2LNzrWic5KQnAShylIWnqKM4WlY3L/OlC/eiAkpwxamrGtvCBpa2auCZRNxbQjG+nJZanl2rSvkRpRickdNm0oEZh909SsxbTPiihllWSHtITeQRdqSgXmJQSsbG42OlH0szClgCCBVwBdGDuCrF3ZCnopZw26CZz5r30KfO+vcQUPV4QXNoNvRbyr+6xRfvgfuwFyNJf4j4Asm/vpS3ot0u1j31Eo//30g8gTf6Q5QKkkxgtDJQdOKcSvguiTocE6vLfBXKppsEmBIAiL2RSlTDd/9PgLIrDNDkiAWa05Gun1OtJ4aZMuhcphJWJBCpsFIAIAIeICQbN2vC2XClC9eqrr3JcHhk5anYqrFX9eij5Sum000/8zaW/tDZwXaoMDjNvHBtbu33brSo+M5VKJcAZHRvOuxxYZ/36dU4uNzJ44vjk3Y16COB3l195x223bVp/Hhy6e8sNx5103n3OO+Mep51w0slHVwaHzjrrVIC8nAtQuTxEzJN7p6YnzapVJ+byGgZjBG5Y36+NFEsFS7R+/SY2pQ1HnTA/V7chCEZj9svO1KYtFGbZSZ4Q6Kd1GZWSsKw4H4zSNDFdMBucCDih1sOaJtHnS92KVdMEtK5TumXmZqZ5Z9WkBOL+bsDUzJGNjxKqkiSf9VhjMYt0z6NxN16AzE7Xto7iI2WSvdEDkOYxI8rDkyiDTXulv2YiUDL0Oq3XhThJMCFRz/xVe+vTJRgblnADzmyT2YCdjjJnt+A+ZN7Hl5hFr/2mlX4viuthaJu0WfohJAfntpEXcap3ChrW5XmJmtDjdu/ZYUpnz7DtgGRCsJQyty1tbk/NN7EQ6sXRwMLkhE7vJQZEDzwg1Acg0ml6ZAFJ+TAyxRqjSia0gH2W0Llo+cIKVNEzBEyQyLxsM8G4TaoNoixpWWT3jjiX01HTckYahw9p1viWXrCJoNZaJapV6wDyRWUOVa3AqioTOQ4BNucxgFqtZq0AwqxB0JiaqeZcsOMHtj5fm2VeK6EVqVurqnOhHwAItAYy1VroWxWrs3Pz1vdFoDCOcQCsXrPGOKsaga3OTq5bt/bTn3rvhRecODljt225e+uOHdW5GRotzc3VAQ6tEODboBFU5+asFxBgSqWy+HURxzXsAIEfijXzs3ONhvXckgjHfNRI7qkdDRctq75pZY1qHjWnejMIS+NyO1DSdNq2KeCE9TpD9KMcMX7pkmpSclL4kvpQwJLRmIsoYFpigbDUg9EsIN21f1RAM8oEBxZZnNJyDO6eqkiqAMfZ70SMnoDERR/iO7KoRoz22rmvQhlJLSaD1gmRNZ9Qyq0h6ebX01jXfIn9Q62ZyMuuVTgy3qboO3JSnKOrzM26pIsaGKORlvYSo80mqybbLU8UVTrhTAXKlutv/N7jrV0lohGILXgw2pueqTPUpMv2EmPnYGr00kVW4kJm41YxEi4lZEodpSXjkElRjS5/MY+JpBXDeBGyqg7uzw5oJIBIXDivT0A4fktLBMS0Mk53BoR44UTNMhZHB0OJQoujkaFERGSikqnxs5NqpM2zOJlMMQPpEFcV/9LJ7JQGsNmtpkUBJ3m9NvIUL4joisGUTEHnmK85RscGalWvu/aGh194/siqgsikDecL+bLv+yrW2jpRHWgQUWVw0HFIVcgJa7XJcsERCau1KYbP7ABIag8TkIsKLSjqMHmQ67nwAxC5xdJYoeTpZCAaAqjWqzbc63jHz+3Z+8IXvur+9z12956J5z3vHb+/6ppdu/74jne94zWvfi4bj7moFIpIYANjGmS8cmXAb4iICRsKOBIQKTzHzee9cqlYm5+GAUfVKhVRLc2FBd7Td5pZ9ZEdIXLiZiqyJwqYo3o8qQKGQBfmAVMzNL610M0SuDEXnhf7MEFTaxmmHtv8UjJj4nLJkXekLf6ws8xJogstluyUMedRy7fpWA0tTsamtBxitytAtsYVpc/pKjYh86riV5ct5dVKN0aUnmG07XM9AFkC2mmaUC9TZ6vMbW6uzjIjPVD0YzPcl5eYnmG1LXWkZaq2mpyoJROp9bZC1Do9elZR7Ar1Mr7EbL2T7mg0N+jsTO4kBprFUzShM0Jr1kHmtSIDCC2ORi9AFrwXoixL3lIAIeo9uVsAQT+AdJoeKSBZUhnKxMQm5XgTM5Ki/UKslNIUN48HqTMxja5WUgoBB5pDVHhHLRA0F1DmM+kmQ0QQUHSsEANKWJUXMFrHZvWIaIpMpVzZuWfmt5ddbV7JJx9/7CMf/Zzvf/crwBhgARdwAX/7jm3Vmv/wix6ghJ07rgGC8+73yFI+v2XHzpuu35IzeRuSClQ5YRqJD82BL7D1oKHVUInZcYvz83fMz88YR8G5ZB2wSgAEa9YMG+bb7trzve9+DDBAw3FVVNmQyMTk1CQz3+ueZ59y+kk3/PEH1bm1QA4oDA4OAlKrhQoNRer1m7fcNV8oDIe25roFFQZL01pJrWSzaFv1mXJ1EflWJpmo1QSNXibolu10wf66D20xE3Rrv55+of3KITiIIZHdjLatjH3U/1BL/rKLqqeDC8g+I7Zss/CgoEfZapWttuS0+CYfPEEP8XuJHZsLAElzW5YTjcMHkJ7TI2vdylK/AMRNGyDSegBJCb9o0+BM/AplT0AJY05sfCayZF2inAqr+mrCVBm03oATSVPPdpvzvMv1IGHC4npNHS5fecXV27ZPHXvU+vd+8K1nnn2ODU3OsJc3Y2Plj3/yM1/8/Mef9/wnHXv0+vd/8C2X/+aPXr70vOc+iUi3b6tuvu6GU884N/SD0PeZXMB1TA7wwtDWG34QREHdmJ+lgYI885lPPP6YY+bnZj73+f/eu3e83vA1FIAcF4DdO77bim7aMPo3f/u66enwmGNHL7roApVww6axjUed/vs/XLNncua0M45957te97Of3N9v5I/aNPib3/zpssuuBCBiGkHwzGc+ulIy+bz72c//z+zUvJJDZJJTCi08BC5Y9SRtEb+pHzg+1acJYVlne7sZyFmoNXCgMoFTI5Qu7+AtDsm2nP1Ohq82EhjV3mfzXt7f3p+g1sLSC+JE9o0lYNnfSofSAt12n4VQLz/Z1xHV0t2RM6wGsfd+/8oDLGlWdyyHcEjeS8r9mK715aopuSyAHPLpEbOnA0qSvqIkVFYid6JI5NIQJC5Ziq+7JKmdnxRqohswUWDUim3kc8NWXZU6UU+3eHZhL54UEdkSBUpBIMX84M4d2/7u7970oQ+95ZTj1r/jLS/Ldr3st1d96Yvv+7f3fORt//qqF7/gWS9+Qfz7O+6c/3+vexdQLpdWb9p0TDHvDg2uAlxmDyiuW7c+7+XWrF4P5FTMxz/2xTe+7jlPfvx9n/z4+waC7/3wNwUvn/dya9esI1Oy4ueLg1/+z08+7RmPveeZR33kw6+LHrFjT2iMc/49T/yn//e+l7/skvd94BNveMOrHn3x/R998f2jDsced+WvfvU7gD/32f/4wPte/qAHnPOgB5wD4Lobtv74Bz/JeaokKgRIphx75BXuwGKSeHoYaZ63xjMf4Ph/adlE5W7MK06XOQP0ds/u22xsOiqxwKuxDLO8JaSre52yFhKYTB/pdpBNbeaUqUKeTnDtyBffdIkh/dKKTgcrOgBQLxG9VjQ6zoYeUB8+3KWHcIelNkBof1XOkmZ1x5fYc1YfPEBa/A+HGpCDvMy6TA+Kkm058dSpKjOJSBTEQIgCcsUYJjaGoWQBCxCpJAqYoAYKJUscME3v2TUjuqlcGQ1qluBEl+SFBX40k+iIvmwesROTSXI5I0AxP/Ld7/z47rvvPPXU408+5QTPLc3N1ycnJnbt3vXzX1w+PHKP9777E1desfmkEzau37QWkB3b9v72N7ddffXlIyMn3nXn3S964SuHBgcv+82NeW9wcmLOdQde+Yp3rt84etXvbyLDIvadb33PHbfdeurJp8zMTN12x5aZ6b3//d/fuuO2O8U39NQAAIAASURBVG657W6vUJiZmSrkK9u3bn/eX778IRedNza2dmZ64tbbb7vj9q3rNqw//z5n33bbdr/hfvC9n/jDldefedbpgwOl+bnazh17N2/eBpK8N/qRj3zitttvvM99zvFcvuOOrTfduNlxc6pgjfiv0zsFNz0JlKVRiX6IbfkqsVMro4BTTw1HBY+TEHRZSEtOA8MXdKFD08XmVVv/NKIF0vGlZjPPMpGS3BKu0nXkfqZ7Er3QDCqhXp0jo093VnNkL6iaxn42/ySIsq6N0IKkekVSCKY/qZOvmuVwXwhIGoTVNkcWAaivTVjiDAZKR158xKYVrZ86Xs39sI9Ar/63yqaw2tdX1bYgrJ6hUksymi5J5n5ndRbqZu33Pl5i11ndPsnbg7Bov2Xen5fY34iaxrv1AQgvAY1WqGmZAZGk5oEqgyL+f6iIErFGBXctVOG6Ti5fnJ4Y92vzoFmYcVCQWDejyC6GOiACLLRWHCu97KVPf8cbPuWVji7kNzAVG8H0/OyVr3vPU7bcxF/6xJXDo8eJ1IhAYEuiosRo22u6vpWEqBbqADAsouHU1FbAJxoiYpFo5QVAcc2adY1afWpmOzAHzoNC2CowOjqykcifmNkjwSTgFMsbioUR37dh2KjO7wDgFYeYiYnDIGjUp2HKUAuZzxWLft2HNABTqAwwm0Ku7Jrinj07Q9sACGgALqBACCgoZ4zrulyvTQM54hrIqnWJi0ODq5ic+epkvT4OzpFa1dDxhsqlQcCQGGURWFJq2fmTOaxIc7TiSxZpXF9BxBaKvHv3Vc/6qyesX3fMh977GdesNSiFGhCg4lFa1KIV4SQIq31WoaO6XtBNWyc2p7oe3djEKd21m0y8rRaqriMvxveqKqQJW3nnJMK0v0A45t4mIWXtGqZMSYk1igKbM3YwTvYsTiNk2lZ6GiXSG8Pm7tN02WiLu6ZFHrSmIXVGG33WYsvkt0U3WY58T+hlgk4qlpFmAlB67GhJVv/SZF5CDQ5tNRt17ZmGsjePqT0uZ23ZIIsqVFli2bt+ZzVaZ3UPi2v6EomblNQ90Wiy+/eNxoEDhBYFRGJAZHFAJEoXiO0zKSBYZkCWlDWQOhnjCC5VABwFSBPEWiUWx63X6tXp8QlQ8fSzzznxtHW54rQiABFrEgauBsoa3cFoct6/8YKHr1+77h/f9PrPU2hBzWzUJPor4heAimhcvy/S/9wMwur8DeOsTopUrLIIEXmrx06u+7Uw8D3PDa1tNGSgPMDs1KsNa3mosgnsOzkL9iFkzKiEthH4Xs7zhjblnLzvm8D3XafgeV65XATJ7NxUGAZ5r1AoVIqliuMYVUs8Etow5/q5XI4YjboPGGPyQUMHB9aAyBiqVucdJ1co5oOGPzs7YRzXcV3P9SqlNVYaVmaI64ZL83MhgRuNhpcvDA0eW2vUBcKcIxhVIjUKhsSFjTIWS0kqJbdwOadlfCPq6PY9LZlFFFW3UCVwdOKhVqQdFe2QGtRcDJ1WOWhBuYb0Wh7nvCll+jcTo6gpu7bG9bUk2HQYeeH5teW+mNzASaOzYbp7NZ1h7Z3j3L0471Tb1Gdb0pFCQdySDBLdTZoVqiQOWIieEi0VjU9LHRZ5B6hbcmrRWs+sOUACiESRkr39W5kCUR33azQd3JRuZhKVBmlxJbahF5e7jsjIF+P6apM5+146CaZxXa+YjgSL7ZkJ1FHo6CLaIX5fmgnF7i4JScxLsFg9DYWSclTyvC9ba+dZ3eG9ZKBO2Re6vpfMS2waGReROx5ZW9dLRzQSwQ4BIFkHB2XJhjKAdOis+wVIj8WVAiJ9o0EKjrI744SuqGgFMbOIDa3vGJTKlYmpW8Pq3fe/eOOTnvTcTRtO3rltfu/4bNBYHX1tjrVDFJwsIAWFavJ7Z26fmdvzwIsexe5/2EAMEtKv2N6sFiqqDI78uVBQVNYevVK4khx3JBlJ0X7mhCHqtUYulysUXFXrOo5hsRIoxIoPEgGYrKjCEqkThHWFglzjQK02JBRRgYptsOTAlmjezfmOQ6BQhEhdISZyxFoJQ2K1NoAlY3Jq3UbNQlQodIwjNu+agohfr82rcKEwTCxQCkIigsN5dowNGw1fHSfv+wHU5rz8zPyM4+aIPVFVsQRDpApLKiQizVrOKpQl/VZquiDj81+nEKLIO8AgldhdwJpWxtU2BdwMUtd2zreFCjgNZ++8z2nCINGqT6AtRQXTL9ASWJ/O/s4jL5RnAQUEJWuQ2r4QLeycDatK0ve0bR2mdZUYkDifvqVcvUIQFUtnSesOp+VIYq3Qloe8EOpMSndWyHTb7ahPKKEj0B76ryvTWPZBaahGMsWaI1M39LL5H62qvuceq83DjnbLGabkydQXZaC2QB0neWr3XT7Rbz2ZAtsg6ofnMEJscd7R3rO603tpn9U930sHM1KvJIPmeToZanE0DhkgaN5LW9eatrPQKNpTGNN/L5IH1QpIj8W1D9MjOh5qoo2jH5iMDdUYY4PQmGD37ltXb8q9/d/+1fXqX/nK/1z9hy8Gtcb8jJWGBzbx+UhTKjILFlAI8sc2uQ+8/+ijH/mcmSm3mGNVbVPAcWu+RZKYomBRqofMxyJQlIxxvZzT8KvT0xOhnU/8JOS4+UK+FN0aBVZtRCdkCYGCQcTkiJXo3EFMUIjYyMHMTGriw4mqBH6Y1HY3zI6qhRKBASNxnSdrJbACqENGRETVMCvAqqqwBAot2YDE5ggOSESrxpVavea6eUDDINQ0WU5DIeL4VRE1dVlqaYnPn7HGVUXi2CVaEDkTRz2zgpshIdrBIJSaoNsS4BSwHTyM2RCIDoV+Msl2GYKzltQ5aEzakiSwE9pqp3QduXOJEmoSKUQp6BzdO6OyyQRkvkn6sPjekBaYIkRotThfKZPQF9stE8IHNOu8xKs2kTmb7Cex4YZafY1tUEurwz+LHnVHg1J6rZ5Wsq4B7dmSPQl6UVwfJUJ0Ri8LdXavW4xpAX3KnKGB77fYEmXzgBdNCW01MPaUJMo4pUzacA8x4rqZS4k26pr22vpeWmb1Yu+lGUsRc55oz0K81KLZeqPRkky7/ID0zANOIyUJimSjTAHJ+kHSzpoCksYfEC/i9V8yILQENGJ6BQLAFiRQD1IU6zca817Bq4c7H//s417+yhd+4J3f+9E3r5oPDVHFyw15uaI6TODEqJC67IVUhQAO5ndX//bZX5ieGChX1qh11VEhQmQMoHQigwgqUaoTVBSAMqsImLu/ldiIkU2LFQkCCWbnd9/z3Ht8/osfLJZp+7ap005Z/cY3fPjDH/788NCQqCok2SHjUnzJbYUhJMoMh8iJvN9KOVGO9BurQ3A1qmAv0e+EYAgk4pBGsTUCFWIF24j8i1igEvONRps6cXT3J7gET0TYmXccDa0TBFBWw7EJjUgEElVWEI4WV1TRIqJP0eZKJKSONAJJ00LaejxLcmCiTPGIlwlMWAC1g31sSyZXz5wdtfXAuzwjNy/PShpVs6DOJhaNg+ozzOmJg0a7UWVoZ+E0c3JemGOEzCNocf20vDgv3Oj7RA8Repph+1poCknsFNTssI9fcN9l/r8w8sJZ3d97wVLey5EDSGp7jvRQBpAOt9C28umJVZkOJSCpbBE3pSPCjpNzvcZM7ZYXvfTRFz/m5Kc95RU7b+ChsfuOeAVVG9gqBDYII4eMpHY1EiUhVSUG2NaGA1/KpVLQCFy3k+s/cR1SlkSIqCXEtxsaKc1KMsOIoRoAu88865gzTh2brTWOXjdgHPd+DzjvC5//ouOShBxYici8IoZiTYKKVIiITaQd1UaVhqEGBFWJChKJhgQoDDusAlFDyoByVKmY1HBCMkwhoAobaV9iJoYKVENRYnaMo1Bx2B2fnLjyys+ddfYJT33mG7/xlf8tDQ6AVBEdVDgmR0m5y5ohPSn9uS7UW0odaSupJbeF2n5uaU73KWgOzHSkpdAtLXHcNP+ylTu+HR4FqIXBEb0SN9PMxqWtz8xJuvcldckjH6CdciF66IReS2ddFL2VtvJelhMOyn6vTIQJOhYlO+wAScJfxGhM8G2hOr331kv+6oQnPPWsp/zF66d3Dw6tPibnmurcTLRf21AIpmmvi1SmEigkE91nHZKc67IqO6xENjJlQTMh4kqAaR7KmnNIFos/j2yJEXEIk7KQGEP1eg1UPv6ETYC+491v33z9nz7/+c/e7/yzR0cHJ8arrinlvYrj5Hbu3AGwSCMeip2Cly8NDAbWn5mcgPWBBqgIDUvlMpj9MJAw8P1xoAC4rpsrFiuGjIo2wkYYBFYa+Xw+n/e8XG5udm5+fjvg5QvlnJufmRkHcsNDQ/PVmu9PAQzk8nmnWKxMz+5UzIfqOI4zN78HmAoaruO6JueoVQZFsVQCEvn/7H11gCVHtf45p7r7yris7yYbdyFCAiFKkEACBA2SAMFdgru7PAgkuIaH8yDBNQEiQNw9m/Xdmd0du9JS5/z+qKqWKyO7m2e/d9+8ZTLTU7dvdVUd+873ISF3pKJst1u7bsa8LoTDkHF6LGR46Yxhlln/AufDSNHeDS1zbtRc7520yXPN8/O4f/NE3CnjfHc1ujSwnn0WJEM149yfatYb3I1/Nfvs7Y6XdOeN3umPsxN/uNDJml11Z9c5Sf5XPpf/pAnBPIBxtz/53TUhpnLIAgRCAOgHMjl+2+K9vPNfcu6Lz3/H5KZKqbKvTiCWJqAGIKs4iAwZcbSYKNFlORBRgyWk5IJ6HLa0TWZCGZLjjJmzTI85AnSLxwKJk/qyFcOHH3EQAE6MTfzhd3++6+57jz3i0OXLV6xZc9XwUKAT2rp13fDw4KqVq5YuXzQ1NbljamLb2MT0VNxoTkZRc999ly5esqhcKU9MTGzduGliqu77asfU9j33Wr18+YEjIwPTU9P3r1m/ecP2SqUv0VIu+0v3GtmxY9uOHZMJa8VlP/D2XLRHT2/f3XetrVZKq/damSTN6ekdwyMDhx92mud799x774Nr7p2pzZQrQ6OLhkplJSLLlvet2md1ye9fv25r2fNjid1cpJJ16AArMEc7hsyyjSTjbXXSAGi6hnMvz6E7sIA5Sg+bDr0O7rddEsimiJ1TR0lrxkV/1Y5ImUuPDoWJnbuIC531ObGUvDxch5xbvtu42LfQPQVdpNJwfM6UijRmhWQLDxRXGM4kqwRQrOOYo8lun2qEFhQl5uRXUsBFx92c9acs2AvLFtcCZw87Zfbmm4JubfSY+8bmgYLOJgF2Hx+IQOsnxVkoTnftWfyvfy67PiFcVEptzSQX77/l4oWnoOd1/wvgn8luDy14miyWhChEf8NHP/eef//mH9bfWS71LCcg1jrmWIQIRZARGIWBDLTY3RICiEJGRGRiojqDJ1ICS93sEFcpCAtSLQ1Gl09GAAQGobl41iFVP0SwTctJXN9z9b4nnfyITdvqGzfXajN60/rtcrgccfgBV199FVI0Mbltn/32/P4PvnPsUSvTwW6+e83RR5weSM/HP/WeN7zyafn3OfyoJ9xyw+Xnnf+6Cz//0f6ebBu+5a2fvvDzXw6bUy86/22fv/D1/7z2zqc//byJydrkZPPRjz7917+6EAAqPYfESePaG68a6lfX33TP3nuvGu4rmxE++smvvPddbz750af8+IdfL/vQZP2tr3zG/OqwI59973139/T0xWGMBh8OyEYvCsjwBaTtbimqTVLMboqs6oCCxtRfSTs6sWMKOhOPtFgOLJBqSHu8jbnrO6w0x02dW6QoRX8Vi15rPgLuCqEp0jnkPnOObxmlG6V+Jm+M+b/qmoLO0+2jcyilPQK2vV55GEaekjCnD+pckS5T3TkCnhVQlC/NLPCEy7tGC569Xcns5ea1W3dHy43NZ0DJ833C7knkY8simT0C3oVn8b/+ueyWCcmLHHT4XMX7z1+8KxMyy/3LgtZbdnu2MZFFs+ggqMzMbD3hjIOAxv56xfWVYC9PlXWSGJQUUQ54jgBAaGNYq/ImBoRnO71Mn24CoLKeXwu8cn3A5o8AGTlttRAbMc3uA2WiEYCCpEUQgJcuWTpYDa76+9W337IWeOKB+9cC4JFHHzMwcGkUAkDyox9/67DDVm7cWrv1lptizQPV0rW33Js0N77qzR99wyuftnX75F13rZ+anPZ8Gu6vbtmw/ujjH/vNr380jOVPf7lm/aate++18qgjDvvQB9/QaERfvPAdflnHcRxFMwSxjhMBrNVr2yamS+VyGIbVnmqzOdOsVFetHL315luna43FS5YffvBer3vN+b/93Z+2bt7458v/cfKjjvDKwbU337Zl60R/tadWm4nqdd8PCMl0tEDaoW1DyAyEZX6aSpDY/+yssJOCsBiBQTw0fRqd2NA9wTzeVFl8sG1UpcKRk094d48FDEAguzXM9e+n75Kdcrl3EZolyujYEShFpKLqyEuHOeLxrFHaMrwUaO1aDTBljZbECCIpN46gMhiQVJm8aICJrUwncUZGBtBxqllQiCnL86QfmGA+BnjnWH/Tw3TBs5e/eC7Wz24nEXe/55Ybm+dBKe04/d1hgB0NECAXm8h367P4X/9cdsuEmDcl6PS5ivefN8C7MiGz3/9C3RFAYNuFBJoTUlgqqYnxrWc+4fl//vPlmzdsq/qrRCcC7IDVyCwEBBmAOuPyEGsM0ZKvYGCJgkQrVKqTAbbMQ0JCwmIJDWynO3QmIcyOJhJgQmIWJoX1sElUPuTQwwBx88aNa9ds9Lylt996dy3UT3jCSR/+0MDaBzcfctihhx2yFDn56Icv/sLn3w8gAENAXv/wAYcecWCS6F9c+s9XvPh1WjcBesgrczLxtW+/K06Sq6+6//TTHg+QAPR97WtffeELn/jYxxz7xQthanqT7/uIkDCVqz3RRA2AK4GvfF+Yo0ZYq9UWj/R97nPf+egH3wwABx5yyvd/8JUjDt5jv732+frXLnzaU15w7b8uPeTg/V7/2ndeecVvq31H1GemB4dHkiQxBXPjG6EC66mIMpKa1kUxqrKAOfABkrNa3GqANSCDU7JHYQFi7MCFRWjkgK0osBiXyDwUA6DOhJXSC9LrnaXPfVm+EMn9XUE1O+XdSAHKrsXbMS3DLG0zqUubvmNeKLugzp1fRlC4uOX6Tn+Y6wN2HcwGGOc0poxbZATgrQp8y8gAOX3Q7KttqlPKifavWQnV859rp792YvYKU4fd/7D7PcNCbmw+A+b/cF5/NZ9zv+2TzpaP2B3P4n/3c9nFr3zzfIfPVbz/9ot3bkIWcGPznV5ERGEJvKC3p2dmZtwrlfv6B267cTIJlecrluy4tx2xaCiFswPDyq0L2SYZk28UEiERMYoOHfuAbR+SDd3MlyCyuSuULl9ZgsUoNiEiJHG4dOmyU085rR42rrrmn83wniQJf/ObH99x2y0rlw8vX74CIDr88MOZvcmZ+AsXfmFw8KCBgcMWL97Po2DliiUH7L+v56nf/+4PIjPLlz1scHBlT09FeeW99l7pK/XLSy/zvaF9DzhFqcoPvv8TRBweGaz0DMdxHQBQPANJM3fiUMYISMpTcay3jW3z/cUrVh135213Xvm3vwNib+8A0UpmMi1YixYtC4LV5bJf6elJkqRcLtu0srDlHBGjLG6FMNxXp1c60+IoGSSlBHJPANkR0kAnFHQBxgC5CFha9apaIV84m8fXsaOvJZFUSCvn32WuHoFiFNI5H9XpbQGKKeiOjmrr39gICNtvtfA/hQg4S6h3FWDIYmvoNHLhs83qVu/ia8Gz1y2AWEikNf8bW+iAuz8FnVt0u+Vz/f/5XHbLbLQcPzjrbHR9/906IQucDWvEklgSj+vN8b32WRqF0KzXQXn12gxhQEQsDAJExCyEAth5AQDYokj29LN0M7RQUQKiafzNSD8z/tbuVfH8ukcQJgQhBJ3ES5cNH/fwgzds3pTEzcOPOLZaHR4fu3fHju3MfPRR+19z9VV9ff0xY70GRF6iBQSESWvll6uVUkkARKZFdCOeYtBKkV+qVnt8QVy3foNmLwobWidJEiNif//gkqWLo6ghAICesEIdgzCyNtU7BCSkwA9EVLWnJ44TREIiJA8RiRRz6KkeIkTEOI6iKDJZfms/welbILLp9E21H7P5x7Znio6k03kDheS/SU4ICKGTr2qfYK/rYhHKGZBuFbB2qb65ud4KtVzp3JLUDfPcPRjsohgou47JyakhtSazZM7bnntkSaP6HFPZXISKMOcsP1QT8pBOdZfBH7qRszMG51x7u2NCHtLZ+7/Xf/+XiAARJIa4KZletXqfmZlwckct8MqeRyZ8tYc45GmKuh4hbWTt9hcoBTUkR5vn+DAwRxUmszOGu3/Fdg0Ls3Bt0eLe3ioP9Q+87wPviRqRH3gzM80lywcF8fFnPP7rX/+2TurlAEqBydJKEAS+T9VqD4HnKQ8A4iQhomqFFPk7dkzEYVxSoAAQQXletdxjJKEAAIGTBLygAiLMseeRXyqX4rhS7WEbvIMAxEkMhL4fAJBOtDA7MjkGiEmRIgUApVLJ8Gl4REqpOIoBgCUlWrX6jyLdBe8cebGIRZbnUG8iwiAswoIswIAE2LVfYRYDjAW+ic7Fnxz4AaEAkO7mVWXoUrIkPbml1LKu2jHP0Bl2mPNX28q6u4HFIqsHtzgCXaHaWOSMm21kJsuwlcd1E7TrKy38nhE6FcB2kzuy20duGxwespEFCktlfmtPumlKLmBCHtLZ+7/Xf/8XoqGbQOV5HkDol5I40uGMUlT2fC+JDPbD9oYg7vSSQNcHLE52UDiX08shYWfrAy4cTWBhX3ESe75/9MOPEMZEJ1u27Bjqr0TNOI5kYkdzsLd60knH9A/0r9+wNg65XCHmZqMmXJppNqtROFWfHh0f37Hf3ksrJU/r9fWZIYGgWa/pZHsciYjstec+cTQxNTEhnJRLATNPT9e2jU3pOELEvoEqUjQ1NRFFet26B+NE9wiaUiqwIHAURgCGtNJ+LtYCEGgtM81QAJqNJkgcRyEzlPygEUaoCMTCmU1nNSKwpZuc1QBbRDkyIwsCgxgWTvNlGYwZgQGIO5kDT7rZ5jzhLM6FZcwzQWFO3UGgCydL5pJ1Jlx17yu58LilsNp5wWBRWGW3HWrSckvC2PmewXoX0uVWW3/g3LcUcukEy3ZHLXNBD3GXRn4Ipvqhf4jQTlacz0EU157MvvZ2br/s9ufyf6//3i+xxFMCyEAMkCASke94OdKoxfJdyfx7vW3AllYkXbsGkkGwiK1wIgKKEWSQTE+gI9u+654Rq8TBAoCJ5r6BgRNPegQTfve7P/vyRf/W07Moib1mWD/ooP0+/el3HbD/6sWLl1x91W/ApwDVRz/5/k998rPNqLls6dI46lm39v67777r2KP2Pf/8Fzy4Zu1NN98zNNS3bOnKO+667i9//dd555x+zjlPuvQXf7jzruuWLNvrxa94ESFOTTcb9Y1Rk7dsm9pnrz0e8cjjf/yj3wwMLnrs48/0A1+zNmyXkY4TES0JADMiADIDswAqAGrWJyJm1nzEYUf/8Xf/6ukf2r5tHKOQLY7KdqswpkxYNg2RnQJpg3WWx0KnPIspJa5YAkphFCNUa/MHqZZA7uW1OVmp+l5O9wcFQNmft2Q8Wi+eh5RCJk4HOeLkTi3HOcwzzia/6W4jS624FcXUds8LP7Uz+TM7MlpMXGuMn5Jcdpiq4iHvdkzKMp2CoAVFzfH3873neT7E3TLyQzXVD+1DzKo42PIQC9JPs2XpdnG/7K7n8n+v/ykvRiQBLaIBmIhACIQMG6LJmoorJpqC8QLGtkcT5iqRVg8NnfobIgiy7REmRERXRs0fTZA/q9NGHEIEkCiM9lg1fMLDD9u2o3bDdbffd++DPb3NRgMI8f777n3f+14tkpx51lM+9pErfv+H3z/5jMe97g0vPOnEw0KtlwwN3XTrmuc889nXXH3dC859yimnHvfVr35p89YNlUqweHj0CWe+7L3v/uALn3fGwx626kc/+PQD69aPLBo44fgjd0zWvviFHwAM/P1vt9x1x90nPeqYd73ngmc963lLlww8/OEHuvosKRWMDI32BDQyupT8XgtCVoiQeJ4CEJHp2nSoFL3q1eecfvqxsS698Y0fvvvuu01GWtLGoqxZO68CkOu/dcYJhRABUFn+B/sH4jptzU8UAAEoh4tq7wMWyRlIzt4jn2vNcWTOdXFLrTZrpsnZnYI4HRfVXTLsV1GgrFMNOK85Wmi2zS4tUHgu5LzOj1z8jCYG4rQhGzrg1TqARR2TDBotFGTT+8tpnoettyEpR83O3PM8H+KuTUiHkR+Cqd49I3eeECeJKemEd3yIXdbebtwvu/hc5vrI87p+oYq2Mu/BaX5k5m1r4L9y5IVOyMKm2nTQimgRAhQkheiZYxrJ8kylvb7Z/8zv4YslmdbEriSJ2v7SCAQZBUREMiVdQdCYubqSdV45uRqr9QkgIMwiRIAI5eqoYN/VV9/yz3/e5PlL+nqXlAL2fX/LlvAvf75r+bIjV646yPNWvfpV77vvjTPnPu9pjzzuGACoN+H6m8aCyuJ/v+QHXtDz6le9+tCDVx168KowgbUPNAOvcu/dV59y2gvf/a63HX/8AYcduQ8AXP63ey/83Bd/edml1d79N2/e9sEPfOEjH/3QsUevPnj/1TfdPPZv//ajRzzyEUpRkmDYjG+4Ye3qPVbcddc61lCfCQFobCyZrPnrNmwH9IJg+etf895vfuNLxx6zYsWykUiD75eSsOEHJbFdRBaFxeKIoVOailRXwFHQCSKIYu0LAmIibBMJGtAILbKIALL4KD6IAmSCuN2jwp6BE1oXUyHvl65g5YT1Zrm4ZcGZf1UXfK/lkULJq+5mBWKUVhBYar4xlS9Mdxdidhs2UWhuT+XktubBeNlx3xa4HqwJRVFOk8RCG4XEKFu38DZI0QCT4VBPDTDaLjsSYUQCBlBic0+48Hue50PchQnJT3X284dgqq3d3cWR8xPS+hABCJ28beeH2Hnt7a79suvP5f8M8P84AwyIkiRRT7+/fdutj3/yCY985Mmf+8xX6lN+ubI4ahiOi/lIYbe/gyHMYIXkeeUomqrN/PPtnzl73e3qkq/eNDC4OtZTZCQRFKLRfuPsqGUActrSmQHGHPWBAAgSCQID0ejwSDNsbt26padaFS2CSIhxEpVK1f6+/lptqh416o1GyfNWLBvt7R+OY67XalOTW+sxg06iSK9cubwcEBLFEdfrenJyIghoamrT4sX79fX3Kkq01pNT0fjY1p7eXuUHYbMeNprLVqzo768SJOPbJicmpkZHFxHRpi2bQXhkeKRcDrZuXU9Bf7Xk1+qNSuAPDQ+PbdterzX9oNSsTSxZsmpo2EfVE0d6zQMPlKolPyiHzdDlGwhR2ZMY8jWn9FlnBhiljLoioJFC5rjaS+Nb/3XOi5+ybPmeX/rs18BfhDLAuoQSiCjERGHEoMlIKjvTkKag039T7JC23IuY23soRR6r3MV5Xjj7h+3GuGCBATuI0+VbCARAt+GrWkUDM0oOc885623ptcEBDRYELcZCyI450UALMrfwPFvwd8lK42OKzSgVp8FxqKDTkEOD0EMBIAYEFG2l1sQJmdMC77n9IeYnJGXV2YUJ+U+b6oxnKB15pyek80N0KSPp8BCxwHNk/yyvKbmL+2W3PZfua2Bhk4/zGxnmd/FODI7/A0feiakWq3EpaDKniITWGGoTqJoriZCZiWgB7pcj8LD8GxY3iAYHhCiudknidG0RWSyFSf44Bkz5+iBVTGITCzMAJ8n69etRqSAoAyrGxHBaCtB0Y6bWqCFRqRz0Ki+JozXrN7PeDKzRV+VSSZiZoVSqjI2NN+s1gESpqggODQ0j0PDQXs2wvu3+rZpjAFR+pX9kxCMV68QvlSq9vVu2bp2cVPWZafJK5VJpx/btURT19vfVG40dU1NBGICqImIjCgVhqtmsb9qEQMwCIgMDi6cmp7ZsGQNA8HpLpTIqNVOf8b0S289oXR9Md26BOznfRGqqxDEAIJLppAbSiAkgCJAxtI4eVSOKeQuNBZFQr4uvJkVmZureByRWlg45F4C2WZ7OheE5NvOc8mrZoNk9pxSRVLT9Ihn343z9VfcBMT8hYvhnsj7m3B2gJRBL+5xndVjNxZbNw3xIMeKY4uhpWu5lAe5wxwnJ53ZlJw/6eUz1zpqQ1qkuJkBmV7Fc+MhYhDhnn60zr3JXGuGF7heA4ozB7nku//f6n/FybMxmu5twyurzshWe3bmnbwXLRUCEtYghmidhBaABtYgQZQqqYJQMbdLbbAHqAopOi6AsAMKilKr2lZpRxGwz2cYk+aXAEz/WiTDXarWenmpvf38Sx0p5tVqtVC6DcG16sre3P46TwCuX/LL5Q51IrVbzlBfHsefTwNAgiyRatEgYNhPP95UKE62UNzQyksRRn6dMqqDkU29PTz0Ky+VyUC41mmGpp0ehJDGUyhURABZOEs8vNRp1w9bR07e0VPajWMdxDIjMbNWRyaKlisdOjjU5mw9jTDQAACrH1MGAWjAWYUSPkUSYEKzfLywEVks+Z8W8zisEEERl33eghE7/iyzhBypov+3ZrBsV81odiTHaqFwFJK82mDJBdr1ndGev9Wzm6LdsH1lybUjgYidHn8pSDN2NTkmeAHv2/YJAQrmuGJeHxM7UJwvb5rM9xF0YfJap3sWRoXWq24barSPniL5bGVbbWKBnoxFe6H6xojjoPICWLbALD/3/Xv8DXpKaP2AGZEDOqJeA0ECdwJq0BQzrGKFFWHOilA8e6JiUXwIwwrcoklNgQ8iqHjL7wkPLhe+iYRGJ4hgQlULNLk0pwFqzLW6rUolYuFGvA4DWWinSSQLC5VJVa0bEWCe2E1m0IJLnC4pXCgAh0m46AFF5DJxoIKI4iVmYdYLu0I+FY81EBAjNZhMA4iROBEggjhJEYs0mm1ypVIRRBAkhCmMtAoRJkvi+D67xF9NpyWQLOvnQ5qDGxGhSIXhs8qEEaKGUQRKxgPZRGwFnw5xo1ZSzE342Azy/9kRxZ1VLWDq7lYOiHgPMihiWjDQaDM2yM2BZGGYfZKpxgJkJlE4xW06/oiCz2uFiNMIYOSJZFOxU5XXRIDJw7lZbek1bLy4wPmA2qbtMH7KAh/jfZOSWNtndOXinkfMnj+xMxXXn94tJF0m+ceD/Qt7/j16ICgCBDXSH7dEsGYWSY5BYiAEGAjMUiGYd+D4kEEfk+x7ATJKEqEA4awI25eA8AKeDnGMGYMmdp0DWXJlMoAEkiTAaaCqQIxExvJg5OLe4nxv23awxhlSh8sL5T4/G4ovyDLbMiTe5M16ECe2vkIgdIYar7Jjkr5DpFXK8GY7IkjHjtIQsoZvhDLh4bOfMEmqBRARBPCLSSROYh4Z6RSDR5PslYQ9ABLQdFAmYrQvuNrvnRs+Ivt0Dwqxju+2B5FQnxebmWjz+2RS/sDACzH3OigNkZasFLYg1tZa5wnFm8yQlgIN84tG9pRREIiQ7S4vyZvmqdB6RzhZE67QjMa9O0+pPFlHQJv3kLm7tDtupFPT8HyIsPNWZG/yhG3kBa29XR5ZcE1D2EG3/X46Iv3MKetf2Sz6f04qH3sUUdPHG5nX9PKe0BYQ1z8Hn+Vl24rYfupF3YkIWOjLlua6s+TIxcK59IjVU87TpNr0JaDKpBkUU1mlkZASxahvgxDBH2TVsK51Gq0cAhcRJk6dVGLPsjVEF4ZS1gRDY1avFpK9FCEjIaCxBGlKaz8IsRC7fji1a1k62T3K8mwJsDaI5tTET9BMUe/v2OBYWRFCkOLVE7qAWNq6NxVjZSi+htmlOSsWmTFrC0nBkaXl0aXnOiqKWQYoJNYAHIkQUxSEksHKP5Vf/fU2caOWj7wdxwsICyEaMyrQ5gQuG0xR0Hk2Qx1J1zbhlF0NeZLBoQ+ZYwZ1y690udQYxQ2CZT+NoKwDSfzDlEcxYPFsvdg8IC4N3udhlDorSU1k5EDPN0Az/7JyQNpri9GJEF4Y7RG5uPaIDBs3DO+n8XOZ4iLBwZEo6X/hQjbyAtberE4K5qYb0ueQ672dNQe/afin8J7ShfnYlBd0++ILmf/6XPXSD/48beWemWpz4uwF8GKp5p3yQBosLioARhBEJgUR8EaNr23P3XeufeOahqw/uWXfftjIuBWSGmBAASZjSGBFSsmKUTDw29RhT0Ql7Q5gySdu4Q8iGwdaykgAbuQhb/EtJLWwUih1Y76XQqmDldI21NCek1WxlQDKHsoFxO0CUFSxGhALI1UIwEQCMuq9AqjdoDa1piDAleSfwYH7FOSPVcoIYyDSjsEDkqaARxSqARUvKDz54L0RK+0qlJU9zYy6Li9lMthpgVYRczwLIxKKqYPr9QnH/83qRZAU7o/RHFvkFAEQsQiggjIyCSsjpiViRQ8qlB8lMQgqy50JFWVpHBrFwfRYUNGV0zMkRQq5UbObCpcoh5RppMcD2YgUgyChuZDuuXWl5B2ah21u19UjMghxe0OD0UI7csnhmX3s7NyHZyGm+QwrUq5kBzmTvOijZ7cb9kv/4O/EZZ/nIO/GH87Q38NAMTv8DR96JqTYWLI2ABVC7yll+Fyz0Zeg0BEAJkwBqZr93n8v/cPsTnnL8sacOPHDbPzlYiSoJw1op6AEMpCDWbsM/zFXnKP9BhcElyC12DAizhCKZmqzREwJEEQKyYTMi50wagrLSfyQpZDWFQ6YGEbXVzkXTMmUxa+h6B2ySEAmEGFgBsBjWac80kZAyYAskSA0+i63BihCl3o24nLwAoiBZR6I16Zo5CgAIipBFaRFELapZ7l+0Y83Y2S85vhauGdsy5gWLAq/MwshEKE5JD0SYQJmAOG+A27GmHdGn+cUnnb6HzlnlbhT0adlVsibnVsVA9+cFhulU5s/6SmKLtIiZ7pdkzdPFi8EW93MSRLNeLM4ZdBkPEJRC9dcmJSBtErOfCztNX+5iyeG8xOpjQ+Z77gIxQwvZ8fwTZXO2HhdGxjQZU7xiQU2sWODgaFlU8lCMLMWRpdM67nAX7RSZ890vs++d3UI6ujMWpsNJb9ElnTncd0qWArMGga6WZa7BZx0ZZsNM/NeN3Pld0G7sdvrTjA4S53OrbTeGACxIyNZusMZyMDy9fcMfLv37OS855co/3rPh7vv6h1eVvBE04vPIefzL7GtXcgQAAjkMl2uCQGARsmK0LrkuYCMYQG3di9zbSMspl9aTDT0vsKChCdMZfNJ8bz1pc2IaFBtZskyrFJuj7sne0WQI0onDItECgzUb2qVBk4x1UgoPXQSYRcQmG0rV0qYNNyxeHj3nnGd+6Stf3vTAZF/vXokICxMICKWCO5KG3l1S0NAGy5wzCpFOC5cLZa1cQrf1+Ek1n/L9yLnENjptA/M7LOR+c0RJiAZxbyJXm/OQ7C3yF4MtvmdoZwfi6nIx2AjY9oKaSLroGOVlGNKuuny41Dp39mIEYDYRcI56pJDr3fkDFhyCgKDzjcz2lzi/kds/4k6kUIt5eu5MoLb7Ru7Kuzfr37f8ADtMCM3jHtvlIP7L4FddCgi4M4sCWrEUOU8F50Knzb3i2keGHE9P98H/60bu8i4WSpyW/1OiJVzAIJ1vzOq9ixGsQcAkgmrv/r/+yTX7HHzAu977lve+9RNb164JyvtVehEwFkkQ5+v5uWo0ZqyNrJ2ajiNrBF002eYzaneS6vxeEcplH/PvA/YkZMOy0GFkbUdGEUAyHVyghRyZSMc9J4ZURFAcFLoAK8vcDEvTnXIb5562sCBhKriMLICkY3/H5geHl4Qf/9qrr7762r/9Zrxc3VOYhV0dHsAkXZ1zi5B74F73hTXnadLur0mnspZJ12NO1zK73OLO5oyA8y5IHviSMoXZABJdJ4+DUkEGcDXsCpALW7HT5He4OFVTTvER7o4zDwAK0lUZsWAnBrDcxTbcsJrZACl6b5eDovynnE9klrs9nF1UMRsZRQTziHL3iRegydiyCaXNt5PdPrLFXaEsfJCOt5FvvJtrqlsjl1l0Eh9i6yttZDk4SwQ8rxVXwFIUD5RdAvZ3GXk3DD7fkVvoSRfoNrWiTMSilsB1XICIzLWyi4N0+MiIwEbgAVAUCBJQUO7zeg6/8NM/fMe7X/mBT737B9/68eW/+VvUDEB5QD4AzvdZS77FznSful8xFYtludCTuGAD22esA2gx5eJqHxmy059y1Vkbd83+UCTHhOMwlu23nb9nBBBue3dLRAwoIDEkTSj5p55xyNnPe/69d2y46LO/RL3YL/XqGFzhOs28gwnBWz72LAZ4TsBFeztv2sRNbUsHs7y9+6kIkOlQE6GFGGBjHZXLSBsQOiAyETI4uJtrqubsYkQHKicgbglzs4sN2stdjIJCjC5Et4Rv+YtzfoC9beOHsVh2t/zZm7vYJrjJ8n6n/5d9Rilw0u1E8pUK62Y+2ztngLuea4LGhXTtBZ0N8PxbrnP0UnmvrvW2d9fIjk5FZju7OwzS8TZS80mzJLOLJKvFPZUSvss8BSi70b7OLyPa7XMZu6t2hwFu6UmczyPbqXveDYPPd+R2fgPcuXcBsj0ZzgCzINvyK84rW971I4tL4qVCNohhGKGqDPbu95F3/ttzzz/rmec/4phTlqy/v/Hgmq216aRU6omiaE6ol+0akqxGZ5ex3aCUM8/pvYJtt8sO2fk8oaIBnnNk6y/yPJ5Iy8hY6HvpMDIUQVitQzEn1V7aZ88Vy/elA49Y9Ldf3/Tti67xyssrlQGOAA3OzQLBMq4IbKsyeLJLFPC5xgnM1z8LKwlt9TQNI13TsqsCZOLT0Jq5bUEZZqoduSZOdLAplIw2Le2LSp0QwYIbJ8W+JcldDK6fzl2MWbXYHrmYYqJzuMDsX85451qd1OK/mF6cdmk7iTzztBizOsD8ceMtcRh2ovbK/QRz9AA5tIR7YphKMKRM8RlVRXsBzdy7+4xpoJnaPJTsAaMttEEBcNz6QTqPDNA6eNvIgDkoswt80zPFrc5sD+bsqZOOcSuzFRTnbiM/BYUgqbUCbZn92toKM60VmF/xlQu/SXeJSOf41aJtC3dvp73lSrQeIS78UMAcwYMUq+6Ziii09dvt2sj5wWGnMBPYdWS3lCyJQh7RMS9T38rGkuabnRkzsoEgFv5s8SCOi7IjIVb+VjvPZw67a8qoBCxCcbM8OHro9776H3+7eu/TT3/EoYccfvihZSLM8m+z2uCiATbGFHN5+lkwbqkB5ln7JvJeD2VH8+wjZ4AdmWPwDJ7jsg5ZfnfhI6ds0CCxzGzatOZ9b/zx+tun+0aOYqYojD2q2LeU9ibD1tPbw12qNGIuqW/SKXmOvZzbYru3HAuIo0yz/gFjlruXTg0aAB3Xvy3rYbY0O8LW3ElsEwziSMbTZd2ajeh2cS6BAVB8TNjqn7bunjkuRhI008AgBnqNKM46C6Twv7l9vW5PKucQARREh9MeAteTaMHYVsFM0hq59V3SVoVO3J6CgCxgvGRBLHKYuGkUzOpH2AIX77pDiyOnrGTZ4K0jg2S0QlD0Rd22SDmYEXLYPZs/ynB/GVLGQU8y9LtgKpxRCN/dQWIenElnYcdEGXZ/qu34jPxZ5vQekCA7SaVgjDFFdeaS5+ISZEU7ncI1dm6FcQtKoxhKEsyr1jnPkQsfZ1cwE9h2COR8NTFJQ0wNdAqqmNsMY8vSzXUy2plGt2JNT63Y1qMUD9NhZ805n+gWCQKAdjxNPuhKdfD4dXcl37j1r1S+ZuWeA719GEV1PyjJXPwxeQMMLEA5Fjnb9UFtxaN0B3bJI3U2wLkOTvtoZxnZ7ab5Dp5LHQi2IZxSPifuOnK6/0BIqbAW33fXg6AD8lb3DJaVj3E98lRgcD1EHXsLW+/SE+FZ5wO75+6N98W2wI4MIgAlEB8gAdA2yBJyGx3N5S5t64DeCIU8eTtuV9qQXi0ugKObIs4AUFK0fGnthJ39z6Y87/zOcrF0oNfIG0Sbdk5bkHNvMevFYjSbhcxsuW44TC1jaja1eyK8wDOGOkbArvVVA2gARaJAgClBNDUBZdquwLCsp7ZJEA2mIE83lj8lXE6V2BpMsQTwaVSBKJReAEDI88khtowsIGL67jFFFRZGFgBEplzYXhBcy51XafJGi5Bt+Achh47JPQJMEzYAQsymUCTIkrFAO6dS2FpoKQMIUAwCIKqViS31iQoRrXQCReZJ8lyKLOs9V04/ijN6HCDzcxFCU88QyzgALb3nlhfI2Z55FlZz+yWLU6HALOb6ErIzY3eNDDngBcw/F50ru2M+RyGF6qW7bbP0zXyhixl1VzPcctvFvZ9Hehh5ABARNoQV4iDS5tjsHgEX5tPcmOQK1fmLGABEGBHCKGTGarUXsa/Z3LH2vgngRkGCevbYtCUQzNPOCHSINgqrumM7yCx+y0JHnufgOXCxQCfOZMl88w4jZ5ggWwYG8rwl1YFFiJUwqnFTg3hp1U8yNhLrvogIYqt21uwGmDp8NtdIVSAKQQZJAAUkADb6w44DM6eo4BDdDALEZMyvEAOluOG5DDC2BvGYAqY6Ha/gHDVoI8qUXDibDTnLxdLmjxRLlnnPlPOk0LNfbBn82ZUl0XWdE4CgGFSFgHCBMHNhbFDQxQCTODkgEUBRglpQ2zlhQtPp7E4HETZ8NKnz1GnbIoKAGFY8W8s2/dkgZCXNJHM0QBQIuT+ZY/9kIwsaPUfTRU1CaGUe8yMjGNI6N3IGLEixuVmNxt5AqrUhwAZlaUo5Ft/gFE4s7Z+QYAKoBYQJbQrftOibTC4ygnJpIYMaaEs+g1jJTuzIIF1svM6AsC7Mp5z4ps2wucHRsLYSCFkDDJyrW9sgqvCGYqsKgvNDAkrOHrjhWjv0nEFigN04cn7w9PoFjZx3H9tGNoBXg2ti01iaEeRJdxqs4m23I9FSA2xT0KkUg5MfTXWA2+O6PPzKzac4TsAcpYZ9sS3XigAmIoBImhsAUir3VKjXrCzKeCJnnTN3jYEBZ7vGvh+72aDculXFcHOBBHbWs9Qu5MjnllTO1di5wSV3zy2gE9VlZLfrchUaFtFaA9Q9RSyoFKWmF3PCzo7rrAOrpZdKD0Pn3rI2eGC6+Q2RCrIAI7KwMjGTgAbUAITCRUBVi1+ctc66NVdIlnf8BvKbTXJ/kvumo+fTMhoUu0Fl5y7O97S5y9LFYmJ9mP1iAUYUEjL2KYPdk2E8FSSUxIJ0OIcgyNu+uRsEoUsK2qwOBeIZVSZTFxQ22nwEQCAswIAJoAAaFfEAINMN77phTWNiigkQNMl1136nU9k1F9nPl9LPjYyuwmROIG0su3tTtKzc7f4aFNu1IXdgmVREip+37ljaFiXuUCOwNHwgwkARIAB4wB6CmTQyyQOERIAszw5XABNAszsgS00XjvJ2No8iFiJt3wS0CR9JbbMIC4InQoDaqNIBWusLQGInih2ME7oR5uwEKqSwNdrCX3kIRoYWqOZOvaTryIY02fjmyoE+2FIuFeh8MWekUgk/AGjFT2IOPWBT0O6ZYkqJBU4Tz31bMO05elzJAXsyXzjT3MTcQWFqSySmsZaBNQuTsamMOTzEHAbYecHme3FOng2+ua0dgHN4Tpo31D9Px59WYbkIKeWcG0o5nup5Dp5PEeUJhVLHpePIkvvIGZzZaBEyu8YKMb/Lnb8F1EVrmOHN0VvWbUfkFPQcUAVBSESj0mmqkgxqiZDyKzVlHC9+01IIK/QBQ1Ymw5wVyRpqMftG5iJnmg/Cu9vFszRm5XpcbFE736yCnSRyTHXZhe8oqBBEmG2/nW3btjSsgJTJmBTfeOEP0W0lRBQFTCYRzI4jRpgsGgIRyawnDSgIGoARaNZini2V2K5EFGMK0Mncox1BcCeJo9n0ZlsvAgXBkd5l95Zi8lsTFtQ5gSCp+DjaDkNDoUepomrONLIjHzArz+ZyEEiAgJVYahgSUAQEmAh41gxTkkvUcGvnxpwTkp1Nacu5g9obLVN2+1+0iHJtpyaOFxRlI1yTaMeO2nOtvfhzraPCTpzr2v9GI0PXwcWFQSwiiEoYBLUYYRZGcYoC7gC0QWQbihm7fSc5FRDHiWUy3d03Qo6oEXNRYdvyQJf5SBk2EMVF2BmVu2XMcIZh7l2XpRpylJrOk8sbyzRIa0k1zNtGZiNLqw5EfmTXvllsJ51z8LRBWdxtQ/aNpGDy9pFzVwKwFkREAkk1JW2NLA9hTLm2sM0I2G+8dEfDPCsomObv2DgLIgjgM2uApNrTMzMxkSTs+SXrRDIAgwZBxFwQgQDkkuNsKMLTB8dYTNhK4bZTWspZGh468OnnltKcmID8beBCavycN9pSyKagdEBpuXQ+l8qVRMc6if2gUilXkSSMmr19PfWZGUSyyZw0CdkJ3rWwh5gtKQLWQLFZNoQeSKB14nmkqKQ1AkoUNaNYCwqafgkIUSKTqqVOM2NKU4woyAawhSnM0j5yIsvTTiTzS4EVRwajI4PcaWQbnbt3QWx7RplfXkgYpN1JTAC2zT7tnbOW2Ixh2eVMCZ9N0UBQEZbLVVIKAJA0gKeThJmJNEJsFq4IoaX1yQdS0ink7WZnyJ5rprxtfU8T6QoSi+hEsyLfVyVzWiSxTpIYhNE2vLGhLxAHxErLVFrS/PvC6qnkKmvUpYKdh/rzAkdOrU4XQE4uK7fA6nK6tVtREoAiTB74JT9Jwt7eXhY/jGJgFiNiL4Dp48sMcoo/oVnRMy6ac9G3WBZISfUFZrttKXaxFpZHejhmnR5otROw4NEIziOmyMGzirwzYlpvRTK6g8yqtTSPOgMsCzHAkhswz9PVuS0VFjI4thrg7P6dAe48cs4wu8cGjAjZAYaYJ57hrEqQ1YCp2L4rnotS3BlQyGR2ci4yNi6w5UP2CAio1mxuajabgOCXe5QXAChAVEIIBgpjtOaRXY3TNn20GeA8VI1bNmGONnI+W70b7cF8DLDgAhF87iYZ02iqAPfIb/XiTQrAdMVTSZw0pzfEApDoat+ieqMBWLK5aMuVztCebumot5g9xFn5/0QAtVBi1oQwE3nlsldvjofRNCD7pVLQ40OsLZ960ZnoYoANSzoLiJAICjIDmTSsFQslJofMciTY88q92JEBgIkFAZkt9t61IaUjoyC5NTYPA5x61IzGxElaXU6pQinl30MhMal6IUZCERFGRQlsixp1CUO/Z8APerQul0p9STIDqBESQIUCLh2Xlr1xAUX9DILvStkWNEYuGc9IEPhJvTHeSCJgBlSKyKt4BOS6AaVl2tMzgsxO3DkDDMVlX9wXnGtV2EkD3Lbe2h/oThrgwsh2lRFBozEdTk8DMnijvrcEoGxwfVDEKgswIgmwLY6KzEbimwKhDQIrVaI1HXvCkiu2FZi5UjUfh2Og/FYGh7YhV64i916MQIxm9eYZBaSdDTLrKHXRdGtVPfNpF5T3f+gu/s+8k/aKvxSgtpL3QnKpcrHYCszByuyu9yDPgZzyUVjj2okMC9NuMMdIgSgiCW4eWjFx2mMPOv0xpw30LQLtE5LJDaKFppqASRjsf6dSkaYSCu484E4mME2xEnRQJ4T2CBhzdq44hzQ/0hSe38Wtf9LWZYTQPQI27QeISRx7ShFSM5zasPXOH//olzdfdU+iF/cEe4oogQRBgEwMmgK3Cq3W3R9iwZntdKYjArGQiVijcAqSHaw3HnLc0LPPO3XlqtXloBfYZ/YQPFPdTJ9Vx5lxgSQDiqUYMEzu4PI1zjSCA8kvyACLMcBo8ETssL7OAGcjWzNZlCvKfJRWA2yRaYwCJCKuQSqNEgsG2CZiUCxHixZISGnNDeXp2269498v+e36BzaLWo5YRvDZ3gUVzO285Ajb8D4FQiJxrdvaNvpxINSIonWKth918rLnPfspw0MrEckLfGVxISLikSgUJY4fNgUXaSe3uBMGeP55qZ02wLPTZeyKAW4hTRNBAM1Un5za/IvLfva3P6+f3tzwS/uUAh+A2NAfcoKIbBvdbAuRg/ilXV4duUwd2tZYcUIUtiKCaQ1YoOXvsYPjbcMrySqauQ7d/DoSzCK8tJtBBIhspbrY6l7krjESvMgGUi1t4FiRbhFwJvgkQgROddCCMQHasR8pQjUfm0Ka4e/IFibOQWmbZygy+0OuyygXXqMU3AzJhexZBIy58Ffy4L9OvUVc2MK5OZXWnQ6eXYi5UpR7jtg5As5+KQiISjHsqIcbn/DEI1/x2mc98MDd3/jqd++8fVxrQmThtIclQwY6DKaDH6cI404p6AJjM7gUNHb41J1ok9o2pKv0QadBpG2Xyk6loLPW4bYUNLW8Vyq6qYE1lMrQ2wunPvbI973vvRvWhu9520UT49t9HEKbTCWngtnG2tD1IQJKt7KYrWuKIIgCQSRCNRPX79vzgNE3vPn9q1aXfvizr33p4h+Mj0GcuI9jKkdOULvrYZfrpy+c421AElqoblY6shkqR9xlG1nz78IdvYMC12aLmcnRZbkZz1vwFDEvACYCthGpIGGsxVO4aKk85vRHfOLjH3rg3u0f++Bnxtdt6Bk8hJLAkLEJp44wduJtBejM5NhCSJPy6rnaHIIwiBBiWG+sO/iogTe97XWkGv/+vR9cd+09jQZqLRniSrJaWNYfbD127Jo9mt2Y5SLgDp0jxQh4wSMj5CtlszzQnWhDEuw8sgj0DcGhh6087wXPe9XLV3/wfV+95i+3B6X9Am8wCmPTI29sC4qHSCAaMEFhGzi2UbTmn6a1TrYPyUKhnXnLSq2FCBhzomtZLjlXw80IPMgAhXJOisETkU16mS1EOi8BkzO5KAWucmVKiSb0t7T7CBmgQti2fHDKlEQuBEcQbWIsYSAg66oxIWlnB01xRwOypIQH1rlEYA/I7RYDbEy1dEyvs7kfsC2VTuYRHVKdXadyegBlqhI5DyAnt5e1G+U5N8BqMlneUKtPbI4BAMgVMXgeCa1sO2Nv3yNaM7RsMc7E0g7RSFv8RUApApip1W9+wQUnP/Wsp7z1NV+7/bo7EZYGPVXlk9nOJLOnniz404TUjFIkX5zbNd5JGpE2DeBu7nM+zUWzEhPO5n07F4RmJ2wRAcBGMxSeeMHLz3jxS1/0qpe866ar7+ofPbjZ0L7ns13q2Eoe0p5mzx5iG84m1wfMAkQgwiBYKgeT9duOeHjlIx9576U//sdFn/0q+EOoPGAplXuU8lNC9nnPcaEo0No1aSdO7RSRoIVw2gaRVJF059kOoXX6MtNORehT4bOJqbAgA2EUNnUSASBgDM1tb3rfa5549n7Pe/p7NtznVyv7B2UdxxGKL2lycCfuLastUdqOSMTMKgq1Uhw215zwuP0/84VXf/h9X7z0e1eWevclsoCc4tS3ZnZYmJAQjWY7wf/fLxEGQBZpzkyqkhx13OqPfub5X/nK1370tbsH+o7UcYklIZVYyBuXgUtAIWADiAu0Qq3PTpmFmzCXKmpy/F9PPOdRxxxzwoWf+PLMTE8QLI5jBiDEIjAB0MupsEJn7FUuMWglg/IHPoMo+0NBEB9AgKIsIhHt0EOIqMTtKwQC8UQQKCKVuP4IMG0ItuRpgyQNoB1EXIlVlxERDZKIdcGUgZSi9Y6Nj6BADFAxAUoQAbiKKIIJChGUBDViLIKaFYHzvpHB4io8YCX2bGWxsBCFCMIaTfuGEAg53FJ64jsrnu6IFKrtoEMsSEocPkYRKjE1O0HWBp0KIswiJB7Y7gMNwjnff44UqpdxuWEWE1j3rRMyBt3sE2HC28OZO5/5osc95vSHn/O0NzS2DA8MP9L3esNmQ8cROPWPtGjh+iQRCh6WQ545Li3p1ElT6AR2SgkO/rmTx2yhKSoXdhcoWSAXbwi0J0Hyud8WDGOhm0SAEVhASaHnuaUDSkQGe6taJr510U9vu/W2T3zuvS8874KNd6+v9K6wJ2OW78oBEfKJFszuJ4eg6Mi+ZAU6BNgPYPvEmgMOH/jIx1791Yu+89Pv/HVo0ZEEgzoRAE6YJZHUvZy/ucjPTCe2+fnn+OcYHBYi0rALlk/aCI5ARCECEpSVAoVISEriYNunPvKF9VuO/NaP3vOMM99Xm1hXpmVJLL6PphsEcr5syjU2KxFH9rmLDQXmSKfAD0K96agT9/zUZ9/2ipe8/PortvQPPwq5FEYzNA+D6pRY59eV8r/d/gIAIsbNcGBgeVCCf115y9lnver7P/p8beI/fvWDG/oGDoPYF2ExyjzIaNTS0rwlYKe0GeaXjRUXsm0gNh3tFIdyZaR0H+d5UrMOIxOM5ZuaxYWCLjw2VSDbU8spaADBB0ZBbaE8oAEJQQmAUh6hskxA4GvWAgiiDLEOoYgQsxDZWjaKAmIBBvFQPLEQQR8tny251LUCYSFN5IF4gmHaOixiGmIJERUFSAowFgEQX8Rg/QFNgx+B0TNCYucHuO0kHoAIa0QBZUhiA8dI4ZN4gpGREYCMCIBFNCKh7dMTE2Lb+wcSTpAYUJgtTbDBaKZoZ9vFbaiTLL1RgTWwSxbZbmpVKq3Ko9slbbBAbMlcpiyxaPCrCurh/cc9eo+XvPx573jtd3Zs7Rse2TMMQ+EmIAtoY3HIJAGQDe04ASOaL9OdxmbZGTpCRjSYow58V61WEfJ1hAW/XAnWRHR2TebfAnOnYg7cZGpdlEsiGNacFvRTB8fB3bO5hjp8rhRiX/d91dez6p5bbpriB972tgt+/sPfEg0RKYOEwkwaO60joc1MG+fZGGr3nx1S0GllGpGZ4ygkr07B+Jvfdv5Vf7/tuxf/cnTpkUkYRFHIzFoSYZd9JvcZ5veFIkYDzCBMbPDuFGAKPXb23wV8YQrysgnotK9pd3xh7l/78DgrJ2S/svwgdr5N9IICkvT29V3791t6eofOOffRv7z0V4FaDNIPBu7gOphS/sfsOTpYs1tg6X+aFlTDWSO5HJYYtGMchb1Dtc995SUXfuZLl19238jSY2tTDQBGZfgT0vbT2b7sI96N0/g/9QsEtOdDHDdYJwODS6Jaz29/c/lnvvia3/zy181GRWG/5pAsnl0jMmBs2+0Qu3Q3ZWljEfF8atY37n/oHstX7PGPK6+LosBTPczSSnduMe65Xk3MDY755eFWSw5eAxmzkwDG5GnyNEiCiHGkEDxSqHXMnChSrBPN2qMgipvNZp0FWXOjUWdhgKQZNrVGQI7iuk60wnKSJHHcJFI64ThpECUiFEfaTEoUhYhI5MUxswZE1EmUcKQ80InWSaR8BoyTOEEsEaoo0oQBod9oRHGcAGMURVHcBEriKIrjRKGnJYriGiAiqCiuAWhEFUWJMCMoTjBOmMhjCWNd96gEXI6TBBEIy1EIAEyEURwDE0GQJKI1K+VphjgSRWVmiKMYCQlVFAJIoBRHUUNrBpAwno6TEKSkOdG6iYjMoBQisYip0rE7i+3pas9lhLatZjA0qPzSqhZazLaOupTlzxpqRPR8P2w2+4enz335Udf+464//+Lm4ZHDZ6ZqWrOnfE5MUUyRpD2IltgBgcT8p/1SkNkC11KJkj+NMGVPhew/ATPSP9yJr7wRSjdH8S0Qi/Ng3rF4OkLLYQnQ4baLH4Hy9wyF90JEAK2loTU3mxj09D245p4DDtp/0ZIVN1z9t0rvYtHoNBcLkMYMVOLg606bot34ut7DzD0gz/NrtQdPfdxejzrp4e9666f7+vchPcJCqBQRmU7zdL8vZI6do4DoDpHcBdbbp8yDWMjL+RZY8Eh24wvy9wWYBiwFp8f2ASMig6VR0VqEE+E4joWT0r/+ftXL33zGdTdct/HeZqWyXOs4F62jYyMpaoXO4TnmMkFGpBpJpBnGa57yrBOXrxj5+Du/ObzkmLhZImU6tky34vz8Uku2+P/5CwCAEOM41poRfJTADwZmpseacu9zX3DWpT/4a2/fMgBmESICASSNmT7PLLTeCzHAUDTAHWx6x+yIpIsqlU8AAdZIisJwrFEb8/whHfPwYmbcHsfNnj6q9seN+pbeQapUvWZ9MqjWKn3TzWadNQ+O6lBviGX78GhJIImiLf2jM35JN+s6KHPvUL1R31bpKfX1leNkinFsYESLUBQ1R5eAqPE4qfUPlEtl3Yw29Y1E/f1+faZZ7QsHFzXDaApRDQ33JjwTJ+OLlvQmMUTRdHVgivypWqNWKnO5p9aobw6qcW9fX7PeQH97/0gYx0kSNQYXxUxjUdgYHOpTHkd6zK9O9PeXGvWw1NPsH5lohNuVhwNDlMi2JNo+srQMImHYHF2aiJqIoqS3r9zTF9UaG0uVZHCwd6Y245enBxeFWidRhKOLA1FjYbi1f8hTChvNsb6RmXKFmzUKytQzUG+GNYBKfXo85hnfD0RQoRLRLraTHLBNigFZxr1liwqz5gFdCsSGwCSCRCpqNBePLF6yaO+ffP+3pYF967UIoaxUJU4YgRSUlAQIPmJJQQnFfgH6giUQH5AAlftXGZNMKAqFEImACAgBCQhBQfYvml+RYQnc2S/MYgKjPEgIyn2ZRIxBA5g3St8RFKACyH2h+1cRkOp02+aL7L+ogNCWJExJxLyXuR9S4ikFKJ4i0D3Tm/ov+9nfHnvm/uBPCTQRjaR0scnBgfgopSiXFuQOQquzkWY1RClPWFWH1LEnLfrLX37P9YEyrW40mJl0wlprZrZZTqIFHWOEiISEqAAUIpIy/4VIuMvm0gyuEBVkb/Sf/yL7L9jbMD8RIioR9nr+KtWz6JLvfeclL3kSQKITi90yNFi2V1pj2ooyP+tra2wAhEiAJCIM06WBycc/8bgvfPYnnhqIGl6ShCIxiHYgkjkssIuWHKvO/9cvu5QCv1Iu9RL6UZQ06vVmo/mrS69dsXzval9JS90PHHaqQHSxyyCEheXxOm5zF8SLiEAcR0SqFAzoRFV76JhHHoGCzbD27OefuM9B0Kzd+5gzjjvzKcc0Z9Ydf+Kezz738Y3avUcdN/qqNz52aDTqG5I3vf25i1Y2WG95w5ufcfTDV5G3+exnHXz2OUfF0X3Hn3DAC196etxYe+gRS89/yTm9fUFlcNvLX3/qosUYh+te+YYz9ztUNcP7nn7OyWc95fgoWnPCqYuf/5InRM0HHvbwPV786pNFbenvK7/8lectW6maM/e+7FVn7bPf0rCx8VnnHfeEpx4gsuURJx5w3otP0+GWo45d+opXPbtUiZet4le8/vErV5ei8MHXXPCMfQ4KotqDT3/WY05+9BHN5IGjT+g7/xWnh83b9tt/+NUXPBaCjaNL6+e/7PF77e83m/e/8o2P2e+gZWFjw3NfeOKJj17ajNY84sQDX/SKJ4a1Nfsd3PuK1z49jDctXy0vfe1py1cFYWP8NRc864AjIKyvOfeFjz3ptIdp3vzoM1a/4KWnx9Gm1XsvfemrnhxGm6rV0sOOPmrxot4wnCyVfeXZDjNElhSNZaDIWbE5NbkAIF5agxXsxgcoGUzGVulBJwkQLd9zn8ZMeWqDDCwiZAqTyBIDgABobVSbDbAvo2i25MOt3WWGkjCtjeeJG4v/Ss7kwJzqZtgOj4aC3QJoRysK5JjOoEAz207sAe3Dt912hztydfGsmpvR4Bg+LPRUb7ln9djWbdPNB5cd0DP+QKPk95iwVlhc0ORYs8y02n7+Fh85/31LsRFBIA7jlXuOrli59Iff/RHRXjryCSM0oXaaBlmY2FtxnjDPmt+ecIa5zIPM7h+2zf5Ci8pzof5a8+QtxUJJmyMtVSyIIbj2yGcJrvrrfU896wXk/QVJg9aAwMKIROjYYlxcNP+lbPAvjvsQQeKBYT8I4MZ/3sd6EQAjGgZTtLo480DPIWJB92a+EyW7w+b89xrZEJ2aLjqkhIhFICj3gNTXPjh27KOOuuJ315crywiqKD4DECiQxIA1U0LJnRZWnt9e6HhEg2lRYRYiQoQkiZXy4rg505ghJfsevPezz3nue66/MPB777h5844xVaku2bB2B9GM8oc3r9eBTAEMjG/GW64bixoVnajbb93QmO6hhO+8bfvGtTXlL7vvzlBBIygtmZrQd902VqqMTGxr3nHbvXHke+Wl9945PTOZ+MHAbTdv2b4l8GnpvXduThL0g6Xr7ksw3uT5fWObGjdcvdHjRUkY3HbLvY0aohq847bNM9OhX158/1316ammr4Y2b9jW1x94paHJ7aXbb30wijFsVG+/YWuz5pXKS++6dWJia19QWnLPHesnpmoejM5MVO+8dYMfDNWm8fZbJiSphM3y7bdsrE9VverQzdet3T4+Qyq4+/ZtY2MQ+MNr7t8Q+IBqaGI73n7LgyBBfUrd/K9NM5NIKrj1pvvGtwB5g/fcsW3TxkmgkTV3N5PaFECpUecH7p0Criqip5z91Cuv/P3vf/OdHdumvWBRT3mR5lgktsB8Q9yH2NoN4oqWFgVtDYlp4G4F0Br8nRYgZBKTJk10GDfOOe/kAw8tv//Nn+4fPipuemA9bTGpZqsY4+7Bjkz2G0uw2HbAFdZXCnhmZ5fdB2HXcd4RDMxgUYNpfwKyRWy1FF9ldvey84TMtSdyt83UjkHOfFcpvpf9mVGNEt+jkgbdN7zmFW898rKfXXfdFdWeylLNMQoSdOidzT1EJiZBZmLKPrPYtL8YonnbOkfkz0zOHHCkfusHT3nZ8/8Na0f0lJdGSQ0JGDR2YSuc7TTooN5hjiLVhozmHK96O2cQg+GuLfTVqZQJsvjQzQ9nvTh7pRcX2y0KF5vvdSfW38I4IpbQ3mWSTfuSBhRglcDG6sjYpz7znle98KscDnm+MoKKJmgHMGI1hAsgBDMWwpyzjEgIwGrLAUdOvuY1F5z/tE/39u/LEgFoQUbwCEosRLuED2+fivZF0G2q/2tH5o6MjTlnlDoOzqbzVaMgE0SCMQD65eZM467XXfCSHWPNb150ycjSY+pTRFgFIwRCMWIizEjU2d/PoaA1c6nqTYz968xzHnXMsSd8/hNfnpnpKeVR0FBAQavOvZBtsyfpQcIAKCyoIIniUsk/+pgj77jrluna1iWLFm9cl/he3/T0VlL+wODwjm0bAFRv/8jM1CSAeEGQRHWA6XJlWZJwEo+pUgWpnDRC3+8DxXFzO4BXri6Jo7pOto8sXTG1fSKOdqAaKZWwWZ/wywO+31OfHvNLg6VgcGZ6C4DX2zs0M7MNUJcrPVFU42RHpWcFCDXqDwaVxUqVGjMN8vxKpVqbngTgcrWvWd8MgP3Di2rTsY7rlepAI5wCPYFqtL9/8eSOLeXyULlantj+IEC5f2BoanobcDgwtHJyagvoCb80TFgJm9sBegaH+ye2byB/yPdKYXMKQAYGRicnNgHocu+isNEU3QjKg1pHOp70guEgqNRnxoCCcqWnWZsG8Hr7e2emxgDqnr9cKQybY+WeoUTHoyMjcVhj2HjE0Yfffcf0ti2RFwSAoeVKycvZpkpoORfQY8zaKS2RWkrcnKdddvbc9HRpCQnDIFAzMw3T2qhZE1pKHELXHIbAmNFBMrk0KOWP77SUiQiZZCY4c9Lx6MvzqWUG3CEDEXM85G7olhA/YzPv3lkknSek1dBiW3MR5rq3W7Yg5aQj0jvJjLCQY/xHFm7Uo2qvFkwCHyUJiUhrYbFcTWBbAZzgiOG8MBOebz6RlhaUnLU3Hfmglecx+9EMVBQLaIAEbOUQO5vdPB8edjzackz0uTXWCVxXxJs7Bj1LCZFW4O317I6e/HNEx+Yxx8WQXSBFA97xYi6O1t7eZ2JLx0qdVvjAYjSJECSIYo3iV8qViem6HwyAaFNIFmFXJSp27nee9UIbV2qtCYEZonAavTjRDUAsl3tqjZCQUDwQJYg5MfU5Xjk/QHJzYpwhmI0E3V7Qbaqxk9cm/8Ujdx3c9okZ5waQ0EKCA+TyzHTilzwAUAQCCWAkYCUQTCZEuKNHJbspN93ludhVbJnyWJAINce9Pb0ziR4cGjrt9NPXb1g3Nrb1gfu3ViujSMno6PJEJ3HUHBhaiqCSKOnp7fd9Fcex73t+MMqaleLevj3CsCms+oaHPc+r12uVgVVKqVptpn+gn2ggajTLlb5SuS+OY8/zRxcP1+t1YD0yuofWEMc8NLQqiSMtum9gqFwOpqd29PePAC5q1Oq+7/UO7AXCIN7QcJ/mMEmS/v4RQGg2a/2DK4ggjrhSKZWHRlhrQKxUlzUbzSSJRhftwYnEcXNweA9hFtED/SNBUGqGtWqlp1JZHDa1Uqpc6U+SRBhGF+8dhrFO9ODQEkIMo0Zv/1Lf9+Mo8np8zxuK46RUCiqVxc1mnZlHF68Iw5g1jy5erjWL6OHRFUmi4zj2PK9UXimSEOGWzVtF1/fcb89TTztjbOOftmxYH5SN5pnrYLckNUYbJh+CMQB4YpJUJiNKtmu5I6e/AZk6oDwLNQVCAA8YWGsWBPAcpJhBWAgJkVmE0ISw1ly1WioCJgAWQivK10XCr4MBzgdgbI0XOXHM9BNZmHo+7nQXAxTaOwsGZq4JKRBbtndNYWcDbMbJJxccK37KDWmjU0FFFDACEvslAh0SWck8g9UQYUpRj1ZHQIQY2UjcI0pb96ehibIaZoyumY8168RcpAETAY3d64Yt9EZtBpha2V8QoTOfSaf0sW2DwZwb1SJG1vIIBETlEgLdL7Y/UcV0rnSW3ex6Mbad41K8GFBYQBnGMuONEpLv+wAN85hckMQ5zt4cCr9zm2fhEMccdZEgJGEjSpqa6yBJHCVEgqBAgtROyQL0ptqNGRW46KTtASIUxGhbV0I3M8lzjww7PTJmTnq3e+4wuOQEGowCksGMKGRinaDXS1ASigAhDCMREgwlDUZNU7it02ERVbe7ktEdn0vKM8COTxCZpVQuz8xMNetbNmyqXXThFxphUgqGlfJEhCGqN5sAgqTiODZpG0SIYgFAItBx03yMKEoQgTyJkloz1Ep5ghwlXCqrOGkIp+JjohQx60ajZirozXDGtAVHScNke0SgVgs934+iEBG8ALWOCJBZkKIoCU0BJJEaiHglSHSEmgRFhOv1CJGUUlEYKoUA0mxOmnlNEmfPBOqNCAmU54fNCBG0adcl0My6GSEqUirRkbBGRJEkiozGjMSxNiLNtfoEEolAvT5tupPqjcj05pACEEWEIpoNHy6q/oHhOOrbsnnySxd9d3zrlNZhFA16vo8IzHmiCUBHUp9LvYhnqS9c7JiWojqwI5hspKSYZUEX+uXggwJCYsTXxdYrLfdzO2m2tBznRV6W1mgt4wvLD5KnY3TdzGzeV2xglGseSZPt2JK2aSuqYBYcz1ZpzjOotN12ZwWkfAnU1bs1OYpP+w06+5av3ZELUvJ6ZeZ5obNWFt9utQZRnHitOGozQbbqR/nstMGeQAYCN+Th1BYctD6LTlPT/thyPOpd5zJHU5uChqQ9AdImQ2HiQchpCBZS+53Ik1oP3JayQEcOSOmOJmix0I7oRIyEQy7VYqis0XRk5sCuLnYxOp4d917HQ9wQBKAWICIkYzAQSdj2ICJZYg2cnw0o1oBbpoJnSxZ1VKeHbqukJf3QfWSwwtjtLshcI7vxkTvkbjORWuzkVEnGsJXxhhIZKjrHs4ioRNgq+wIDAiGCa6sEe9R2XuS78MLCWk1JYyDjN0diAVRUatSnhhdVHnX20/5xzdXr7ruzd2Av0aA5IU8hAllJFGskTP9rii0w57qtdIiACAESKevrI7AwEQKRCfeYBcAUnpFZgACB0nM2RRWQ1TEBRGLWaccU2n3hjl4GRiGXwQMRJIVIzIZ5HVy/nDsknLkhEjFVnZQkz6ILyR4Toi2tlaQU3JIq2xswrLUcSCwMYKiKAIUQzfMmtK0FnmhIGBWVCYJND25Yuhof/dgTLv/DnWOb4yAIABkRLbt8hq9wEawgIng5MthCwNYh4MsjpyQnNlQwmIYZFZlBEaY9aJAParudKgjtKeiOURdBl8wop4pyaP0NIbDs07k/b88Yd1/jc26HOe657bDHnDNjQmHJ+wEIygr5mW5paOnQN5U/t2NEAJCMJh0WkgUMljvahtuCdhFY4lQUYSNR5w6dVK/MLDvbvtYFvDOr+lsb3DpjzitwOXY8sjGnFVccvN2spl4IOPI/7PIwoc0Lwg7mvPDn2PYYca5jEXKhiXOe8s1MYPajdZHM4WZzU6aNzLBudS5bdnrXLF2cnl2SsQU6ml+nxIJzmt5i4jTXd5/qa0Jbqgel1TLOshJanwLkSCZzpDG2uT5HId3h6eAcz9dkldoVPDO8Ena9bUnbcBEQGW31zHI0m3MayPZ4AuQE/aRlo8/TruZIKOf/KhKBZoIiIgJIFIUzCsv7H7DP7bddp8pVT3kI7JoayKXMSXIEz1LorZDUubUShszGxDp8GRbZoVMSF0QL4LBWsI1SwqI7s35lK2OBLc0d1mJJqqqL7QTbeT8Wcmk/bO3dwlSUN7vPrMKVc5dQstvOLwlIfStDb6IMp4fWXCr1IAY9vc3Dj1r2r2vu2bwhciBcAQAH88i3GlpWQc9mPG2QNCsrvtFVtj5XLp1atNrMxgm0mumd8LMtZUJxmUTH0tx5rVlnxyKTuZ36VTI9G2TD/+L4GdwIabqY5003P/v6z7FztOwLaqsNo/sI6cHC0MYlIu7GoUW30v7OdgSZYIfS3LqDlhc+FIIod046F9Ehv1GADH9wmhQwMjggLGI0CISha4QrLtPX4eF26JLKzVIehd+a181jzsVmQzqeZd2WjSzg4XU2vTzvMK77wCjAIqIBUES7P9W2wV3QePGY5j8FncggQCZTuPClmauXS7bxZIFmAAqMxJCPrrBoYnKEwx3sh8wapOaJ+/NvZQEQmbIf5vNL3I4b6DoyuiMLisk2s/kzc9OWlBPH2u0Od0zp1jr39aUzT4ALTfXbuAzznfnzf94GUCM5ZjgXYSZJs1wdmZn2v3ThD8J4ulwaSpIkLRoJi9U3Kyg7dXkbLBY+WPKrBfNKfIYrAQXQnDwFVY7cIJYhBFNGg5S0ILvMnGBpd0BKl73Azd0625BzGoTZBLu5ZehuxJGrAxuRKzQawOYJow2dUQMygiR6pre/b90Dtc9+7LKZCS8IykSoNbIwQar7Jzn7aJ+Tlx3Wxmmc5UmgU9rDufcwEaWBWlsvTssRzKm7Jd0NMEKmlmlcW4aW7ZPSqxsfS8DUlk3SwmmEoDMbAjA/YMocBhikFVSV/rxjdVlSYk7n6EMhIhMRAgd2My1cpvc6jYAh7TzCFPONwJK2NmHKZ5YBjDDjvhYQMqqmiJTtrowzMsdRKbMa4E4T2NkAu1nCNveLWx+h5OmI0qXS3k81r2WzEGNMxez0Tg8mqRQM2DADBG2u0qYZCqzajixewOLsLShgbsMpLikGRV7/1ABTalLmOrdEZjFmOfEKgByPa75Lb1cMcP75pUUddGz7KVBZWv92Pga4hSQ9TXcX3r2TAbZg9cwKteU5ch85ywjhQleQrSOJWykLNsCYQ7OaoFEhgggnSdSMaghUCnqVIgEGAZP2Sq1v3r7O61bBSdCneijY4hkjdkqfFsfJmVh37NlPgvneRfcD+7YyW4vc/N2dzHXInnL6oRBF2CowQaoVCQAkwq4oaMmlBcF2FSolURxp3TO5rQRMYRSK6CiMg1JF0Pgs1OK1mPSDl2MQbUUidHoCre2ctvqW+cyWWy/LaLk2x5amm+I7ZimDLixu4PpeAYAI0dhfxBaWeXQc2uJq2tYUmtQR5/Ls2DWDOv9T29KddLjnDEBeDO/yF7scR6vCmh3ZlWVN0ocKa8gCdpkp50wJ5Em8i5F16og6QlHnjgm5FKIr/IB5N81CKQNPJ38IcpxiuWUjs6agATt1YEHH2kemxyYdTslcnnqWZTPbs+u8IHHnuKkLBhhTnSJ05JSQ0o/kzj7JtlW6YERyUzDHbWSlJEs2SQCEZI6FLMRgi5SZ+2AyfrPNrLRg2bDInI6S8q4VjEHrMpklUVxU9smro7j8Y24HSRugYpaRoZAezy8bTHcldCmiZFqh2NEa5h3KwpGZ80jms3iyMNKJ9iF0SkB2q6znPPdCxYBASMAj1En04Ds+8PptW5Mvf+HrlZ6lpIxutV0XeUswT+ubnuqQnVtSxOy0sIl33kqOBT39FFZhRphyFY2MRxMECrHHrr3yI7hRGZHMzIhktCquamZbd0yu2OGkjItsyNC8Wm2y0oP16S3Pe/FrRof3+OwnP8fMpXIZ2IymAIQImNN3tP05Xs5JxNYKf8uKc7GJpd4VsWigjFDcemGYalqJYNeiWv5N5+rJFUfnI4aHGpkBKY12HXLEJJxRlICkOSwTWoggEIrNcM2GIZqFu6PlOsndtnSQUYICpFXydOnFTegmwOxEV1kRMDVgTgFuWRSV7V1AAmTJqWiZIdKFDK7jhcSknNMATXLRe0Ym6yARKafAnIeIzFX0ko6Wby62h7ysROsSKu7mBXNuYPcF2RGQtRD7i4jCFtwiji3fPEHB/OODvLCGS44VN0ILylpaThB0ZTxw7+JKCdm6S2u63U+urIHKlaakDTdcfDQp8ApbHlDn9THXDzGDXLFD9mJ7q9j8nwh2eYidJFM6/HWqn6pNEkEKoTBgQTsBMrs+dwSce5RW9TZnwdCl+CC3EizVuEjhz/NdBvmDmix4w+CWyt7Xv/l50KOVnkVEpnciV+6V+QbBeWhey+rtABQqIGm7AzXzTwENdJcLiRaT/EtrSyK7J0EF+ZY8yR++bvaN9RUUysfj5oZFCLJ0DSNqE3F6XklzRKXSZZf+XFGfFunt7a3Xm4SGjDkz8662ZhtmvaKcEHb2vKTV8XKZShtXO4bHrKUDusoCQTc3GWddtOgU3QERUQFohVCr1ZGwUikDiLYUf6iTmJDCqOF7gVIeGZooy5uLSqyMq0MNY0GFKu1gFofAROmCj83xREm7WrYZL2PTyv0w+55aU05214ktRLIIgEH6c5aCNoTaKU8VcDH2k6wZh1EcVt2qdKWPwtIhpodIBqsUMRqeDDTXeqcOngt1Ow6LL57dx8mnKgqGO4u9wKy4nfKHZ1mQNE//a9bBHf8DIoA2uExLEivQySrMx7QYPXSzh9NjwTVtSTEF3ZYEnPWEtaFGF0uZnzE3RfZZ8Dyonmaxwa0nQK4frF2oI7/i5nxTmhWyPtefo2QtYbbR1jm/nGWJd3bhpbwfnBKJm141G3Z13DQd0Yodfm08bA2otWZPVbdvnUiiSV95rkcFiXYpgsxhF+a30eeekNSgYNHX6sh7A24C55Omyhe5sMvy48yPMUbS4Nk79FdidgSZAxgFUCOgCCkqcQIKB8e21jie6entj6ImpllW+yZekfXF/qjF427pvoBiBCxzRsCYVR8RhFu7QjvMPnY8dwvTRQyWhCsVo6dGbbKvt4fIn56Z8jzPDwIAiMMwCpvVoeFSuTQ1NYWoPKUAxGhp2TcTSvkSzCkpTiURrI3O3Z+0tKp0sjEt4DXM84u0pDeLE52rptlFAEqERAAgyaqblv9Zcq92THCxvCr2FHErBjKd7axml3Or04/nZKpEJG066/DYMAdN7RwBY+uawny/p3Q8EHNI6bSDM/3X6IFTvvxkmv86L5uue7K1TTl3UOeAPzsHgzLhAqEw2AlMa8CYPcG8nUiRnyLQhg9vDUYtKCCzv8jMaP33QgRsZXFms74dU7t5Fg5pS1Pl9mwLRU7Xst9svcO5P3TPBfMguFTqnLsYztnbF9qKHR3IDaBLY7cR+kW3TaTIgw6tEfC8V0c252g2qRKjFweAhoNWpEDJ4vIoOcIC6TK36JhLGABQSVSPzn/Zy8a3zlz600uD/lFmaEEsQ4F6ZdYlnUXAUMRMzIfDtaPdzTkNphFApICYy5yhtozsfEGR7dVVaKMIdZ8FARHYFDbJwbwzjlhMG7JMVCa2x98DUQiktfaDcn1m7KynPnnpkqXf+fYlWmMQVA1uKxMXd7FwKkXqAUJbg0f7yVhQCBKnfCfYWgOWVBHT+lvYOePUwQWW/IS322CDK2YREPAURmG0et+9v/iFfzvssL0f97hn3HrTLZVKBQBmmo0DDtj/D3+89N57HnzjG9965533APkiuaYyFGRiB8RzyYd0QRKIwuxI1ACMiE51kkUKopxWJwq48FAzZtb8Z291p7LVkQIRTFHZbrT8VjdhbKsBtiUZIjFIMwfJsEBSzBrFrN8kImxa3yyASdo4tTO1wPQBdjxF8qlH7FjUL3JBOyq1HFlVB5Ig19EHWfMJ5vgmJIcGShsckKEzzdYsOx9a4TOYP8VkFzz6Aj4OXcks2z85IF0upSxZN3eHEkjRR8EiZF6MJ46EQEgWwwWQoZlnI3aGbgTXXfi6pdM52PHokO4HcbeYuH1knH9BaD6H7wIeolj+mFT+yk61bcJByIpBuMC7MseI7RFBUCIioM2BLpgIiEsmmohGAJAEGU3moX0NS2vPvW1WTFDB9u1bJydCRGLXsWyaZE2Zf55V1ZbLiqt3loMd57cTcxFEx4xF5wbWeaYhOlyJ2PlO3Bme9UO75LS1eM58iuH7RSBgT0SZVjXBGDGZnN7qkcFSgPNvUvlQw1zroNQAiOBlbAb5Q23WVVuo37ZEwAUIXCdIjkARUdlmdbEtMMHUT7PNYoDMEpVL5dHFuHyx7u/zLXUiCEAyMNizaqWenFS9vf3C7PtKM6EgawZkJN8n0iBxHCMqz1NIxDoCET/wWZOwlyQaEZWnkYgZRND3/TiOAABACTBiLoOKbTJy88B2pZYrb2usBYY25khHGpAd51nXWwqKhqy/LC0rIpoase2STdvhJWe/WmILnHt5d0E8dYmA27dS5z9sGTkXAUux6MiG8AyAJXMtFxCMzLog57cF5mvlcT7X5Q9xytjFupc28idjepQzp2BRTpdFu83u8shwHjOGbU8Zu3Ok7Fw2sj2tSjuXh1jIp+tudSRnIpiBrBB8BgpacATsEiyYMtCBIQVnZmHGFDuQ5WY7qgt3BKOZMIUtnQvGQUX//IdfAuj3S/szO0KJltuW4jmzgL5MbC1Tdj3YZS6nZLfzhe3MjnWoF8SCTwC5XmHJrw+j5mf6VoiUThpepfTXP/wOQKp9qzxPJTpRGKCQiBESwFz6yr6FM8Cm2JnyLj50r4xQgzKdhA7xS26fOygVIxMJaEbBJK43ZqZIRICmpycAEmEA0AC60WiKEKBMzewQaAR+7/j4toSbADFADAAAvb09i5USz/d0Ek1P1kA2A3gA5PuDQwOrpqdiLXG9sQmgUa4u1xpqM3WAuFwdVaTYaKozAqUZs1mCr84p6NTYEGTOhmlR0QUyQrMxaD4TS47QmzJEvTLhrG12crr1TNnucPLyO/s8LTxdchjIvI+MnTpu579UHGFY6qSIctQ/4KhEMcO3CRYh2QtfkP8JW6DDHVBWF7QdDnqeWOz0OBUGQ3jl0Ij53+6KAc7rFrSY2HypVTsmTt5Zk9kNHKeK70LzHi29yfxo8+vvss5Nvj3UpYYX1AojkM+X2aIJGFFR054SiQiyMu0bCk3xAlKSwVkrLMXCudkmAoAJACImUbz51CcdPTHWf8PV40HfIEuI7dz65o7SJBV0UMSa1+e1+6gogINthBaz2XL5rzPA3XZlDtdSIOBN++4MvYIQYVCq1Mc3P/LkU3r7Rv70+796XhnBA8GU3bANIpPWgDFFPWA7UHd3fBLolPEr0t+0trK4RYVuVbA5aFks8AxIscnxGViBGMYv0KZaQwhESRRt37x1ZuWqPQ875JBq2WuEXG9MxIl36y13hpxIXKvPTBxz3ClLFh2PgR/Wxm+7bc3G9Q/09y5LdHLMkUcOj/T8/re/AwhOPPkxtXrz7nvu1jq0fWDoQdpm2fWs7JqChg6JXEtg42K+3B4rqjcKSAuLgTi3WYriC6bEhJb0OWudyHjBwLBlcYcWx7msWNoFKJAhg8RluB3HHGQyt7kHiwhzVZ6kkBzAjNDcBHhWbsjSTENRjCh9U+kU/s2+IOd02Be49jP6lY6/btlumNsU0iUp1+Wt0hpOrhzSzq+UNq3l0m6Sn64s459z/N1lkH9+xTZK7J7T7njiOqc7R6bnPLksKVis1eWoAwufCCBlEC/Yj5Zj3TEdYvFNOiY7HP9TasZZmB0HDs/XTkihT9ehJUwaWMcAkAwv6puemqnXWXm+SCKiwCQtLeKhuFRxHpYeEcSzPClh+fBDH71jK914zS/QSDQgMkOuQGFmBGwgISnbQuvedNJb2Gn1tuwjKDBzzb2bdqni85C9cB6WKwEEw/qe6AQiBvb23fegJUtXXvnXf4qg75WjiIGlCGsofEwP8lS0FgRBHS/dNT8CIM9zkr4jtjh4xdw1suEGsQhwZEJhTgQRkMVECelSQGu4bO+qEqIEYPLRp5/5nne/56STjsjf1jOe9Zqf/ORnAPE73/+ON7zuNSMDyvz8D3++/kPv/9xf//qn1XsddvFX/u2YI1e9/o0fYPA+95l3/PP6DWee+eTJqenA94FVxnVX4G/ptrywM4qxNey3Tka21Ww7BBfztK5DUVxxURzxIFjSQHA106y7V1CjLqYaDDDIKzBxYe4PaTYT7OjD0/OOs/PdgnkEMpnbfF+mpGi97lYrVyexka41Y5azLiWPE4LC4UsAaakiu8P5LshsC+y0Sy6pvXD5DZOw6sa9lS4PJ06QpgER578TiyCs3IIqrs6ifYKCkGKW9c5D+FKjZabR8CGnJ7hh+CHEFsZmmmuOJO1UdMs+B9+WLAbNYV+xo21wwDRHEZz3MMR1+1gXgd036OgGpdD+hBmPWL4lCHLln4WkndOWYskoX9mgWVQcJ4h6ZFF1amq62fQCr6QlISFT6m0pRc3j8YNj2ycQH5CEhbxVn/vIlwGCUmUPljgFAWUUVKbXmQRzTHK5FSJpVQMyTlNE7Nzrn9tHmAl8IXYXhey2Hf47vGY5KLT7aAzEIkTgJ3GSJFqVBr7z9a8CJF5ptK9vuF5rIAZkJhfTyIZdXocByBMrGOhGTDvKd890YDsvUi7uy/XKZtDTPMmO2U/miTMAglYoiEIAgqLtFkEGYAQQIQBlbpwUhPHk0uWrP/GJ9x/1sEN//4e/333Hmv6BEb+U7LnHKs8rA/Mzn/v8D73n9c0YPvapb3nS3Gf/fc9+8ukrVnzwjMfdppPJemMsjhb/22feAwDjE3DNNddqDYQeiAJRRf94TudOQGAelWHM2lcECh50SwSMrvsE0/Mqi4DzC8aVUMWxhlhCMwIrkIxYYARMU9bcHYRVOMohJWFydykIpuc/uzBx4yiwOk2U69Z3N4rFftwM+Jk2tjJk0h4MICiKGRFZ6whJeeTHCROh1rHnByAMOeq73Lt0XJBg11JKJIWtdPrzq5E5CidbxkbnJXRG2xb/lrOtgZJ1x87zzMj3Snbuvcx3k1s+AUOOBMhpSdz6+S7HBma3pfGSrZEhCxESiGLT+pL+OeKszSquo9L02Il2255sV6OIsGHasS8iZSgDodA0a10spUiEtdaOJoIcq5Ft5HWeoJkWxUJkmKIgdo/bsG5YxsDZvGmRhVAxmXuIHaWXAvGNL0yIQrEIjCypbNkwIaFSXokzWgPDeJADJ852X0U2AjEEtIgUSzJ22NEHhjX1wH3blTeYI0rLzKoBbeb6mE3bY44KJbfZi/5ccfUWcpfpwZ4/99obLgvkCHOGMt2cuAy7Ke1v8hBZrpSlwLQqa88T5XmNxvgBRxwVKO+++9eHUUikAEgsjzrnHNP0QBPP0U8qu/9xvgCShXyM3CexubX0HVt8vFydxvDWAzoaYWOJfRAfRJsFStlhagJBY4ANWYc0m1P777ff3vvss31H861v+ciNN/4GYAliZZ99D9y+fTNA8o53XFBvhh/+8Nc+8qG3ANSXLj9y+fLvHHrYAac/9jHfv+QSD8XzS7/83d9//6t/rl23/u9XXdWsaU9VLcZFaO7ni9iZ9n92RzBrDCN7ChZ7iQWESVJYsWmoStUm8x5baowZMvCzOU9RNFg1lEKyywSWlNL2zWKATSsyCKO21QEBYUZUwAKgwLBAASCxsBiGdmGFlJrUYvNUC3+Ci7pElO2LR7DqBQYzSpSE3Ns3AFhnoZnpuiIVBKUg8MIwiqOQPLLcuE5iyuEsMmHOLBluqstg1CvZ+oNt6LR5PEeBVIjbEju7SnZrwz3nnroLgtHtxMz9WRBTYD7q6mCAicwBy6bBHBFQEQuAMJI2/JUohreb0uqXZCnudNLA1rdEITAwC4jB6hpoWLsBTkMrESIURgZmgMQI6SB6iCRilK4z4klEEmsixLRBOzohGw0nSRwEARImcWyIBJGcApLt0BLHha5ElJFrA0lMkTcX2SMUKBo7z/BCImAB1ICxgLbxtPYBSSTxfb/RbAws9YcXwfjWLaDLyD5I4mRSAFCUqwVbpfY5DDACAbABEJguFBaYPP3MIzavw7vv/GOpoljijCI1faDWhSbTrJ5ZVutnZVXzNMHQtnpzi7QF5ZIn9y7+JmfLOtnn2bxMV6qwfqD10DuQiM27n7BTY9NclksyuhgE0Kx94rg5dtRRT1m2Yq/7vvi1OGaFns1liOT6QDHLEwB7YkFfnD9k8tZg116ztGy3nD7teGnXk5M2OGVUxeT6d9NuOS2gBQEgQUrFgnS9VosTQNRvfvMr//XPE26/47477rjn3nuuAOgrVQdXrhxRHl122X+Mjh7W2zcwMbn5ymtuPeaogxcv7tOcJJoR4ctfuuSXP/8awIqgNOD5pZSyNJe0lDk8ELsW5xE9Zd0/kvEDSwsvQZptdo0uNgRGQCB2exWybh37XE0KOpXisecXtyLW04+US5t1fKCpshGKStUvPD9AVCCEqAgREEgJgB9FodYJYIIqMeVzNB1Emc+B0EYa7mIp80Az+Xqz/ZI4Ul55Znp72Bwn36+UB5IkChsTAFSu9CilhMWogSGaBAkKtHNUuJ/YYAhNUJgSJqVxkS2Zz91xnBpgscruABl5SGEaW1LQ7WXLBRJyGd/CYmFIWsUGch1Slm+PPc9Xymc2PJmxYGybXgDi2AhzkGs5zPT1mAGEhJUgI4ZpmgWduE4x8Z/mstIEckq8aKTKPN9TSJ5JGBCSGUGL1kkizCmnNSHZCBwzUFSz2QwbM4Ai4FXKJSSy7ZE2KGLDBCcGcyxp6ULnQAOIoEUUOkPjXI5dPgBTMRj2EAgoFhQQ7fmBnpw8/axHzUyP337H3cpbzqIMBzG5zgRBRySIBdniTgcJFqCIJlphD2nJf/zwH2G9TF4/a+N+QQ6DrRHRJB4M+4TnEYoSAKSEpak1mGDaLORc+TjdmwWMRfrIJU1M5jv4WzDulhku5/ljFq+4/IyAQH7MlBDQqjmZFWP7hKTlhvJ5rdmjykwQKlVpyFW1MufWWS6HozGpdQ+AUIJ6rRmUV/7lz/8g71/1Ri3w+3TCBEIEAm4qyEVJjuLJc252+/3trgi42w/zwDDszOVoI3c7FWDOYmt9SBjTbwEYJBZkgIiIAYAEBvoX3XP3jT/9yS9f/tJnPOc5Zz7nOWeueXB8y6ZNV/7zzre++e3kl1iSZhx8/98vmppOAs+Pk3DZihVKqZGRIdaAJhYR7fuLRkb3azTrcRLn0iTzRwZit33T+ezO9AnEHdzSimVIeW8oIwfJsORYMP250bNEMaVsAJjDYlgYo1iXmlsA0thWTbSBKgIBYBRHur4NIHFVn/Srr1RdTKQAE8GYkIXLAgJoINsMTOZxo9M8tnU7NjGT9Q7ttmQhQkColIKZmdrQUP/Dj3/SurX33X7z3UFl8OTTT4zD5PrrbopiHSifga3OEAqAIiAWNq2QxQ+SJsDYmRtx6nMpCQIKIbLMherEXO0gBaBT0YvC7k+/HTQwW0a0zYFzDA9iynsFQ84MRMIMIrZtaWZqK0ANQAEogAigBgAAHkDFC5b4fhkRiMCArI3PxawBkLVYYTcIARSiT+SEYyk19pLKdbr9ayynEBILAhBREIXNxswYQGK6GHL8Gz3lniFSvmiNgIhK0BTUUISJTOiGLLqvt1qt9jWbjUatFgQBeEhkdcVAnP6MoCBoDkVMOyIqCUQI0TRuEYJmUZhxCZmax66cg2gYuoU9BF9AABIBRpJmuFVgx7HHnHD7zddsvn9zT89KrY1vZ/TnMaOLd7ptOQK7LnhPTNv+lQCJeESja+7cAVBH6k10TKREOF9tckQ8qMgPo3qjvs7hxhMAv9I3iqLYnKbIgJbNNw+Wzi/CTKrBug8MZKiDLeQ7W6wMjGLwoUBIKFosyUXeuhswrRH1ySmxIubgfyTGyTLFAU0KEQhJEIg1sujZu8mtXScCAELUAOnb5SL+9ErMkM8kWa1WzJ8HKiht3LhduEGepzUHflknJo8HFkiRUha46pJXxB1K53Mhk1cREcBdNc3S6XzBVrtlg3tVIIpCAWBED0QR+kliLCETaeVpIiYKk6QOALV6HCc4OZW8/wMfueKvf3vYEYcecMDeJ5386NV7jh53/GG33XrjN77+Na01KYg0N0Pte71a+I477lm73rv6mmt7e3sYGAAIVRyrmdpMohNCZenvF9RLk33KecLxi6TEJqckndsQyOV40rxxZzZ4W2TLAxPZnpBZRGtPb3sGGEonpGK/fC4CtpAfBgClVDOsjy4aueCCNx944MqZelTyOYxxulaTBG687t4vXXxRpbIYKUBQSRL7HpDNAGoiAiQiZK01J8zMLJ6ntGbP87Ro8lQSx77vGwlxz/MazQaSHhocmti28fVvfMcLX/CEu+/dfMojT1i9fP/vfuuj42M7Xv7yD//zH9eXeioACRpVRYYkiVlEKXLq3AIAQVBCJNYJa0ZkQGHNrHUqqk5E5K53sGuZPeiRjOaJXAsZ5nqN5vP05xX4pqw6jiqYrCdlgVWGdyWLTlwETKJVyYd6OP7K17700Y85fmoyKpdIeZJIIiKB8tatn/rcp768ceN25ZWa9YYfKEUKAZm55AeNRqNU6gub3GzuCCqayAeGOAbP85Snojhk5iAIbBBjPDpBZtGiEYEMISyDV/JnprfvuXr1m9/6gdFFQ1qHCXOiwQPcvGnml5f9+vI//6Bc3U8pP45iAlGez8ZYosnVguch6Npb3/62U085+vrr73vNK19arozESRzF4ntVIkKliFBrZpE4DpMkJpBS2dOsw1A8z/N8bTx9sLTPJhNiARXt22gh1B4iQKDLgoxoHD8olXpLFX/Lhr+d/vSjA9//9S/uQzUKWBf0URQJI6hMj8MZXSVZNreLJ5/+twLwUBRCqONt73j/q9at3f7dr3+LaBUiM+eAF0KIFHh+FOowqi1b0fOWd3x+1fKRsW3NpYsrv//D5V/60o8UYOBXNYsRLg/jCO0xg57vpabX8zxEiKLI1OBZJ5rZ85RoiZNIRDzyiVCRwXiLIiJPCYtOEp0kYZIoLyDPU0RElGgtLEjErKNGWKqUiVTYbDLrSqUSRQmhKFIAIsxsLTgTil8KGs0aC3gqqNenibCnpycHHBBy3CqSR5YBJEmCiAkzi3i+53leFMVGAyeOYxb2PT9f/5bUITJ0BJgA6Z4+2r7lnvNf/tKVK/b81CcvjCNUFDCC2FKpAOTkPZw58FoIxbu7cin58C6aX+lEAVj04lM2ds6t+swkMYsAerVabJAXK1ctu+m6a2fqE0Caub585RIRiaNox7amCkY2b9zyg+997ec/W7RoyeL+nviCt7zv3HPPOvW0E7/x1S8FnpQVvORlr3jw/h2loC+KQlKRX07GLRtAxAAAgABJREFUNmxcvnyfJNYAoJkBFBCgoHAuPTTP+L+QTZwnjzwXMHi5KKJg0TN4c27aYLZykWP/cMlpcUG2w3WZn6JVJEYmxALWrN0AW1+dFLDE1ar/uMedePghe7S8b/05yePPePhTnvS83upKRC9hShL2UnpaYSIiMgKiqDwlWgQkCHwQIFQs4nkBMydJDCBB4JeCkl+mMI4AGp6XLFnUv22iAeBpTlatGCWlAl8AIkIvjBqVikfkaQ2IrJktizELAJRKpTBsKkVBUGKdJElUCnxSSiNXyj0iEkWRiGjWaIqRIAhzeKBFAC1CXmlgXh4YzBX4plbA0TMh2Eg3Re+YU8JqIGEm20HAjEQITIpIOD7uuEOfeuapHd/m5z/+3YNr1g8Oj06Mh4Hn+4HfqDfK5XKSJFqzTpIojs4991lveMPTfvnrq9//3s/7fhB4KtKxSe0mSayUFwQ+AEdx7IlK2c1B2aSQp0TrZt9A5cwnnb5ycW/LDTzrWad84+snvffdrxsYOBB9JYylICBPNaMms5V4QlIA4emnnXzcsSurlUUADT9QZRXEMegYSPmoSGudJDEIVCvlyR0Tz3ruc99wwXPrNTr5xCf1VBehimr1hh/0pseq5fYEISjQoVt3VXK6R9CFScz1niEQiA+gAZsiEkVc7aGJ7euW7FV97vmPvvSHN4yviXqHVibJDBIAE7LrDYSsBzXlfC3ojaY4/3SlieMkMHqmqFW5+ee//mhyu+8Ffa4wXwyZRThJgiCoN7bsv/+Br37ZM9LfDgwN/OiH/zG+pVEtDwBoxEQAPF/5XkmEkzgx6X3zUbW2RW7f95FQExKLSIIE5XKAgHEYAyjNWiGVSiWwxpM1a9/3y+WyAIZxojUr5SFwomNk8ny/2mPMvPT0VJkljkNE8T2PkISZXMmCtWbR09PTOmk88clnf+C9L7vy6pvf/rZPASSBX6rV64qIQQh9z/cRMYmTWMcp1aTv+4iU6Bi0NqxhSpHWGkD7vk+KkiQREeUpBIjjxFV+yTHPaqC42QyxBP/45xU3lQY1J0QBiyAosMo2WKB5TQ3wPEB9WQTMaR9I3t13POKS/ncHitGCuEcO+SxtCjlk8T+QHVmOr9GmTIW5Uq5s2nxzsxkBwEUXfeqFNbjiir+yNE95/BkXX/wpAAijePPGW3r7995vv/22bRvftGntxPaxdWvWVnqqwAigkXDj5on996m+7e0XnPecV41v2QCAqlQqVzjUbCAILtz3DCQC0dUV2pV+Zwl/JcsQzdHKV0C9Wuy+U9DBgogKSNZ44IxwWuDvRJpr8inG8yNrhkWYMOv5SdlGHY8lWkAIQQZJxbbPRiKMFCPVEp7ZMjaWJCve9PZP/uEPVy9dNhA1d7zy1S979tPOfOJZJz/hzLN+86s/DA2urDXCgJTWWikkRSK62WwkSVQp9wNCHMVa696evigKG806QKL8nmq1muiEJalWq4Ffqs3MNGrbBYFQT06Phczbtm0BCMJwhpnrYRjGTQDsrVSV4ka4I2zGAL7n+6SUAIMIIimF9ZkZv1zySypJwihsVKoV5VOScNiMG7VxQPSU7ykFhnJaOfm/ucIeyVOruDblLoK7Hb+ZxZszjy/lBmdTdHUtW45e1ZK1OzXEHIGESXtYIgiUqdp0kuhf/PqPH3j/J1cs3yNOUIQIKYr55ptvApDpqUnlEbM0G2GzGWrNlUp5cGCgXtcAanR08GEPO+TGW+8TmdC6L4ywXK3Um/Ukinv7+qIomZ6aYtF+EIRRWCqVKtUKIjbqDaUUkpCfoNfUXN86PrZspPKsc9+4edOWasXzfXnFK1925uNOOv/FT/v1r3/7r3/c3Ns7pDwviqLGZEMzI2L/4FAQBBMT2wF63vD69xx88P7r1m5CGI0aioWThEGYoZkkohR4QSlO4r6BPiIeXTRwzMMO2bpd+0FPFGkv0EHgA4LxyUyqKG0Cy1BJJlsNwgjs6rKSohgpi40lR6DFNo3CAgyoAr803Vgb+2ve9M633nNL81c/+P3A8JFJEon4JL4IiaWts9tcclnClDk3wy1h1tonLO6WNJARNI5VQNf85VrgoKf3GAFgDk0OyZ1HKJpj4arvA1RWLt9ThL/6rR9cdulvP/WpDx195MGrVi3fsukOFtCaSTGihPVmk6cABFVJkQeIzEKE5XKZyAub9an6JACRUkRKQEih5xMhJloH5AVBwMKTkzs8r1SulDnRwBA2GlESk1eqVCpBEDBzrTbT19cHgrXalHBs5DH9IBChRIelcsXzFGuO4rgZNgESj/xSJUBUnufrZLpS8R925AFbt82QglptyourwhSzKKUazXB6ehpAiPxSqSSijUxcEsVaop7qYKW3OjExEUfNoFRB5SVhDVWgk6YIKS8IJLAUnk7uybR0CKOAz8CeGr71ulsAIvSXVcp9RtFOhDHlAZCW9nNcmAHOOIhTcfGUitL2H2bMO5noqUMM5ewWua41lSnIW/IUtkASkzMARhPB2+5Pq0miE2CufOgDX/zxTz69x7IlP/zhF6emakzS39uzeGhgerr+4Q99WWs54vDjLrroI8MjUJuJSj6SB5XeQU/R5ZdfIUjvff9Hfvq9i88+68zbbj/GhGK+72nBN7z2nVf85W+e8gFEKWVpmsUWJCgn5zjPeAbnhbB3HaiGYsLGN+Rm14phOakG19EvDsrgOKSl00kuGXaQiRJAFlaACiURJ7ORCRQaymhBIciKUVloDu2sgYiCpAG18ROvufJft990xe03LQLYfOO1N5zx+LWlEhx3/NG//uUvUMXK082wFgSBAHmoWCcCutpTbtRriMiQ+IE/OXUfQPnoY46PouaDa9fO1LaDeL39fTqOtk1sBuWv2mPV0mUj//rH3xPdBKKSTwANTwERBT75gU/kx7oxMfkAkHfY4UcQlR94cM3Uji0q6PN8D0Q3GnXPD+J4qjHTBPD22nv/9WvvjZMaQHl00ZKlyxZpnWxYt3FqageBp/yKTyT543WWvCM4qCCRsMOIuDZKl/ZvqS3hXMTCxtcRogSJQAiBhBM0BTabzwe3KsAZ4PT8tjloB5k1iRJUoDylpqabN1//p5uv3xOg7PwtXwXolXyvpGd2bAUI+wdWHH3swePbxh649zalBhDLIs1Q15kZdIN5CqhKMLNj+1YV9Jeq3sz0OOvm4MiKIAi2btoUlEpRVDcpq1IQsMRhcyaCWHQNMQIRIvW3y6/ZumkdgALYdtdd9x935eXLFlee8Yxn/+PqvwL07Ji4x/dHDjz0QM/31q3duH1sk+dVe3v7J6P61Vf98eqr/gLgEZRZY6SjOG6AzPQPrtj/wAO2bt2y9v41AKijPuba9oktzTDasX17HG2IYdgHJApIpQnnQtN9FrEgCQsotK0nIEyCqFAQUIMoBIWOSRQJja/mAPhCCKTCWu1Br2/84596hejgM+/7YpQsTeqhB0JUYvBBFGKWykAk4AK1m9ODdS0KlreHwOBgDNKbNIsmIALdaIQvftVLN2+QX/3H36u9w06zNd9Kg4ooisJKaXCvffYHwPHNW3/58x+99OXnH7DPHstXLAG4MWyGzCxJPYpqg0NLFy9dnOhoy+aN9cY0ChJ6SH6tNs5JA1T1wEMORsANG9dP7RgH5WkWLYhIvu+H8XSzKczJ4iWrwrBer88IR0nSXLpk5apVK8a271jzwIMg2Dc44vvBzPQk6xnyy3vvtxcgrV+3vlkbB6oSiWjYMbMVQI2MLt9zr2XVcrB16/jGzRuQoFwui8TNcIqZa42pmcZ2Fu2hxElCSuLatoHhJSuX76kUbd26dfOmzX5QARBEJgRCCZvbJ6ea6FWXLV8+MTnVqG0GqC9ddvDIyJ4TExOTE1Mzk1sAuNK7WGxbJ5JYZz4Km339A9vHt5119rn9g4M/+vcfE5GOEwAfTd2cXZoKIK9j480PVl8QY7CaeIiIVh2BhcX2JAg7YRbX3ZFj2U7pJ22xyvyrrOk1AAFDYGZhwNYAGPyrEDpaaPS8oEorfv+Hv5x8yvM/9rGPPu6x+40O9Zu3uew3t37kwx++8cY7VbDnvffcc8cd6576tCNpif0kW8fgtW+88Dvf+UWlZ/Rn//7TF/T0f+ADH9hj1VLT/BEz3HzzhgcfXB/FutGQWOOOHTFA4EDXZs7RWMI5EbELxGA5/jZKAETEQxKARERHUcwxAwhSgBArEIXK7CQiSYkHzGHh5QHU7k1ZhBBYfMR4praVPAjUCIGX6CQIsIMBhuz/2zJreXYIC1RkVqyDFCPc29MLMDIwOKL83u1j98zMNEpBTxIlABOPe+zRF174gct++dcXnX9Bf8/Ajh3bn33Osz/xqQsmJmbOePyzx8e333LL70dG+v/0l+tPOOGoUqlU8mHLjtqH3//pb3ztK4E6ZHz7vU95+jM//7n3DvRXY0HSMXieJ6AQABIwAAoR4Ih52/j2bee94Hkf+/jbPT8o+aA1/+Nfd77oha/buH4zQPLb3/3mmGNXvP1dH9uwdtt3v/2J226//6QTzzrw4EO/+rXPH37IigQxIIqaDSR13vPf+cvL/hR4geMHxoJMZYftggDCQCgeQkCAzBhFofLLpaDPRlrMDNp0Z2UPEVvymKmfiiAkAORJM94azuwISksU9pqI1rRmIUoqxuCcY6cjJBb+hGxOXRaMjRSpMAlCX08PQDAyukRrL4mEhT0fp6YefOOb3vyud7zozns2RJHss+/K/r4AdLJxy/jxx5weBNF3L/nOiSc+LNTxM8958umPPbmvWj3v/NeveWDLz37yZQoqT3rK01/+0ped86wz3/i6TzMnn//8m/525W1POeuJoyOHNWozI0v7PvWpDz76tEc8/8WvuP7663yFiDA62r91U7VcHvS9RWvvH//nNTc88YnHr161HGAaMfnc5//t3Oc9gZUCUEmi77x143nPedX6DZsEtl70pYuf/tTTfvu768879xmnnf6Mb33rk/evWbt1+45HPfyopgYiuPnG+173ynffevtfLr3sz6eddgh6at+9Fm3bdjeR+tVvb3zes5/ZN7BXIlq75psOvg8Rs2jkcrmqZ0Ks9OmYEo0eeg6sSwjKeMNkDCgDAoMSUjg9OQ68ZvnBlc9+7oO33Tz28Xd+wvMPqqoe1kLKZimETWbCxtU2Y+micQLb4IWp5AoajyAQ0NNTawBU/+DyWq1WKpUAE0QGKW3frht1ESHbbQgOOOL695XyGvXaihVLn/70MxBx+zYNEG5ct1lEDj3k0F9fdnXg03StMTJa/s4llxxz7H5B4GnmOE44idD3x7ZOvPZVb/zLn372hrd+7G1venmlEoQxAiTCsWYsefTa139k0+aNP/7+hdfddPtrXvOuz3z6gyccd8SrXvPhS7770bOe9LKPfPSde64aboREnt68JXz+c191/XU3AJLv07e/+/XHnXGs73keUTOM6824EoCvvBNPeuaZZz3xLW86jwiV8gGRdbJm7fTJp5wU1rd//uJPn3/u2RHI6Y8+8d57rhnq9S+++D/e8Y73L1u2+MKLLz71UYeL8pCg2dRXXnHTM57+HObm6KIl3/vexccec+ib3vqBLZsnvvvtz17x19uff+7rDjv+uG9982MrVyyJAbWWgHi6ET7/3Ddc+fd/BX6PCAootqRFBIBhMwQJpqab5TJXe/t1DFEUmjqacZGBGbC138ebB7GppH69iBEpzkRdWlLQ2J6Ctokvg15Bgx4rMrWS7aEppLYRpIWIQgQJJJUvFiLP86o33nDrE5/wdM+XgaEhAJjcsSNJEq2T3v4hTmB6euqcZz0tCAZYqFquxkkYxzoMQ/JLcRShP/Ttr377+9/+AZV6ent6mrWZJAmV19ts1n3Pf8pZz0MAwJ5q76DmrFmdjfyM5F2a7p5Lyi8Dgm3Jy6JVdt28ZqJQACSJGipAwrihtwPqyenbJG4CEHDiuNchJ1+aG7SlucgmqwniyVOfcmwYzVz1+wfKwWoAKPnlGZiGTLXHviRleBZoq2bnyvL2+SthXxxndRRNIE7UZpRA8zGPf+qSRdV6rfa3K64CKHk+Dg8PDA/1MRt2jqRSKS1eMqR8VEojyKKlIwO91bOfemozTNY88OC++++zd0/5Na95/hVXXHvfPf884wnn/NvnPrpqee/Y9pl1G8dKQXnp0kVeFkxq879KCcDGpz3tNd/8+seI8JY77rnv/nXHHvvwx59+zHe+/aVzznnp+Ni6/Q/cc2io54tf/Agk7Huq0agBBJ/45Ice9YgDZurJ1PZtSdJcvHi0v9rjl3yAUIv2RFkQ7mxQHDNphJYIQnOCiZ5uJmu10I6ZDaCVdTfZQWuwg0xaRxsMvkC05UnPOeu+2zbedtOtQXU5YlUM7gYJiQE40/CR3OY1K8u2aWjB2DTSiygEiJKYyAub0wwUhex5gYgH0ihXsH+w/xHH9jcSuO/+NQI9q5Ys6u/r/dZ3vvasZz27r9+vVkpxkmhPBgYG+nsqHonvw/Ci4eH+6rX//GNZKQao1Weu/Ptfhoc+uN/+y6u9e0Rh3Ayn99hz9SmPPrGnv3fHtpqnSkqlOTNSEDAjQDOM6gAQxTWA6Re9+Jmvfc2zGeCm227dtn386Ic98uST9v/dH3528imnbd06PjzqL1o0PDxSAQjLZRoeHujtPwiVGt8+GYbxyuWLTjv5iBe+6LkXXHCViO6pVusxa8Fqf3/ZU0liOkkgbe6jjgbYzKeWZmN8prFeajumGzeCVBOTXzTt45iyMZPrC0ogmgJPB8P07PMe+cznPOLrX/7+z756O/RQojezVuD4XE0aWQRMGsnuQRZJTAGEc2Q+KfjWkCUEANGS1X1nPOH0b138ffSGAUZFfCQKAv/Sy36q60FQWm4sOxGlBPBia8USJ2OLlu53yMGL7rhz/a233Q4A69dtAsCHH/uIgYFL4mbMMvPjn/78pBMPqTXhpz/+w+Bg/5PPOi6GqBnFY2Njt95x20te/uZPffQthPjny/95x93rz3vO4/t6h0KB6alo3fq1PdXy0NDAMQ8/8rab/0iIUQT12vQhh5564YUf2nOP0QfXb73uuhsfddLxhx4wctXVl6xY/qht45u/e8m/P+sZj6w1Gz/86U+q1d4zz3jC6FDfdF3ffusDO3ZsWbpkZHBo4K67N++YGBdJHnHckYcf2nvJJV8/84yz/MCr9FSTJAFFff39g/2+SBNg/AsXf/PJTzxBA1x5zb/8wDvuqIc99ewTfvyTS5721NPL5cHRpf1DQwNf/tIno0hXy/7E5LYoiT78wdcddODe9QQ2rlvb31cdHR31q7177b3nX6+4Gn0CVkCmRkgi4ClPc9Pv8f76t99LFHvlvsAfqFR7dGKaGrM2pxYxR4+F51HJRBA2HX4stmuqYwo6jZGzFLTFDBMyAniARdkjMdodIOySz6ZzQ6hAK2rPfUtYapzDOI58r1SpVMJmI4ySrZs2AQj6pb6+oXq9FkeR53lKlTw12GiEABKHCUussDw6uqIZNQg5jJvVgcWTE9t5utasJcAQlPp8LFXKJWHwfU8YErGtKGkLmgPRGeaVuTwXh9vJ9e4WU9TZTwhIAAi0sly7oKp9PYluMk7td9DSu+/cdOB+zUaYhGGYNkUTWog05gSOxPUL5gFZIuB5MLatLL3XfOLDb/rIW//225+vL3mjSWI1m7POe0hFZdM/bxd3y3tRjE6O1i/5APC1b1y0eetEb0/v0NCiVSurieZPfuqrl1/xO4ByHMciEieJy6iR1nEUafNzEfvNuee94kc/+pmOxvY74LDbb71+v332ftzjH3vRPVeccsoj9lze+48bbjvv2S+/+64HAOC9H3jve979EkIFIEgCAETYbNZKpVVnPO5UJPjAhz7w3ne/F8A75vgTvv7tbzz6tMNWrlo8PnbLjsntK6WaRPGfL7/x0l/87mc//Y9jHn78WU84dv367c879y1XXP4dgH4AWrly77GxCUQPkbUt0LlF0L0IjECEDBgJTVGJ0ZvY/wgZHw9HF0U6sRel+YWMmaQFAS05bhYQEQgCtXZDZdUB9de9/ZmvPv+Ld1x7v993COgAoCw8YzhGRDjHN4qpsJI4HdKM9sNpmD329NNvvm3dyMhgvVlbubzvz3+68tzz3jQ9NROFYa3JG9aPn/TIk8fHNgL57//g29/99jc+7Ih9o6Y+6aQnvuIVz7/wcx//zre//+IXvHxgcI/JiR1PfNIZjUYY91V2TDZ/9IOf/+43l//+t3/t7fHrEY+ODJ166im/vuzXAvXVe+63aLD3st/89fZb7lu2YikhAUCjngA0a80mQGPp0mWPOulRArJuw82Ll+zx0pc/WwTe8e7PfvzDbwe/fOzRx37/kq8eeNDqk04+5ic/vjaKYhGJ4xgADF7mhutufuozXzg2tj1ubP7Qxz71jre89lGPOmqvvQ598pMe/bxzX/aVr318fLy2eo+DQMqlch/SQJIkAqobcTECcKI9X4XNpFZfu98hybLDepaOULMZ+76k7OvuwLOMlgLAJPvsHxx34qpTH33M7bdsfMtbL9y8wTvwpIpPmETTKQEg5uj92Y1gxItsz2kO8pEBL00mFEMNgl74tBcOrD74rA9c8AMNPR70AqNQbd8Dq7VtPevun1FekHXv2GVqamoJAO2/30oAuOPOu2+4/lqi4euuvW3tuvHTT3/UqpV733jT9fvvd+ihh61mgNNOeeq//nEtgDzvBc/4zjc+/atL//jsZzyz0rPHw446ihDf+6FPfegDn+O4/plP7/+nP/18zxWLDz3kqC0btjz1GU8Tkd5ScP/aLZd86ze//+2frr7msne98/177jH63Ut+8apXvnZ6eguAf+ed1x9wwH5nP/XU7333kmc945HTtfrr3vSOb37lIuD47Ged+9Pvf/tXl/7yRS++oNkML7jg3a9/3TsAagARwNS5573s29+6+GEPOwz9gVe9/C1/+dPlP7zk4j/+4c9Pe+bLPFWamZx4ytkvPObYIzTzY8546l/++Hfg5tPPOffH37/4pJOPPeigR2zfsSaK4lgSnfDf/nbdd7/7k5/++D9OO+0xhxxx2Lbp8NhjTn/g7qsBBL2BpctW12YSj3qFSyJKWKOKTUjmeQoUho3tq/cZ7enpu/vOB8MQA08BlNGKiOSMWu4s9ebMQNv0Va6NqyBMPQ/rbavWDpZCRKwTrSOGBESUUp7vIZJAkmG1JEVjQZ4ewikfgogEQZAkiU70wMDA5MxkudwLyPV6Iw6bSilmVgL1ep2Ient7QZAZPb9Ur9WmJqc8PyDfLwfe5I6J/oGRRPf6vhc34lK5nCTcaNRNzxwhkSKtNeWIGWxCAcniJWePgLMjVbDt1G6LgB2/B5omaA6bIU/X/aDv/PPPOPbQZn//kiRumBIAOArclK3CCpKZ1pNiCtqc+EQQVJp3rPk5cnze85//l19/GjTVayFkwvG2vs8GaW7gHC3aKR30xdKY2145MjwwPNivFEZxmMRBOfCWL1taLkfNps/CiKjQNA8IQOymyGAFRQEi4h2330cQ+JU9xsfqf7j8qjNOP2losB9geK+9lovIt7/9vbvvum1k9KBt4w+KVo6FNEX9YjOsrd5z5ZlnPmbL1vG//u0fQancNzB603VXrX1wzaH7rj7o4ANuvP5KYPEQP/LpL7zvnW8mbxUn2w45+OgkgaHBwYc//PC77twfsTozM7N+/RqASrnUa+gKU9M1G6rdaHejICQAmhNZvnzP17/+gka94fsV29bMIqYxBQDJ0eUgFmPfFukwUD7O1NZON7asWL7HmWefdO+dv9HaNOolAJZCMFUxbZFkxow7CB1/i4W+VwMeGkTEGYVcn66JBCNDw+NbtOnwbtSbmoP+wb2nJrZ+7zs/e/fb30joj4zstW3b2sDvAQDQPkCZoAIwYUrIDHDYgUdvG1vjB3voJInj6He/vfLMJ5540okn/OqybxAN77v3SgC47aa7d2wfW73XvuZzr1w5Uq9NBF5/f9/eH/zwWxePBOPbJr7xjW/sv9++B+y75933bP775VejWrRk8aJ/XfPH+x5Yt/feex5x1ME/+bFvgwCHOUfEmZnG1k21cnkohsY/rrl22+TkshVLy2UfgKqVYQ+JULGu+tTLMfT19odJQiRp8yO2GWAt2kNg4SiRpz/zySeefGxJrdaRKgXEoAESUuIgemLqcywAVB9erCNcf9Ntl1/+t9vPftKjDznwhJnpMAy5FFSYMc8t5bKHSYpsNznDFHllUGCYLhXxLDKMJsen79BJeOqpJ399n8s33hcrPxGAJMZnPP0Fm9bGX/vCd4QHU/EqzMQ+UHNSrQ4fethhIrB50wNbt95VqS75xz+uuevOe/Z87Oheey2+8SYQiEU0idxw43UAdYD6LbfcCgB7rVq5aPFBtZnJvt5+Flmz5gGOt5K36P67b26GDQB5+LEnXLbhx0PDw4j4rxvvfOQxxyMMC0gpWL7vfnuJyGW//H0UjQ0NL67Xd/zyN1csXrbXcccf+e+XfBEAZur1G667AcgHlm1jUwBw+OGHH3jgITffeAtr9jzs61vS0+MLT0dRAwA0sxIvSXQcCiBo8JA9ogCADz/y4BWLB6/4x7V33nZ//8CymcnGT37w0/q3vlCu+Mced8yvf7NBEfnove1d7//MJ9/X13t4szlZqVRYq5G+0uMeffp/TIVJvL0ZxZvWrVPeoO/1iyCiBygiKpWDC7wAwvAJZ5zd1z/0+XsuRhVoLcr0iaY66NgavXizcuKTg1OxaVB2UdL8FVqc/gaBiE7iuFwuTU+Pg0wpFXi+Qp+aM9PQgKDSW/IrAMiMZGqYaf4tJ0qYlxcTEd/zBbkZhiU/0HGCyGW/JIKEgqREgDwPERKdAKKg4jj2y2VTceM40Tr2Pa8xU4uThoAEfkklXhTGmqNypdf3S7V6nQQUouunREB3LCKjOfq6d4sYpXQ0hFOScSHlGObyDGpideioCSACSqHyvWpPz0gSlt/xpi/989c1Vd5LRw3gCCBpa6SehXHN/FwDJAATjzvnoCU9yTte+76otrhUqvi+F8fNTNaOBQSZWSwik3IEPNxV9wmtGEMSaQB47Ws/9IffXTM4OBKG25705Md+5KNveNnLzmlM4Zveem7FLwGATtgj86AjkUS0cCJoDb+IwPDQYtb3l4JKkkhjuiEihAyAQaWKiDpOAGJPKQC/VC6JABtqaNu3JkkUDg71jy7uDaPg/e99//i2146MLhrbNnby8ccS0dDQMFgRbYgjQFy6dMke28YG7rz9th/96PLnPOeUT3z8tZ/4+GsbdfjTX6666KKv/+mPvy+XylqItWGjcEQe2HG/CCICawZBIuSAUD14f/31L784nDKafU4/LqN5aH92eTVcyAkCJgCbX/uO87/zpX997mN/1OFwuVLWugm6LsIWNuGAP7OoWJo6EAkapoTf/v7K85//8hUrDpqphYODiyYnpyYndwAMadbKE4UGY+cDlCX2EBE0lvwAQPkqAAAPfYBStdJbmxkWJhEpIfYOLp+cgkq56vsJS/ybX/7u7LMeddTD9gJo7r/PAaedeqII3HjDAwA1RN+AS6/4y4/zNzk1OfPNr1961x037fuE54vIju1jO7Y1FfQ2GgAQjI9FiLhs6YgflD3KtDnMk/GU71GvohKq/8fedwfaUVV7r7X2npnTbk0nIQm9945IUxARURFERazYe3kq6tPnsytiBWyIT1TsvTcs9F4CISSk99zc3HLqzN5rfX/sPXPm3JLcUHzvw8w7L16Sc+fMmb1nr73W+pXeaq0VNxrdlVmFQhEAAgxRkEQQKVRFUMZaQ6gAWAnKROIb4jvnQlHQ3TP/8sv+dvWnfxb0zU5qOiqW2CGQKUFMAFkEVJYCU32v/bqPOnb2oUfP6ysWvv21h1Yv/zM0FMAcgCQHbMyTmcxEXsg40eJMABpAAWypzMZrvvXsN7zxa+uWKa1K1jaAkmI08yPvvhqAgmgeIEpmZ+QlTAQRkrg+c3bf+c8/O0nMQw+tmDa9u6vSMzK8cfmy9XAmHHjAPr/45R8GBzdbEyDiO97+2mv/55pCca+LLzofERvWVKuDjfrg4OAWQjz/vLPvuvOegY0bT336i3sqPYi0bu1mAFWv1QGgqAmx0t83HbgVhHq32f2IeOmlb3vpy84vlYu1au3www7p69azZs22EI42kzkzpr/mNa/5yIdWAtCppz0VEdeu27xxwyZjR/bf97BXX/Lyi1/24hkzVXpDEuGWWEcQUACALMyR0kWAWndXWUQ2rNsQt4wkURT0NFpm5SPrDzxw93lzZsWNpmXXNAoR+2ZM2ytJoj/96e933HHn3HNOvurKD1115Ye2jcLtt9/+2cuu+Msfb6AMM+ONMgWAE2tMnSu9h1zx2R8ANFDNCIIo0GHKQVZtvBDmy1o7oCFJu6b2qPQ3UvKZzx9ZkjiJp03XRx1zxjHHHbnHHnOFzeIHH7rj1rtvueX2ej0ulXtSL59MBT4vow/Q9uXwqF7J68khMLerLBkuFMl7oSBacS1xsICgA0isYU66u8vNZpMlATRWGvN2n/vud7/rkIMPuPTS/7zxxpt7umcaY/zNa5fy08Aj4+tVmWpaplya3U7MrOnEKwuNEa5PzeC854BnIFVK/UT93aUFLVXXpLVSLOz12FJfhnb5IJXEsZjSuAQFrUZbr21Y/mDhnb+5RtsFUdhjxZBbpQmJHH3Qqw66SAM5AcKcc7BMvNvyzHhYt3bl1q2LhkfmVsrBl7/02YMO2es1r7rg6U8/CUBlqnQxxzrUiKVUlR8AhZlddsaW2IbCEZEV0YgokgCZKBQAGBysEcVhkZE4KLjyNzuUOKSihyAGAKyBuXN3mz1rhlI4fda0tRs2lbaNrlm9FqDVihMrYAyKSK0WR2FxYGDDO9757mbrg0ccsVCFwW6zZ571zOPPedaJL7zwnT/44Y9KpRmEgaPiycT3IK8c62jsAmgAWamgUtzN1INyqZvZYVa97ZiARe9OweluWHINF9W2dmAFZGIo/vaXN25Y1zLN3ijsYYbU1QAl6xRChyBLng3nusGepuTMZwUsJ9Xaug0bK7X6yKZNm5ipXC644igRALKAEQydvyUACImAgUzNQCFimTBQ2nWTxAKYFppYG00C0Kw3b731NkDsm9bf07PvnHn9xx53+IqVW1avWQNQsDYxzABwy+13Do/Ui8VKMaCBgeR/rrn2Bz+6FmCBogARDBOAFAql7sr00aEoiQUA+vv6UXlJJcm5dnocOCAwIYROLU9YAYCAk612HWfvAgEoNq/7OE53DgUYRJGySSDQpQKteI4FZUcl1WZgcPtsAD+JAQBbi+7YvOimtapbXvGKZ1111etvvOHuq6/40eDmsLt7PxO7mZAmKv52Sk41JQuZlJOjdBBoJ/OihQNQw+Vw0zvfeMXGdVwuzI2T2DWQTBLvsd/ezbps3jgMGKVlPNdFcbKeNrG1vv65e+01s95ove2dr7/kkpdVyj31Ks+e3WesPPu551zzrR+s37DiRz/6xatedcGnPvG+973/feUSaILRavO3v/57o95Squtvf/vz85931rPPftYzn/mskRHo7wEA+OeNy++5+0EAshKnC19BRBtTK3eVkCIAmDOrp1QKSCmtKYmbq1ZtWLxoZdzAj330S+977+tff8lFr3jlRcJQ1FCv279f//f165eWy9Ov/c4VRx+z/0NLHr5/0dZHVjzc1VW48IILhQMBBnBcf9CKwjAItAboTmICgLhlkyRRVFZhGBsNxEYEiEViF0aElYhUq6Mao1p16F3v/NDA4Dv233/P3p7ijJl9Z55+zBmnf+v8F7ztVz//UyGMXOuIUQjAqdOw2GZ9dM68+Vrp9es3Aoi1lgh94uJquqnLWDbBdJssNHHahFkJ+lF4S+SYFUIE1lRnTJ929be+ePaZxwBAzDYkv4X54pe/+4H3f7DVbBSiCgARKGYSEKUDN/nZWj/nPP0RlVYKyaU+xlhmJoVE3ubHtTicWQALklIggESAonygSCwYk9TOOOtpF17w7EdWrPzIf32su7eQGFvuKpx55qF77zVr4cLpN944QjQbkZyCkmvVud93+xIiIkInKE8+miGzMLfFZt17UugDOnqYFRYSFMwR+1zhPfBlTCFARDJCDSt1ZrLcYKkxaOtKH5DiXcFCKq/KaF3NQjJCtQNFswOP965YYsDuDaosyECJJxyLJ3kLiM20pVEY0iVgvEdetiVywlmoUp4LoGoxj7JUkQoArWYrRkQLMUAzTprMXChFYVAcHhkW2dZo1o2IA5AKsgiyOHw+gQ0kUAwEAKgAuNFsNphl2vQ+5ni0ulJ43bZta9pJpHcyAFJBtTo6MDBSLgevee07/vSHX8ycvaDWGI4KUXdl7qqV6wAqxUJFvBujFkZgmda7x6aNS171ynMBKvMXzNvvwIUfeN9/Hn/c0aedfvIvfvkbY0ygA8TMA3JCf5d0l8sOr2iBEkEEagrWraAFZq+vyt7HCj2lfyLVwxyWSlCACIRNtGzRUBD1hmEXMyslKASpYnPb2jnXfkhd4J0ssaDTFRRkQOddIqitTaw0SKPCpNGIG60GQMuVbyzEoGK2IQCnQGoBiAGMExAcqY2IDAyNFBvNAUArFphBrAbRwhowQZJNm7eu2VBfuMecgw/dm1QrDPnGG25+8MH7AJAlscYAwAvOf/Wa1XcDzAIoAmwjNb23Z+HQ8EC11jIW+2dOK3ZBvb5x+oxZzFCplKzldeu2mARRafYzMzP7FUTr9ybixM8IoAAgohkUGGHm4cSGJJqCgl8eWdhxhryeWK7K5IiIIAopUJE1Mr1YGKzXw6JGMYJMEiCGWdkvLS5oY2eXe/c2MX7jc7d+48vXf/l/3vShLz3vo2/7/uaNNirMN0msSAF6AIgA+3jslZGlQ7QIbUr2d3s7t33QAnbjelJiurpnjVbrYRiCCKJqmI0vuviFqx4Z/u41PysW5xljMJPYRwEAyxZRH3jw/sJSaxoR6esrE4nSJrb1bUN0+BH7z5o9c/2GDW9+4zte/MJzh0fh5pv+CRIA8q9/ff03v/69nu59ERs/+/F3jjrymEvf86Z//OOW4cEaAwwN19//vk8XolKzNcxsXWUNwCQGrKWBrfWBwW3M8q53f+K7135l+qx5ILFSXaHuqQ4bkf5Pfexzr3jFi5tx65abb4wKJRT6xc9vvvbb1xDBMcec1N3TFcf2vPNetfjBGwBg7m4HXPiCFyAoIAs20dqKyGi9MTqyyZoegNHh4QYA7rff/iJ6tDakqShsZ83uj5Nkzbq1pEApQgTCAEAER4015WjesodXXvKy5wJ0z95t4cGH7fGpyz6+94K9z3v+OT/98c8KxaJY5XS7QRBRJcYGoSSttWefe/aMmXO++NkvW1aEQWpZw5ilLh2mLKAn92LE7RjNTz0AO/VcImw2h8KIvnjVJ84+85iV67b9+ue/vOWue3t6S8ccdcKpJx/7ljdd9MjK5V/+3DcgqrRatSQxUVgKgmBoeD2AkIq6K30mAWsTQhWGmsVWq1utbQGA1lF3ZSYAGtNsJa04bgWhLkQFY029Okw6isIwaVWT2KR0VluIysVyuVZvGVPfZ689XvbSc5YsWfaR/3pno1Zmq9avXf/Nq7974IH73HvfGsJuwkARNJojcdwASAAoDAph1OXufqtVT0w9igpa65HRGrMBsKViV6DLVqy1XIxKjVat3hgFYCKFSIoKWheIFIpNPdFdvsEA5L0AXC/J6eY6FaHU+cMaYTSZl7ogZwge8WpD6ErOnANECwiQtRY0VlQUCScitu1vKsLAbfisM7pIiwttm9i8R55PiMl7RkqLOWERa21PV2X23D2KpekmHt3/wDPOOOM0Bly7dhRADwyMEtHc3Waf8JRjbrjhb/3Te/bcZz6JVKsNY5rWGivMzK2kztgSRWIbzVZsLaMwQHXb8DYiPPOM0/78h99t2Lhx1uw9dpu9sBlzEiuAwNjYWhsnFklvWLf5nnsfOPOMY5951umLF9+2ZUtdWIVhNDLcUEgGuDbaQGBjYgAKVDTaqDIOH3DAIaQO3rJ56+DghttvvmvFyvUnHAe9/V2FQqVej/1WA2Dy5yVfByFvipBCtlDYWiNOYAxTSXd2WEQRGE9DwpxzLooQkwBH5e75IpC0WGnqtKzKXcMERRXwiRwQMBIpFDYJtBKOY7vHnvsUSn0WbBIbHfSHYbD4gXUt0xC2BBpEu42aMdZal0FqAJUkzNb09Xf3T++Ooq7EbGs24sSyNQxgAWJEzSA6jGJDv//tn1/xinNOPv2koYENiLRs2Ybh4Y1EkTCKBWu5Up4WhvOjYKZSumX6i8VIxALo1Ws3PfDQqgP22/0ZzzjzvnvvXLly0YEHnbhgwTSl6O//uIlNK44NWyeUxoBkLQswQ4wYkGYQaTaBOTGmASA24XrdlApqzm5z4xYlsW7FsdaRTzW8vvl4qnsqWCOctAwoXa81CNHECYIFcFrO0va0d1LSyCK6USWbhD19BzbjdW968Sff9IGzP3TZ2z70ti9t2rgsKi6wJnGdN2g7dQkAOowE4pg+RUpWzJQSxCJSV3m6UsoYUUoLK09QhOKPfvCbZl2roM+nQ5QSV1AAxZokKhQPP+woRLnxhjv/64PvCMO+MCjXa/GcObM+/LH3HHno3vMWTLv77sbFF7+xVC4uvW/9ec85q63RBXOUsrX6yF77nPaMM04Xwde8+j2PLLshvWfTomimDotKobWuNqDFqkLYPTi8csvmASI88YQj77h9/1Vr1rFpKU29PV1GLEDtqGOP2W+v2bfeeddzzjknV1acCaBIYRAiC5a7iwBBVOg68aknJIklhSBFACePyMVyZfbcLmPYWLrrzlsHt1540H57n3zy6b/59a+s5bOfdVZfd9my3HrLjWFYtAkYy8ICoIOwwDLSTIYOO+xIoYPWr1tarW6849Z1Dy9Zeui+e4dhBOIfVwErYAG8iYhlVrr021/+PiyWgBQKK4XW2FReH1Ih2A5Pdj1RvyF/PCY1cszMZhFMPHzEkUdc8JxTt47UrrzyR5/5+BtI7cl2BOBz//O978y94NzXvfbin//kVxvXDxLpGTP6Nm3a1GgGe+89r1iMNm0e3LxpZRjMYMZSsdhoVput6vTp/bNn72E52bB+0+DQiv6evVstE+igd2ZPvTE6MrIKINx9/j612sjg1jUAesasWb193cVSudWIlyxe2kpaQVAEiJqNhknM4FBdB5VSsWytGhwc/MQnrgIoAkikpoHY4dFVQdC1z957FIpBrTa0bu2GanVTpbxXkpjENGbO7tkysLnR2Dxj1sFz585rNoYeWny/Ur39vTMa9XhwaKOAWbBwQblSsaa1eePmkVEbN2rlYg8Ri1P3z+A2KIAEyCAK3CPIRKxRtCubg5AQAhKCuJ2Ne6a8PAj4X7XOgzLTiAZvY6AUoFgrdUVOwkqh42BkFQ6FgCiE4t2mXbnfzZ+cR14K6XZ1PyIGbmiE7q5updTHP/Pxwa3DhVJUUHrv/fYoKNiwpXXFlZ8B6F2/bnjLlpHDDtvv8i984MabTt9vn31PPvkpkQLDMytd00hXi1GkFVW6i0QtFZIC7O2pKEX9M3YDgNtuvetFLzj/vHOfNnvWNQ/cv2i//Q87+aSDAGDWrD0AisVKQSlVLETTp827/94H/vLnW59x5glvf9trDj70oKVLl4dhoVKZtnD+7Itf+pZlD987b96MUFH/tD5AxYBx0tzvwL2//6MrrWmsWLpicNvQ7rvvfvIpxwSK/nHDzbXaFq370Av+Eaer4+RT38HQQ5BQBAgVigI2RBpQeU0O8PVbYfYOE5OdCtLYAKIoMImrAKUq09lyPO7X8g3DtDGBAhKEETMiUm/39CigZz3zlEMO+WW5HFphwyZAarXiF7zopUHEpUDNmjEvVJVGdRSAkUKlqFgMlaoAxOs3jSitzz77FLzii5Vi5fLLvtlshd3dxUJIQQSAMagAQQjDocGNf/nLX1/9qnPf/ObXmka10TAPP7KWqBhFGkGXCpFSJKDiOCmUME6aAFSr1UmpQqF3+SMP//AHf/jYf7/mLW955dy5czZtWn3e81982MGzlz6y9u9/+yeAqRT7AkX9/f0AoMOSUhQVomIpIjIirXKlHBXKla5ABQIQ3HbL3YGOerqib1z92eFt1c1bqm9766XFwrw4NkJAzqBpfC6BwAjEQIIKENiJa5BWAQgDCrOIKIRcGHbvVMQ2QcWtFgdhvy4d/OWP3vSuD+/1rv96+Uff9xWTtEQFxiapu7cGogyLl1bJO6Ee2CansVNRR0yS2CSIpLRGaxlBiwQaepc9NCisgqDLWuvZwyKsvNJdK4lnTOt54QueyUIP3LfivnvuC6NZcSvWQfmee65/41tfrtT+Z5x12p9+/5stgxuQ7Kw5pc9feTUyNpvxyNDI0ofXXn/9za3WRpTS8EgjMfYzn/ngkoeXa62ajfqWTdt++7t/LFt2W39vn1JUKIUAZC3rQhcC/f36Oy655EVveP3Fxx531B133MYQlsuVQw465KMfveJnP/lqoQDVppk7f/6V3/jW4OCwibk6Wtu4cfD3v/3jw0tvayVJIaJL3/Omu+46ceHCBRdc+IIw0P39xfde+oaPf+yDWwcaROpppx55xVWXNRu1P//xpmuu/tZNt7z82eec+OUrPnbyKUcR2Ze+7GVE9Ls/3PjwQ3fvvvthYVjWinp6ewCYOYhN7cijDr/iyo+XSrx46RJj4ukzpj3j1FMA4He/+TOpErMSq1EZkcSTiaxptRoqmL55YwNUnZBYDEgToQDMDkeEwgIwxjZRp+2syYiNuEPlnwmaxtDuZiCRsBVGgNJhRx1ujFmxct03v351obh3d/cMpXbbvPn+X/7qd2edeeoB+yycOWPG6pUPfexjVxxxxD5LFi9LbOtZ55wpIMuXr/jud37yg+9f11WZ20pGuru73/yKlzzt9JMOPHB/Y5u337HoRz/87Y9/9BOA8JRTz3j7O19xx12Lvv2tb73ooheefPIJn/rkVQMDM970xlfOW7j7vDkzC4XS1oFtd9x+96cv+/zadVuuvOqzxx1/OAVqv30Xfv3rX+nvn/7X62/81jev+9hH/2ufffb80Ic+e9utN2wdqj3z7Auff95Zxx13+PRp/es3rb/rzkU/+envfv/bnwNMO/nUY97//tc/tGTppo2bznrGGfMXzl+3YcutN9388Y9eXqttsSY4+OCDX/3a8w474vDd5szYOjgysHH9uvVbv/vd62+84a9dXX2JM1FMQdYikNcrc6ZtHrWamv85s6J2+xkJ8r1ZnADP49+AIE6qwvHy2z4czp88NWFLBcecf0eqRZ25n2ScJ1/oEwBrUaiEqrh2zeAD5XWMOHP6NCMQKrjzzsWPLFvyq5//9Y9/+ElYmP/w0uXvfNenLn3fGw86aL8jDt7vgSVrfvSj3x548EHCmFhUOrh30doZs2YYA2wS4a6Ek3VrB9asHV665BGA4g+u+21P1+yXv/TCE4879MTjDr3tjmW//e0/9zvggEceGQBgYXx42drRkUa9KoRd3/72D/und59//llnnP6UM05/CgCsWdfctHFVEAQAdvFDD2u9x8DmbQARWwsASWzXr12/7357nHX200MNDLB02Ya//vVv37v224islGYWzIzPcMIHo52sSKrNnTNe9UBz8HqQ4N/gBeK3H8+9a5OIECkvUyo5fNykVag8gyWtqiKJgLDeuHnzytWDg9u2BlFgYhAkttoggtFkg4FN1UdWDSx+aH2zlbSMAcAgKi5fObR27YCAKFW+6R83ffdHf3jOc8688AXPUgDXXP2TZSs3rVw1snljtdFsgBOhd85DArffec+tdy6aMWPanvN3u/2uR26/9a5ioZslrtdaK1cPK9XTbJgg6jKWve0FKWEIopAh+PY1P5i3+/STnnrCG153PgBsGmj+6jd/+/jHv1yvG4CeVau2rFi1dfXqrQCVLZuG166rrltXZbZEYUAwOLB186bB0dGRRjMmmn7Pffd885rrLnrJ888+63QA+Ps/FoFndrhyjh8HSc3DUja8oIhFYac8iG6X6uWuvCKRSBu2gqkLse8FMADETROEvYUiffVzV3/yK28/98Jnf/uKXxZ79kAEkQBFpehMSr2T8/AQacNQUuoSZsh/r4zk+m2AIiAsFL/uDS9bv3rrL3/2+7A8XVL/OBRAp24P2NXVHRaKN96y7Iabby2U9ylXIhARKQ5v5VtvfWDvvfZasHB/FfYsWXZ/y/DCeX1vff0r87PrIx/90gf/89LNmwdrtZFCpJ/znDPy28iL7njo1JPP2Lh+cP2GoSVLNwIoy5xYW4gW/vo3f33r2/77Na954RFHHXj0kQcCwNYh3rJpY3W0DhCuW79FKTVvxvTXv+plHR/3ia/+13++/bLPfOm9l77zvOeee95zz906lPzm138Iw+ics8943esu+fjHPrps6eorv/rzF7/orPOe/UwAGB5Kvv2tb3/sY59rthrHH/+Ud7/rlQCwcXPzf/7nVx/+8GWl8sJqNVn+yKYZ/TM3btwGIM1mk4jiJN6yZfNxxx104MH7aAAL8MBDq/7wh79c++3vhmGF2XFSCSFwKQsLl0rF6sjaF77kpX390751zbeNcWsnAzqlKRAhIDuG9qtTEPxk1t/sTBxE2tLfGW5rPIArM1Nt+0mlcCSiYI+FC5XSw9sGt25Z2t0zf3Bwa6FQ1OGsRfcvWblq3bTenunT+gHoGWedftSRc5/5zOMB4L77l86YNeOgA055+tNOshZ+8fP/QZz2lre8/AMfeH1i+cYbby2VCi84/+nnnvP0rQNbrr/+Lwv3nHnWM4454aRDn3HmU485am8A+PRn8PgTjn7FK86/f/HykerwwOCWk0889pij9581b+6F5z/v5FOP3H//hQC20hWe/4LnVorB0qWLCyV7xlnH7bv3/G9/b8Ytt645/oRzvnn1Z2bPLq9ctfahpffss99+l7zqvKef/fTnP2fVXbffvOc+55759BPPfPqJALBi9bp6a+T4Y/Y/8Zj94xb85wc+jKi+etVlJ5y0pwAsfnh5f3/p2KNPQYB77131j3/8TNH0xJoMtMXC5FDWKdQC22a50i5LYibLBdla3jZwSaNuZj2YrgSpuE7qC4dtOXmPHPGtr/T3mFJB4TYVOkvT2UuiigigNax1aeOmwQ9/8OOFUqXZqLJIVIysia21Dz20ROLh7v79Wi0jHF977Q8feHD5woULtKZbb7tz9aoVhx9+SGzsyhXrBOSNb3hfuawX3f9QEPVbDhq12qc/dcV13/vV/ffdGQQLGjX5zKe+/Je/3L5wwYIkad51932jI9X99tt369ZNhWLvyhUbXvKSN+ugfM99D0XR7IGB4Uvf88Gf/uxX83ffQ6TQajaHhrYte2Tltq1bSPW/8fX/MX/hbvfdfR+IMYYDXVyyeNlFL3rd3vvs3d3VWyiExrYGBrbectM/kbBcmW3TUjK25ZImFE3K0QfSjRRlb/aFZoer9eb2qbPpjutJ4AtZknE629n2hKE3tc7NmZsSAFZrtXK5iIqu+spXf/6znwxs3QgSB1EXAFjDQRDVao3Va7esW/f3tWvqa1evHqnWdFCwoteuWf+Sl/xHo17bsnlAh7PWrt/w+te/40c/eCohWttz0833bBvc+vrX/IexODrSCsOyWE9/L5Rnbx0cvujFL3/2c579mU984L5771654t5iNB2hsHHjlne/6+OFgl63bnNY7G/FTeV86EAAoNVqKd23dv2qN7zm7Ucee8L83eeGWg+NbLv5phtHhzf19i+ICvoLX/jqj3/8s02bBkvFeXffveSlL3v3wJb1tWocFQBV5e677n3Na9+TJMnKFSuUKgcBvPNd//W7311fKRdio++5azFAxRgLmG6pvJ0wZVVnTBcy1wgWTF1Q0rKE50a2jU58mJS28YkgYhiqVqteLBVHhuHqK3/9+je88qYb7ln+4JpCcXebEIgGcmjr9lhPQHZoa1SDCBBhzrLT6YVYhwMTrq1YdffWzSwMzgfJrxOp0H0YRZs2bXr++W9Mkvieu+8olCrVWowAwASq+wufv/r3f7zetExY7L322qvCQviO/7h8xSMPV7qna7LHH3/oJa+64PSnnfTJT/a88pKXPevsp/3gR7/74fd/UCz1F4vlvr7ie9/7xmOP3v/4E0757a//ftHQWzdv2qZVReug2Wwm3FQKvv61b/7zn7ceevj+xjStoc2bhgYGBpYvX6P09G9+/XNJq3H55V+/5cb7Zu+2EGH4sMMOv/ilF5533lk/vO4HV3/9i4sXr9199wXMvGzZ0rvvvLdYqpz5jGcNDQ6Rmr5p4/q3v/Vdv/rlLytdESm87577AftuveWfr3j5g8ccc8yMGXOJ1NaBrdf/7W9sW4Vi38hI7T8/8NkZM2Y99OAiorlxnGgdLbr//je84V27z5/T21cOCxpFr1qx6u47by+WdhNPHiMWIAlFUAAVKVKIiteuXz6waS2weDEjZEQNqb5+x+KRZsA8ge93u2tE3pwjU0rNexOP27JLm40u+T+ZWQdq7rx5iFCtWcQWKU3EbIWT1tDWoeHhmBTNmzcPQBY/eO+hh866+eb7P/GJy1euWLVgwfyP/Pelxxx70Esvfv6Pf/SlM8944RvfeNHWLdVL3//JP/zpp2EYfuYzn3rWs8748Efee/1Jf6zWR5PEVErR9JkzP/Xpq+9ftPK2m++4/97i4gdfsmXL2tHRUWPqF1x40Qfe96bnnHNyGHQ959kXvOHNl7zjLa95cMny1736dbNnHXDPPXcEVNq4YWCPBbslTQsA73n322fNKt10431veeulq1avWrBgwac/9Z8nn3bs+973vvOfd9rI0KAx5r4HH/78566+9fbbNQ1f+t6PnH/+2Re99EWfvezze+61z9HH77lpS+3cZ794cGhtV7l3xozdS6W+W2+8S1GP8dGX2tiNtlRK6oqW000Ys7y6oiVDJ3VRxiXBrv/owBftDNahA1KHK0TlG7ttLSwveJ0xsADaYvBM6WUQktNkV0mcPLjofgCVUiw0gAUKo0IpqkyzJmHLUaHEWu6649a77vgnAAN0B2Hx7jvvBlBBVASAe+++A6BF1B2VKoaTsNC3YvnKFcsfJlUuFspKhQj6jttuueO26wEMQB8puvWWfwDoru4+a+u333onQFiIphFhuTQ9NsXbb7n99ltuBFAAAYACDHUQRFFl+SMrlj+yGFUlCErGJFoTUWFgYGTzphsADEACYAGKxeJMVGSSBIj8oGzveUlFs9HLXDmJQs8bB0Qi93ACuDVx+9vfyQJx2mjMx+AJ3ucGKDNQA+ecAQBBoE1idBitXrVu5bIHABSABQjbHlxAQaE8vC3+25//BoBhsaxIURTGsbn5xusBQOsyaluuTK9Xh3/xk+8DAEARaLpSwV133AgQFkp9hNqXbZjDom7VWyuHN/f1z9JKLVmy1tpmsVypVpts5K47bwVoKuq3sVUuiggJOQQJx0mjUOm1SeOu2/55120GwAAQUbHcNbteawZBce2azatWLgeo9Pb01Ov16//yJwApFruNiRGUYbztlhsAMAx7iFBrbTn+7a9/CtACKAOUw7DXsnGCKOIx9GnS4TUJhL0Iu9Mv8z4MzmlYUkYZ5qZG2gdOk2m/DEoQBCaRcveed/3j3uGLB85+7kFfvHdJ2NWdiCRxTKC8EeikNPOOqeKQ0mkPEZmdM72IMBIpBb//6a8AKCgcxS5rc61Gz/MUIt1s1m696e8AQVgoImiFBICCOgyj6mjt9hvvAWg+4+xzjzrisFYcf+6yd2Y7vr/89eBLXnXhuo0bd5u3x9FHH04kn//CFbfc+JvsQt/49leVGoX58/e6Pr7lb3/9B4AuRNMV6URiECyEXVFUeGjx4ocW3wVgABRABEBB2Lf3XgtOO/WYpctXf+C97wFoOYTiIYed9rJXvFiHQbEIivpuuuEugH8CWIBCodCftJJf/Ow6N8RhqdhqVn//218CWAAAiAqF/nJ5frMx8rfr/5S5goZhX6nY1Wg0te5e8tDDSx66X6lKGJTZMhFFUXnt6vVrVy9N3c0VQFAqzQPUAuQ9GdHRLhAEdRC0WlUV9dzw118AtMLi/qSiQAdslVhEQu8DNi5pzWhInSVoSfFaQqk1ud/VdXgxjMuAJTNGy23SnX4WIpZKRQAwiYhYay2iKKVbLWg1OPSuWwJgw4ACpR9Ztvz3v/sOwsyHHrpnrz32PuroA7q6AoDegw5Y0NfX/eUvXfv1r3/e+Ye/99IPnnzKSccfeyAixc1mEOjFS1decN7FDzywHqROatrQtq0b1jloQC9A49ab7kYBArZMjyx7+PZb7xXAWjW59eZ/BnpjYup77b0/MAeBNsYAFObvPgsAvnLVtXfeeUsUTbvzjpuv/c6vTjvtuL33mgdAJjFa67XrNv34hz9v1BsAW6/7/i9PO/3k2TN7lbKV7mIrbkZB0Nfb/9BD9y4bvgeAAQoa9wvDsrUmy4BSnZI88tLha3jC7gDmpSLbQ5M27qH9n5LnQWWplkBaRBWndZeGfgYWYEYBznMfsuc/w/JR6tHt6t+soiCgqJL1I4UBKUAAFhu3EhHROmADhLrSPZtQA7gtGESFLgBmawQkimYhomXLlhUGiNDV1QeIItYaYZOQjrq7ZiERILC1AkLYL8AmicOgWCx0i4i1wMycNJVS3d3zXbwTt5v0CHbT1dWPpNl68jEAkgpKYS9SLxKjdzgQa9l6DT9kseSfukmfl8x5ULyjF/pdDmJa6Ezdlh+zsfaOArUPwIh5B1MGEB1oMQJiC1GXqnS7vbSD3RESCwhbkxhVLBACEAoLCxNQoVCkYg8DCyciYhIbBOVScS8AAlEmYRCgwu4AkCQJYruvHTeTZn1o3/0Oe/0lF61bv/WBB9cA9AJoBFJa9RTmCGOSNAEFHTAlpegBEmltTKJUVO6Z7ZjpDCJW2FoiZa0UCyXE6SI2iZtRISgW51gRa1oKFSKjokKhSwStNSBgrSUsdHUvRASxxELMNqPngBejdAQCzAJwut7l/xdyi6B0bJA7QfLOR5mIJPV5U9AN0POrn/3gnAuPmrvv/C2rbRgqL9iPlFqQTWkvlhnIe2GsVDcagOKWfeErXrZtAP7021ujcm+SJESU7fAFgFAVir1K9YkAMzOzm8BuNhSL5SDoGRna1mhIKzHM9jOf/c5NN9/VbI7MnjXt+c9/plIYKti4/qFAB8z8n+//wE9/esimzZsqle6nnX5Cb6lcKEZ33vkgYXdPd5dla4xYNogUBVGSJADc3T3L+QkCADMIq1YzGR1tAMCM/p6vXv29P/z+hiRpzJ8/62lnnlEp4NpVK1eu2QRY6e+fy9bvkqw1YQCK+hhskjRBqFDsqlS63APAlqy1nEgh6iuVpoPXxmeT2DjmIIhAoFzsIwUsxpNZUAtSpXsaQn+aiyAwihBbl7aQXyqJBQgAEmOUUnF95JnnXjytf9ZPfvRTy9aYxBoWYbLOUpyRZMxMmbwEnTPhcJu8Nl08lYPuCOdpGa1tdJwuMa5yyczV0VEACCP0oi7+16hY7CmVAgAYrY4AcFSMBKFYLCo9u6s4c7g6sGzZKiJCKRAUC2Vm5uNOOPrqq78ZhgooCQphGCCREVKGCQCqo9UHFi3u7Vuog2lD27ZVuirve9/XjjnqoFJ3iVRx9vTpvb1dDBiGhaRV7urqQhCtlFK7zZkzd2hoa6bxxWIBVLMFALBkyWKicqnUnSSw/JEVAKA1AHQ5inAhKk7r361RrjabpTVrNgwNDc2d1VMoTL/1pjsqpQKU4LvXXblq1SOjI6OrVw58+Yqrb7vt5mKwILVr5VRrzHlsOs6hCKXZS6cFfLotz2hI4s1wxgVqgXEBGNo/S15gUrJontMZlTZrLbdAAbSRJso3voRBkJlccANESH3F0S3hEAA6/hiwMJsYwLZh9qZ9JcZ4mWskYGAQNDZJ+TSCipgNC4AJwAuhoAUGAcSQ2TIbR9JAQufSxgl3CEv52R4YI2lrVDKbZ2vIF9jFpl11BUK+bI9pQNvO8+J2LuBICphfqR3JmjNZdSJH/noUR5sHn9e0bPefxzyZ2bMGRE5lxSKCIDGDJACSZnKOIp9ZFjILArBCJBQUILZohVOjAEBUbDi22K7ZALobjqBQSAAATbqPxIMO3n/G9K7b71h6952LwrDUasWIWgRM4uKIQhHGbAvps1BEBNRs2bCA5NVrnISqsQJiWoiiVOI8LpgVgBKwACTsWIJOrlkQFAtynN2qBBGJSBgYGIkEneIugSfYC2Tyfx2a6akQb+qjPXkxIlsPnTARI6iu3j1uuumeZ1/4lIMP3u8PDy9VerpSakc7MxlfBkvr4yIZc1+cLxNp6i4VdhuIN7NNOlYPVFmdXcT7MAIgopK2eAFYTiSJAdRtN//517+++aILTnnXOy6qNV80PBzPmVVAgLUbRj93+ZXV0a1//NMN55571tnPPP7sZx6/YVOju7tYLgIAvOfSzy1atKgUTW+ZGggQhuw2wH6DqpI43d2jFXS9dbV27fqvfv03r331s17zyvMueslzk8T0lkMA2DJYu+zTV2zZsLnSNT9uNX31IV2OrDGA4sZRBGPLueaPBgRrwdpEPBrV1fnd04eG6yi+RpUhYWwmIwEqNRhKw4KHkSeABiQADFFA61CsAoyMFR2EJABC1i1kbkuHJMDuPNnzqcc6vLd/lJRJ6jeFOQEGZ5fb4dvld/fSYUfo9n1ugNnawaEhAagUCaQETCJGBJkbfb0RUcQsjXoNoOlUFS2DNdYkLAKaAgAoFgqVSoUQkeiYow845ugD8nOxWgewKggiANA6INWDELBtmaT+nkvf8Z7/eDUA3HXfkjvvvnNZVHn2OU+vVEpEITNby246WFsdHalVa9VptseJCFkbR1GlWAgQUSliblljmZuuAGitBugGCFy2Zy02GsbEo8BJoEkArdXV6panPf2S17/uxaef8ZQjDz8YAOBkOPKow971H//9xz/8ubt7XmKSFJ/DXkTW/3/qjyYZqz/bt+atH7005nbEiTMDSu8lTqmbMHY0FPxMzsmMclrrhAyjPXEkQHFePZiKJrqgJYCkHSPK6Yn4cgpkPqZ5yWOaaIXxgiCAgh6QzyjswTKZ4IjPQNx9cBsYBmJgRErF1GSMsmnK8MnuhQO2uvwKVHtz0N6CZropst3nBQFtGxXVkQH7O5xbZBHbiLedSIgxk+xO25P54e7sII791oi+3gFCSIhCzAgISAyALEIkmcSM56SCJxOmtgGOuWqYEUSnZ+Y26xy9WQkhshARRoViEttFi5af/ay3rF65asP65YViT2Zh7TzLXZU0096THB5BENDt80DlyJHCjEjsUihEC2TQ210zCHrGV2ZPws51za2JCkTc10JvWOO6tW2ZUcxa/ggCPC4DTu0Gsc2Nn6yN4PZb2dBbY3QUJFthdBiCkAAGEPuQArbMnMkJTPoo56cBpyJ9KGnL2RneIJIKr/3md6yNgKI4jp0ZMHYI92Nu9qKHgXjRB4tkRZi0ajbx7W/98Ne+Mufoow+cOXN6GFaGBrfef98D99133+q1g719B3732h88eP+DBx9ywIIFC2bOmLNl6+YHH3ho6dKlt922OAp7lQb20roGhdBJLGVPZSoP4pYRIiwWyu9+10d+8IMfHHHEwTNmdYeFaNvA4Mrla++6e9HiB5cFQZ8wojBixvzwagSADG06pvbbbkypt6kNLiKjACCn3rI+mUGHKgcFyMLk7TfAm1ylpnNO5y7FwaBx6YcIJzGrqOcPv/6tAJcqvUTKGAAgwvZ2GGHM4++VzGCi7bz7DJMJrwi2PcFdUpV3jHaKOgDE7G3A0yo0e+1iRbffdgfIRf3TZsxfcMi6tau7e2ZGYVSt1g85cv+5C2cT4YaNg17TB0AHgtgq90l1Qz0oAQCMNmrV+maWBESu/e4vLr/8ymazRaSsaeioIhIAQCFSvuhtka2qjQwdcNCBzzv3HAC4+OK3/Oa319Vq8aFHHH3yaU/pqpQq5b7hbVsRInHUSIyDQgGqoEgp5c5WjONqK4lFpNLVjRhFkcaq7enpERGCBGBYkXaJDxAwsIUwKvUEgUIE4aRYnHn99dffd98dlUqhXCkddOAB//2h9x100PzTT3/a73/3Q6UWxsbDkcW5yQGKWAEBYWEWUYDC2OGBIE5VDBx5F9pr+eRksuwdmTdiZ0wlyKqF7BTgBQSIGXIEp048fIYIA8lAI36eqZQNCSBGAAEMoBONyfYCCGNSP8wsBNrWyZl7LQAIpAKlmRaukyPIWT6l6lHkabjtbYwA2sl57ZgTQrGdIpEIuRaqC1OTpL/uebHpjl4m6t1lKSvnGzQwEZxiShkw+7MBj8+AJXeRbSRt+mlZFZ3Zr2WuOOmeWRQRv76lj3+m2eT3I2i9Erlqb8wzzWqvEiECwC68xY0kCAqrVq1fumQFoESFHkGVWEaPNlYozqYpMzEVhdxxqzNODuacvxT67FMZAbasUwQEAyK2I5l0inq2hxi9HlkGkgMrnG6nMq97Jgc0dlsWxhR27G8IO4VtnFQ2IX0+2K2KibE6CABgeAD32GNvCm8BjAkLdgfWODJengExV+dAyXYtRCaOt+y1b3erXly7okpUyjUgucN/um0ao9JdFAoyMjoxX6V6t27Z+o8Nq//x11uIlFJoDAggSLNU7k8SNFZuvuX+2+9aKixaYZIY5iYAhmGfUspw7Gt07vlCZznhn18309wsdtsmJBit1a//yy033ni3iWtIyhoXhlRQ6CLUhoFIRAyOL0F1cjR8/849s/lFw2ltK+pYVAVdZ8NVOCxnPRzjUasOdC4Z45tRXMnGirDWulEfmbtgeqFQXrVqPUikVIgY5sE96Pw12tVJTyKePABnVUpuAy3ZD3L6lEv60Kf8lQwhQkTMDIDOnfiuu+4GxAMO2POd737bW9/4glo92Da4rVSpvOgl582a1n3rncsGtg4BhG4KDG7bIlLdtOHBcnn2C194AQA0G6PMtdGqQsQDDzx860B9zZpbAEoACUAEYAH6Gq26eESgtSzG1rorBaJCK5EVq1ZtGxwAwFptGJBFZNu2bQCUGAe9IJHW0LZ1bJuAyhgrIlprkRpIgohnn/OsP/35d1sG1gDYCy58LiJu3pIAjISFsoiT9DMgRlhA2DCISLEEjXUbAYKBLZsHtjBA44H7HzjlpFP23f+C/j7tPaYEGfIi/NjeYpOzVUBByOdcPnvxKVw7PabJwTztAJyzKCZ2RstZ5ttuJXiyvt9rtSe2jC1vk5PI9VfhmJLs9rgW231m9r7Qzm8xM15sax1nV5nLO1P/+NSOL2uychqtPbujMzlAvwno+BtpGxhPKrmc5XD5oJXVDhiBsKO5N+Hz4osU4y0rOgOwZN84V0V8fEvQMi72AGaE4nbKBiLsFyj2dBZmFGHqiF6Q9tHTXCITnBhTP8urcfkA7mYTIyIRlipFABQGX+l18RrZpSeMXoXV6ZKPa6uOyRXc28j39QBAlLuGdJ/JnXdAcm7WqQlYbrvkx5sFKBWshPQCXeGpsxTt1SIzW2zaYQD248IsIgRQXrF009777F/p62qOxoltEinE7VShZexT3sZEe5+2FObMAAY4fvHFL1q3qvnNq76nlHaaM16vNA8HyjbXzonOtcHAF2SdfmCxWAIosbWCIMKRRoXE0M2WASDQ5TCogIAoEZEoQqV6FClrhdmKsJCDbbp6gftgV2piz5z0bD0BYGYbFQqERWs5jApAEERAQqCALTMzEmYkjwmqfClvMjfgnD6e6VPZRhVnEkiO8sXi0mBPKiOH5JK0aOdodU7M1StsCCKCMUZrAmmc8Yyz5s/b64tfuGp0pIakIHXVyKp5Wf0uDcAdc29MSQ3be0aUbHUUEVKEjB32WNhRFoN2ru1mm+gw3Lhp42c+/613vO3lr3vDc848Y9nNN98dFYLjjj9i/ryZCPClL161csVqgBIKEsBzn3vetm0jRMGxx5x48kmHAcADD2wGMDffdOdddy0/6sg9//yXn952211r163u75t26GHH/POfN7/7P95V7i6gR5w2EONiYfqmjdW1a9btt++MS9/7jp8dcMDcuTNe/sqLZ86cgQCveOVLrvjS5x9Z8ZBF3Hf/va/78R9CHf32t7/52Y9/pZR2vQIA+OnPf3H4EQe99S0vmjuv76abbz7u2GNe+IKzRuvmJz/9FUBAqDClxotYkASg6YAMxtZ6+/seeui2xQ+uXb9hfZw05syec9opRyPiytWPANQEBNCmjSbJlYV8AcyJC6Y0pLbcfFZjxBTvBp2C7mPrVpKzLMplaJhftPNRMCt+p1eEY9fAdhzCjGGa90oSSX3JM21vN0FUrhcLE+reAzhys39iXAPRn1zSy5Px1n3tENOGJWdffqzkPXT+LG0A8wSJoy+bpyXo7T8vE2+Cxg4ddmQwj60EjdstQU+UiPs/3L7erdvWTWPXp2+TjNMhljbJBlI9gY4SWK6xIZ0LY3tr57it4GVPncM8tEMm+72OR0NAbpQxD0DIR3tfPMwaMfnbnRuSzn9oj69ry7WHtKO/L22vVZaOI9v7uMJRWpqflMqd1X7TUXOdV0qMKRYLhWJUG7LkH3nizDVhoke5Y97mXCwxu40Yuw1BGM657GM/sa2WDrqYEyeqB4Bjl+j8IyH5sWwn105OEghJBEgJC7OVdoHIR3RnHycizMBs2lWybDJKtpBk+4B0ew25FcTdAmxXhhgYTJslhkiQl45rq55ju26G7bpPu6PSrqF1JBKphAKmhTrBnIi/r8qztNMEN3+9YCkHOmAG0rO/f+1fEP9hYh2GfQAO3IfCGoEBEsi28G0lrLEZcH6bIPkB6XjQ/PaP2xvEtlFRzsU0Fd9i5iDQjZFtH/6vT5ZKpde8/Ll7LJy73967M4Cxho15+6VXfO+7Pw+CMI594jNjRvd/vPONgEojG5t877s3vfe97+vvP/LOO2/6/Oev+eKX/nPvvWfsPv8sY6UQMhGxDYBCkChOjMQGoJTEHOrSylUP/PY3/3jqUw8688wTzzzzZAQeqcu2rY1pPdHHPvaOK770pfvuWrT4ofV77zPrnGedXi6otWuWff87vwxUmCQ2SRRA5TOf+vTeex/4koufd/55Zz3/ec+ILSZJ8q1v/fLKL38KYDZbmySGBFVUCaM6g+iwIgknibGGy8WeQqFy8lMPTeyhbn0n5F/9+u+f/ORngmC3OI5dw8ZDONJJ4NMIT752eWRG0h0bRhDbyKJ8otuZXOYmf2fmkv4GZqPtSzj5B3uKIaEjFKYGyG2cxFTOiJ0b2jzNJm0bZ54QE4ChMtXcjh3CdhVVsdPtOF/iw3FfcfsZMOzwi01+954wRLSMv9rUV9HTkcnnwWmSlnbXxjzy7XCWgQI634YTbEQ63owd3zbrwqe/4tSpPfzAZXs7yIClbc6G2GFWnYq7dm6BsHNr1QZCdOyiZMJPxAkz4DFP2RTHN+WCMwIgEVsWga7uSr3e2NFWDMdlwNK+YFcfcgVKZCQbJw2tSySRsaIIWQTH7JDGwAX8Zi7/3bNiNWYwFUlzwpzObadiJqQG6plEULtK1LG7TcEsme9LRwGg42agQ+S1zf3G3fmOwkt7X5t7P44f2o5iPnoD1vFrqt/yempDyjMTAGKGQjFqNuukwNim2BpSIUm4UCxYw8xALhvJ4Ai5baQeD3uBCb6cjNnNtSEI/ouqNo6mA4rg2GaKWYQpKkyPW/bNr/vAB9736ZNOOHa3ebMF7Ib1W26/7d7NGzeVu/ojjYPxkOuz/enPt332si8cdtiRGzdsvu22ex9++N4w7GarKqXdvve97//xj3845dSnzJs3a6S6bcXKtRvXN1Ys36ik50+/ufW4ey4aHWog9GtVasTVKNzt8s997q/X/+2UU57SbFWXLl3697/fZE3r3Oe9rK9vGkClWm0ccejJF7zwRT29fdXR+t133Fmr8ytf9eH+3hn3LboXYHag5LWvfutHP/zF0049dcasGevWrb/99juWr1gTFebFLbjhhnue/ozXrlm9bmjrsFJlEn37LUsuuPA9odYDW6Fe23rA/mfsuWDPffbdu9JVGRraetfttz245M5ScTdSoWWXRxCmCUWqhmV9LcivCJ5SyOipbTgua8MxG+POQcRxEw2g7TQIuegG4lXhrexE9M0tcRk2Ki0y0ZgQPS6NmdpCkzszTuzaOvHs3f7S2K7EduZGTyxB6F96uN4eZppZdkwPMZectTF5Y8PABDsMnOQ2TzIuONFfYJpk+ivFTIo8v0bvaFeDE43yFOcAduQYWZsjywDlCRmSLHdkAU1KrEVUjUY9a9tNdUOWXXPW9RANQkgC2GyaVR/62Os2rNZf+8IPo8JMEZtirDBn2ka+9ubJwZSVFXJD4MDbgllqim6RHjO6LjoxYK7glKufdT74eblNyXdhOr875/6yo1MzlVuU7ia3X9XHFKWMAAKOgkgCnN5S5/zuv67nGaIIoAW0ACFK1Kg3MUhMY81r3nzJ/N33/MTHL49bSquScfkkGnSNMyagjgmp25n7xHNtQgZqTqsBsnV6DKg1V6xyEnoOZA46LIS10fg3v/59pkQdhJUZ0xYMDg1SwZEHRASWLHn4T3/8yT/+fnMScxCUQt2vKaxWa1EY9nT1jw43fvzDX7E0ARKAIkCoVLeiYP36DevXrwcIK+VeYRuGkTWtQtjzwP0P3XPP7QBNgJBURanyL392LYAOCzO6u2cODAxcd+2PnWZYWCgVS30PPngHQJEgKhf6AWNMChvWD137nR8JJAAqUFEYlIUhDNXAlm2bNv4TIAAgUkEQRErxffc8ANJEDAM9bcP6LRvWb7nx5luctoOCcndpT0FstawOVLr5V4LsgCveSl2wXQ3O9KtkovggGScYXRetDezNNo65TCHLbTt6utjmp0mu8rejJVDGZQCd5ZOx3oU4haCYn3gy7szS0ct5zEvhuExXnlTRtz0Qk3pKTrgw4fgU+PENRzlsMkD+Z+m0cXpCj+3PsSco+gJ4JeZUn98ReP3uY4cE8cmvOXukUwcVBPz2t77VGOlXuj8IwiSpASrIjO0ygqH3PpNMNg/aCgGQ0diyBlmar4qMg0vgxKoy3oNgArAR4FhZt0lm4hgH0CncqOyX82DHSRexthOkdHZSUNpqrmP7XA6hQyxcKBQSNkjqd7/7vdJhM65r6qo3qyglcvY67foQdLohjS2pcdYeb/+NbCc8c8dCJtKpLO22dF7cAYiVoIiEQVQu9JjEElHLcBAGw9UWUaQ0AgBoxWx7e/oQe3t7ZyQxG8Moql5vFovlxJqhkVqhWJg2bXqj0TKGu3q7RkdHokhbNqYaFEvluBkrZUZqw1EUktIAACTFrllRqOMkZsvGcFScS0qbJBkZHQpCXan0a4pacbNWr7GVSqUPQLRW1hrLpIJIIRZVJYoiFGq2mq04dq5lQVAMC2VvVAiSmBiAe/t7SbDRqBqTVCpdzAyIgdaaVJIkzUYLEMNCwYnYMLAHnmZoT8wFmGzmYcYQGDPL0nZa1sNyjH5gEPaycx5kQ5KaKVNnAxg68wjccZCUCejj2T64DWaezHB+KkFxbEEJEFIwM+YwXI8lZE49V/7/OQB7LgM8hnF5vAsDY6UqMrBMquvyhIfeyecY2DYKGp+YT5dsJ8ToCS2SSdLmBOHHXzZNcs0Z8E0AEhfTNUxb9eBW5jpAoRWjImIBFPLVNY9EIoHUiBq5c6wzN1MYGyM7+pg7nBy4nd1UByEKduIUU+7aYKqqPeH7uS0cm2MG+n+aoN/EOcymEiFEROLEtIiCsDh3/dqYUMD2itIihGBEAhQvDABsPbgNHOCcNHSAStpLfke/JGM+jZ0PeSxMyoBkSFE8nA1canOHLEhIiTHNRrVQKFjmJGkFodIa4tgChQAabEEpFUW9REW2WKs2C1HFGKt1SCpEhmIxjOO4CUZRwZIZ2jaKyjSaLUIMQmq26oBQayaB1pYtixCBUoE1MNpqMlu3darX60oppxSoVFivNQAabC2zCbWOTWySVqWrSwCsYUItArFJ4jgJgwhJpUg7tiaxCWhNWhN4hRFsNuruhioVGGsVKa2VsDSSliSMWimlTJIoHYgIkiPhkKdPQKaWkkv4cvMAJzKiTUXfxae4DsHpicIZLKkNTMIOAMqjWGY6Gj4dy5pA5huRLjQ7tXbnq+kyyZnhUZ35f/OQ/80Pxg6y1qMZF3niCrKdQ/+vuU/bnWNtY8EnaGpJanfGkLXAkdsj5ZCy27s/MvmwtDdZzMFzL3zF5g3DN1x/S6i7jGF0n+hL1lmlCnNdXGnnfP//PFyPx0zIqxJtfx2TrI6YyRE6sHNrdPikU07v7p725z/9FQGINHh9snSDhThmHHUWKTupGtBRXRCZuOKH0r4sGWOOJmPkOFyu59CPSimlwXIMCIUiGlMHAKUdPyz64XW/SOLab37zD2uTRtOqoGhYgLRSkCTGSbcEOjCSgDWAEARgAQWJgUFAEznKCzACp+QYBz9ArTWxx477nggAWGZEYRGliSRARELSpJstJhRFnjKktEZEYxMxLJ4+jUphgJS2SSwiEmpI4e1O2w0ETWydg4poUIjATIrYGTV7kmna3ve0XxJyibEzYqFsUGhMBzXVxHJ1LXZcOhBHrEcB1Var9DYM7ZI0dkLtdnricsdy4NEWlEke5iYcPoZHom3Jl+4cJQet+r++RkgqPgnyL47Ckm6FO1hsj2pc8t2lJ6JKL6lIL/9LBnRHc0zw0T4XUzwovZ2cq0xm/maTE9YnvWYEJiAGJhAtKIjW2gTFFiJNKkAKQBjAAnEu+8/D1nJR4P+fh+txmgncoSXgi4nbWccklRD2nNtms16qFFQApbIEGpTSrirJLIImbZLnUfKcBmCQzppDNjVzvElhIO4E7YCPGRn3EbO8hFN4KjnOcKp/6wxG0oq/uICE7O03UZjjVqx06brrvnnddVcClLWeyQJaaWsEiCXXFhX3WwjiJAMl1QrwMj3MgAiiyKeAgohCTucHAb1rCGYubynZNKdgIAJE5FU4sY1kT6ldkqHBXdzNWjiZDZTX8smkDh3PTNoj4aXjMhULZ1aDyukgIpDLz1OxufZaBZ3yzFmLRrDtm4EgKIzevyVnyp5l1exMg22OTbuTizvsUDMPx/3NYzkzPrYz/y894pjS+HdcNJPH9XuNr1I86ru3HbjT47gU/suGcrtzzMl4u0AlT9w3TRMjT+PkNAQS4GQbEdmuQwPn/0JECqWun1x3DUATYB9jEDFkbIJYIC+nKujxsyL5pWVMlpZvoorszCZyKp3aHfWAH/2Zc58A2+0B+9UevPYuTvR04JhFN6VusuPNh2ExjusQ1v/42/8B6NXRQqV0EIatVku8x10+k8YcCnrSZgN3dIXdb3LnjBwD13HbqIyp6cUUgNnB8hxtzt0SzORpM40GcPXyQoHimeWusm1xYhKxYNh4m3hAdgzo/D3wQnHgSP0ZOiC99yxONBMp5TA6mJ9kOIR8+z3PzmQBcsXcFLHEHnjGAkJIkPN9wpzOQn4+tXHNKJngM6QMaSdmRJhjS2JWbyDPQqJ2HT9fT4RxiKZxc8RVupBJOY49ZmaD3mlhTH1yp54B3MHiMnaBw8fjzJBOy0d35v+dw2v9sEwhAOO4BtCUVpcd3THoTIL/z969f3EJepK/90pYuBNV6NyKM4XfyEu+CIBNlwlsI2l2wAMeP4KS6wF7ewaTwIy5hxx28CGL7nt4YEs90NNQGkAOkQsimryQTuY6zJMhQHYWfjz1N0+xBzzZL463Hhj76HkU9BTbzNkPE65juYDoxG6RRTSCFjCcxH2zwhPOPfu2G9ZsWtuKugqNRsNjlb29VV5/V2UBeLKRxg6MhJM+QPZssDGrvi9BU+fvZUj37BZnYqRtiYWMoyUIgdKAmLAVFis2SyiJnOaII92Tr9i6tidLW04/M5ZIMQKYKQh2ULPHKUp0IuAzF+PUUyyb4ZIhH3JiRghtv3ScmPKXuaG3fenGYO47nyhf3yBhSIXS2O8b2ik6To0ymPJx8/oXkg5oBoiVx2uzL09Ybjqex/n/xyFeG7kt5fi43T2B7WYPk+V5Tzqk9+M7x1IN6A4ljx0s3il5AadSRZecaoJLeVOhJV8eI+nUpExDyITTIyd3kWbVwqCUSmqtUPWd+NRTtm4bGdj6sA5snFhxIR8AgdLGFku7utmJ9e3U2fg/mAF3LqRj789EKGgZW3tPqToAE1r8TahsxOn66ZrASRAUxVTKxb5Tn3rOfbd/F2AwiZM4NoVChGk9Nofeaq/5eipfNqXsERADABKKa120ry/VmvcSg2NvFqTkpXQ8uCMAZx53IiASlYqtVuKpr45QiiSclVczIFLmb+yE4jI0WUrVyuYkphaYOHG6n46TnYCOhvmJQulZhdlmjL1M5Xz8Tg7Ha0d1nnYivodXD0cUARYkEQJGEGoTNj3QeYqrQ+7DYZxylB++XDdhx8+C7ChPHf/zYz/+L+VtEylOjOWuZEPMzmiWU+kn2e55c52nHX5N7BQUlDFLxmSblV3RdypzDCaVaZvAdwz9wIlMudGQa/x553XqXCRx3Eoy4fTIUwYx7ZKJtTYslDdv2nbll68aHNzAcTwam6gYMVsFyrtbiU3jnx0j3pDvdDmK41Qque1v6KMjpMnfpIuHtziYsh/JmDNL2hVMudXS/pvUzzz7iNwVjP2aIq7oOPkOA8eya0EQWAEIKqmNbhMeWbUUPvmRb9RqQjqyVqKokBtN6VRF8AOnx12WTDJd3AaNPKY5a+umWvXO7UY8uEAEJhutzOc675GXMVQFAdh6OWxhERRCYmGnECuQp7FJ6q+Zbj+BUyEbVzseU5PGHHUtf0GQFoa3txHLBLWhbQGU7d1YZMJb1+bcTnFdl/xGQVAECJSvE3mdaBYZC1vPvAWz/5WO8RyHnIT8htZZO2RD5uTVMs/DThlhaM/ubHM85Q3sDtmN8NhO8hhPPoXSYbbAtuso41jOyF7Muo0yBUT/4Ah3iH6kS8OYtW/M9UxsMukIpG0KY1rMaOuzSzZoO4gKuRVKtqsHIJOvEo/9kEn+/F862sa5mexwJljHHWqG+X8VZxAr2zsrZCuTdwJNcynM+Ua2JZ477S+3Oz3S6JsmdUEYlgc2r58+s/KsZ5/9+9/9eWBzvVyeFrdYGIBizGjAHee3OaBnFtTT3CH/c+4bjXlGIAWGAuSnt4+LYxRC/YKWPlMIk6IVM+ekVB4V2XknuOAEKeAi96ky9iLbeuDoLV5ShVRvkEo4VmM15x0jmfGaCCtErXXUSqrz9lCnPv206/9w/9qV9bBQQfCI3QwjLTJWwNCXoDtLoDIRcCNL0n3ySYLCjKiUUszOadKlpxbBsgCSk53G8bEnrcUjsyB5bRDn8uSDuJfZR69E56+d0y+RMmHJK7yn7ivSRi16m8vc3AZpr0Tj1XFxJ8Jktr3Kv1lkAnef9J/8rocImaVtUD7RwYxELAKu4CwpR1BYFCmQhHOqze0TZpoGrpeOqbINiu+X41iTJPFiLlm9PfWBY0RkFCdexl7jGnOicZmWMOZqPFNt4UxIZdlZ6M3U+TA7i+Tc/pn9wplDw+X91HKARCFMFx8ESqV2LRGmNlPUdjRoCwFmn55PcWASnRDf0/J67IggoIiEEYCQQExmMYDbUyhuPwJu7Gm7lM4nFPX2f0wRxbkUMrr6BSEwC7NFYmZWVATWgl62OqsPtz1Ct3fljG0lWEr7Y9Kug3qZpWwBEUAgB0nB8RmwjKOopt1lAaV0oCMEVa6U+2dWwmLLxitH4lahMA8EdZgIJ9YqrZ1dbqKURiBjgJQlBdYQsFKaE5ugSBAGJhFGE4YkgkkMWikgZraEipS2iRE0ShEzMYsOWIStBa1CQLAcEyKisgmQAlJsjRXROiARtpwQaWERBqUtIFgDpBSRGGOINKE2xgLaIEK2KAw6QJHExjaMiiJo2SIKEZkYhUSHxhhBCAJNzJbFaqXYEgtoZVmYLaBSmsQkiSCGYWAsIFhCMBYQKAjJsBFmrTVbYAsUGILAxIgKidgatszN6iBAg3XSPzuJiqiDbq1CkaZyyHQWonwoHCuaq2WsAVY29J3JsotqnCJ8RZkmbd68ef/D9nRbEStWkXFAJW9LMHFKCCkKWGWJJHAaDChVVkcGAAYW8Q7GIASUyg8igLgqLbf7NN5Oy0eY7MJzwqCcTtMxMdLP/e3XQPJb0TzYyuMJJwntkMqHTqHT4cwbgcAAsggToRGOQlUslLYObAXdKzYhbx4nHVE/E+QGyGfAlAqLj9kpo/d8yZzbMW6NCA31z5XhdSRI9fooqaLWgUhbvT3lc7OzosuwbOirETxROZ3arEqZsAWQk0Ryfe4J3YoyeRqZrI8w4VTb4ZlxR5eX22ORtEtq7FjUABKmJm4x+IHWIASskawAILGOQAVmZHgoinZLkXEe7+pTT84eUeqIPR61wJ26m9zeC6bauapQ3DqQhGEXQNyqj6hQixWAAJwX5I72K22FejE4pQrq437IuAfzfzX9dUBoTIAJQTFrpSUqmFqr3tc7Y/GijSDTERSKIKm2vacvKm33ewpmKV86A9UYZbf0eSXXXMuKKbmkLqdalwnWtr1fVQq+kWarroLSls21r1/1vdrwur0Onnb2Oc/+1ldvrY3Y5vBiCINQz62ODAAMUSHkWgskIjWDaSMkwwDTAHoAtqiKIkWNoSrQDAw5Ht4AoFR4UJwMAQygKkgMAAbDbgpGmtVhwNmIXa36StAYFOY0R5oAlgJmHgZbUXq+NRsANqviHJTeRm0ICFVB7GgNcHZYiJrNhyFpkZ7LJgYYwkJZagAQUjCDguHm8FrQu5WKs6rDiyGIdTSjOtwAqFBIQlVpgooWWLsZGuvDrmmS9DSGBgAshdKI66DmkgQNXg86CIPd43oDZCsWIxFoVoVoGuMQyBYKd5Ok0mysBhIMomatCXomKeLGekhsWDwsrldBNlJY6umZceGLLlz0wN03/O0311x1Q7NaACwnlol8+TbdnKVcxDzgxmezE5t8uKpynocKGe0JEFgUCA0Pjc6e0yUi1dG6WIOUiJ8xroErOYHhTG8po+840BaiKBSFQCAEohE0iBLRTrpSAFNLPk9aR//yem7eJgwJIX1h7of2a9JDvO8dSqr2OPGrTTvKvTn9S4GJzpxuMESA2aW223mxiLAwoEG0iAiS2HhDb2/XnBl7LXlwKAwL1hjyCG1nuijSxvb4sUoDsHeQR3H+roC5EU3R2BmPTQ0PbRsc3HTQ4fMZWMQC6CAsCLvqtPWFKlEgCoTA/6AAUYAAyZ++43alf3L2mSQy0Quo/Ta3E/Kbg3Fn2M5JJj0zpWemCc48lctrvxSI8jcBFbByCPWUAe9CCLthV1rHrTgMAwa7935RvTlsms1ioSSOESzSCWyB/IMm/k2Y+8+xT2i6d3ItCUYMh7ZKV2lm1/SemIcBBFCn0i4uTd/eSwDbg7jjF03tbTv1on/Jp+zs9YCjSQKwMWakulUX+JDD9npw0YpAT7MGU+9kn9LmgTyTHulw+6wm9TlzdRHM+1sJZg4QjjMxbnpAezK15wak1UpktsyJVpGJddyMSPcYsDqMbTzCtnX5lZ8/5WknMcub3/H2D378Q9wafPErX/jJyz/HduPpZ5x82Vc+vse+e/ZNm/mNa7+929zepDr49e9885TTn6rQvOvDb33ju95qkw0vfsmLPn7ZRyXe8sxzz/3cl6/ebbdZM2ZVvvXDr++7315i1l11zVdPPOVo2xx+9/vf/7b/eC8nQ+dd9JyvXPM1a1adec5Zl3/18/3TuubsNvurV1972FFH2MaGa3947dHHHh03R973X+9+5VtexbZx/otfcNmXL5fm0LkvOPeKr10TRYV99t39y9/84qFHHNKorf/2j6494riDTH3oY5/5wqvf8Hrm5nOfd9blV1xuW4uefsapX/j6p5Jk6MAD9v7CV75+5AlHcVz/1g+/e8JJJzAPfuqLl7/0khfHpvXii1/yyc9dJs2tJ59y9Fe+eTVz4/CjD/nEFz5ywIF7i02+9j/XnXzmidIa+eyVXzrvgvOCUF740vM++cXPxs2ho4498ktfv4LNIFO9ZQYF62B7qtv6rSmisgCWRUTyip8w7kH2w6eCcG7nsI8Z/7YwogAKEjnuLiCbhKKRk07ffXC4vnoplIp9LDGCBglBNCIJaAQ15iXpnwAahAC0iBIhQM95BVEpbJTQG3YqcD/LE/JyZ0YgQNWO4uNe7l/bv+L+M/3LCS9PIP0TCESlUgPbeSkRp3KuEALLMevBp51xTF//jN99/5/F8lxjvK5kCr4nZwEG2YhhhgBPy9GYusJ0DCdkbwVAFdDo8Ird9iwee9Spf/3N36LSbEw1YxFjwBiRAQUlRE8cT8V0gEDAf3e/LSf/GQIICoXQE5oVZi7mHQchAjpfdVcAEURQCISu9ibKq7DLdk4y4UH+zZD+2T6zu0Ll+ODbvTxs497cNBBED1t10dcCWcEYMUk7hQoBAWPBGFGTHn7pq4+7556777utGkYzjImdzy4iOBOOzLQnHRy/eXNFofxw5Z/QVGDPv0eATRIfeNCBuy/ov+vmf0bFuWzDFE7vZtR2Xx4E5OIIYedc+Xd4wdi/AURCCQAQqAnUQqHEbtrjoMYzzz7uq5f/uFTerRW3iJzrueRNnbc3JQWBBJHEog5V3Nq4z0G7z5u3+20339usK61KltsbM5fYOnQJZXby7enRed2AOYdKX3zKvB4RVBSUGILBDbW7b1/NphtVNLi1unTxutGharVqljz0yOYNm+uN4rIl6zeuH2q14JFlGzaubzTrMLB12/Ila5MmDY/AksVrGnUztM2sWDawZWO1FePKFevXrRls1IsrVqxfvXJ1s2G2bG4tW7y+1VLDw3bJktW1YWy21KJ7Fw9uHazXg1WPbFu9aqgVy6pV69as2NCq240bR5Y9tLzZxG1DyYOLHrEWNm4YfmTJ5qEhU6snq1duWrd6Xb2Oa9ZuW718davZWL9heNmDa+NWYXi4unTpuvpIcWjQPvTgsm1D1eqoXb5s04b1dWP0yhUDa5dtFSmvXz/48IOrWk0crUaL711dr6tt25qrlm8c2LCpVjfLli7fuG4T6d4Vj2xYs2q1YVyzamDtqnrSKtaq5qEHV1dHRjZvjFeuHNi6eXjrluamdc21aweTxK5asX7jloZpwv13LdqwvqZ1l1KKKBNvQEmXHo8SRtd9oEyowQ9coXT0DvshAOR0M4QJiEQMCBqTsF38gtccdfyxT3vHqz5e6j6IbSisCBUwTV7Na7tPMAABMXsrNKcKke/jgu8L/2vEcXbQWsRxeJudUufbzjtzkGQHZWMiBMBGa838/cwXv/Tpt735g6uWjYZqd2tV5thFiA6GnTNOfxStLkHAIFTVkQcOP2Xme9/7pv98z5eXLq6Voz1bDasCBowBEwBECUXKKAGA9bJ5HjrOKVvMjqNJpIAyjxHd7pTwUnw8jl9BqQLK9k8CO3Pmnbq8rAFBHZhG3wAwgAbBYfSdN5kiwjhudfdF27YuL08b/dUfvnDGaa+1td2VzNIh41h6oggjMxFlMrPQ9upDGVeC7uyeOMAEJq364IJ9S1+/9gNnPuXicvkgNhUQAFFe5l+2NwszpjILO1TBv92BnfB/X7xSgFaoCqppkgTCjVde88rf/+avP/vminLX0Y1mVesAPXSCc0petJ356AAa1mChFIwO3Xf2BSccd9yJX7r8mm1bdRT0x4mX7wVxdQsf2lX7Se+UKZSUvyAeAZwnnnr5PyYA0joQIBObxJhKuTI6OgwgUVQwHFuTEEmxWKzVaiAclbpb9SEAGxb6QCBuVVUYEWHSbAJpHQbWGEIkpZJmAwCCsDeJawAYFlXcagBXtZ6DECVmMIhCZmQGsS0dRiauA3Cla16rtS2JN5KqIBVtgmFUIoJmY6vWZVQqaTWUDsvlcq1etUldR9okLWBWqhfI2mQoLMwAiOLmOsACqW62CNJSgbJJE0AKpZ4kadrEBFFkjWVrlQpVoOPmCEChXOmpVbcAMOmAbQLAxXKp1WyyScpd/XHcSFo1wJ5Sqb9eGwYwpIVNFUCTLrFpAmjUighs3FBhuRBEzVYCCGHELDEhCQcuLfHUI/KAsbRrmaIjWQExACkd7Dal6YkeVZI9+KSIgQa21J925mG7H1C45c83h9HsKOyKkyaLTVHTNiWGZy+HsuM03lgkIEWuBua3+CSoBFGQBJV15eon8UuAo0JEBHGSCHC5XLY2abVGovLQhz7xksUPPvjr6/7Z1XNAs2EJCAkpy4AeLYc9rYy4xjExq6BQWbv0YVWMX/vWM3/2/T9yMqdSng4ArWasKCBS4DNHmxb/AZGRTFq8tJ5tk/UIAJDYi/wg+/QcOU3Vs5f7G4siiBaJERjJ+t09sYPn5d4/4UkmfLm3cXpm6TyzOA/kHV2efwFkSlZp+8PhbogRlAAhKmFy7q5x3CoV++JkgAtrfvzLj172ye+uWNLUNB0g8PsnAAACRsnJL2CbLUa55w4y3fwJHkuvQQOIqtI1a9OW5dPm1C++5PyfX/czEE06iOMWKQIRBstiLRsBZrFjXgLs/gkR2AEA4d/r5b41ASAKKUFCUmQlbjVHo6gM2ExkxStfe9beex75yY9+X9MeACE4fQI/DjSJQM6EowbCqAMdNzfvc+D8efMW3Hbz3c0GaVXm1O82ba61M2poYz+zlgf4HWRO22DMsuCLUk6Dh4WIdKCYRWkdBITERKI0aRUwEypSgSJkUgWlSqQQiZUKERUIkgqV0opAKU2kEFEHOggKRIFWBR0qItE60rqbKFKESiskJCJFpHWgiEhFOigBWCTQQYm0IgVKBYTEYJFCUgoAtQ60VsYYpbQOI1KoQ1K6gKSVUkoXiDQR6CBSOkQIlCIdoCJUKtBBhKAISGkFQIha60BrDYhKBTokwFjpotZFRaAC0qoorASUDiLrOKU6VIqYjdZKa00KdRBq7T460IHSWhOSDiKlNEBIWNQUCcRILQQFoBEJRHkFQ1AgiEgON42Q0tVScu/UeMAAOUOkVLIYJApnblo98I2v/Pi/L3vR8Nb6j6++uckz2ZKiEnNEhIjIY5BNbWNXyjI+dGgUtyo5iIt0MouepIdHcoE0Wy2lVBRRYhqtZKhR21CZXnz/h94cBfTJSz8flvZs1ZFIZ8lu9sOjN3LPzBjEqW1GQWHfn/zwbwcdPuuq//noOy/53FB1DaliUIha9TgsVJRSAhaJAUwumcomA6caqvlZk+mpyuT5aybBA37cnVVLRsdC7MwLp54E5+WL2WWn486MO7q8jpRoLKUnkzYRRMRmXFOBLRTJJltHW2sr3a1rv/2+22+/829/WhzgPGbt2WTt3hA51oov2bfLP3mBbtn+/AFBJBarmo0kDKZ/4yu//vRnD/3klz7w3+/+VN2sDQpzAjWj1bLClhQpUtvVDMKdUfh7Mj6J4nh+7ArLia1GXVxvrQuj+otfefpznve855/zVjK7I5aEWakJn8EduXdSikzMbYTTBXb8u2WSeT0lmlbq5AcOPwsCQMYvtkiI4DIlRAIQkaTTD9HjdpC8XjWRg1BgWpKW7C76AABY6klEQVTyJxExSNqJQCAoABRkR/LxyO3cM4LIAsY3Fp2gMIKAEc4+OmXzpjtjAUBQgAhk0as6MIIgKgBWyrD4NlPb+IgIRLGVtpUrJkgWvV5DAOCAb4QgzEjkAbDpnsels9rRGTwZJKv3+/2Ns5Hktq2ngDhxz7x0NHSWVdzmqe2QLFMpQfulgdmbRad4LhIQIogbj+x1SO/HL3/NoiV/+Z9v3LVtk6lvE9ssA6iUvZInQnTyDVzLk1KCkKR20MBAaQymSUtwT45H398N2wKgoMyVSnP3/cP3vv8NG1a33nnJZ7r7D2YTtmJGyCt+dCwcjzIAZ91cQQZR2sTJNlZb3/P+Fx190rzPfPKah+/eWqslSdIlSRlYAZpcORTbgc21QoUnorvg1AJwLkxiGibbg06dZ9vZ7znhmbN5SFNiK40PwJm6tjjuuwVqQdAslpNSFBxyQvE9l77pZz+492uf/6kKdiepMIswKhWk2uRKpZaKKa2oLT3URuigANlOH+9xMRhABE0ihRLVR1cVp1c//uk377aQPv7xr61awrWtpaROAAmA9u3dCWnB/gvS1KQknoyPYYpVTYvRcaHHFLpNpZ/+493nzpl+1Iuf/14z2gU0LYwi9FI5mQReNj9l+x6eE5Sgj33Klz73TVeCTgyD0+1lAFFZCZqyuNieHqk2MLL3YKCxu6g2RwEAQQOIQAKIyBELoorFtZyREViQ2QKiUqQYDCATaGEEZBYrjgcKgKCUhIwMKkYmxEDEWRoqkAAwAbLCCpFFEhHxsB5wur6MAETCDEgo1kFeGJHZucWjARCEIgEKJoAGyYoQiha/2bQCghCgczpgiySWESVEbw4IgAwMIiGDBYwJNIISVQeMURRhwByCIEAsmCCxc/dByG/0lYiQYnS9PiYAB8AMEBmJBRglAGSkBMR5vLYEExQlol2fPz+1/N6uvUC2d/BTCcDjNonggj8ioqIAta1XV+vKhle/5cRnnHnBiocbDy5atW7tJpMYpRRih+ZTOiWylonk/BpzLDdHO8EndejN3VhS1Gw0y6Xywj13O+LoheUuufKKK67/1TIF8wrFPYytFYvFWr1BOZWuxyFTyQxYhMRXWZVwtdV88IRn7f0f73z95o183z3L16/dFjfdLEoAbdr9HTspZNKhkimlmO235fLUdqCjx8BLmfDMY1LqKU3+CW67F2RAQCaSMNJ77jXvkMP3CorDn/j4p+6/xQS0B0LIDMKWWYKwmNpzEgk5eZmxVmNZGO4gmUx6bcyCCEEQIWBiWyyb4/rqs1984BvedMkjS7Y9tGh47ZqNzWZDB4EwT1Y0+fdMfMccud4OWY5nz5l+wEG777lv8Lvf//7qL9+A8dyoMNMkoDV2shB3Zi4yILG1UCiGo8MuAJ/0pc9ePbhNFdT0xIqXuUu3iWMDMEzggzZJDzj/+GSkOwsgAKEIIhovKuACsDCLg0NSimyI3FPDbN2+wQVgFA0ogDECIeq0eKl9AAYjTvFNTBqAfZ3cNUFT8CCm8FubBmBBNCCIEiGhSIwoPgBDIF7QygoKOpCvM3cCb7aOosXrIVpgTAOwIdEIINQCTFA0khZRIAiQCFr/xQHQMQX8UkAiQGgQRUSj5/prkQBRkEwWgAHi7ClM15aUd9Du146hIeXgHbAzATi/akuqVO60SEgLyLa4sSYoTz/ttFOOOXFhqSsRYQEoRKEHFSCOOwtNIkImnfaIT/Loi4jG2KgQNpv1dSu33X7L2tv+cTuE3VFYtKYIVgkwACithNmhGx87/KrdC8jJOblsinSr0dgMprb/4Qed+rTjZs7sKpY0BalvGtjUVtgT2lxEJkp3UX7tyLAhsgP41Y61OKRTG32KXw+mUK+e6plzAniAHdGRwRl+AJoYGnW7ds3Wv/7hlhUPrYBoeqS7hUMRz8tURCKp4bw4/zgBRiDbvldMIARogSRXbNjOhUEq5eP/VNqqMBndugEgOe7UQ49/6r67zZ1BGIgwUXpSnODbufLrrjDsOIFaRWtWjN5+28M33XSHNEyxvEA4ZLZEImiRSXDn75XT20BOM+B7z77ghGOPf8qXP/vNbYM61NOSRHJiuO2hoSxFyU8PxtTdfcws7dgZdIgtpzMYAZ3yLoASFiQWYRFAUQxAxIjOxYdSnlt7w5o6yrkkidJM23FlGNsP1vaVWzJJGc7Fpxz6zIEtUsBi+unsDWrAyRC5bQOAECIhuS/OIihM2JZmQqesgKTSjRY6+ULXFRIWpHyGIB2fla51PsOm1CTH9XX99+T0R+f0DFky6f0ARYSd1g0AuIqFBZSdz4CdSRATITG70j0Asw6V0tisjhgzCrDm3/wZfjQHAgQAMYBaEOrpla6uwYHNQViQ1NAi2/7S49WrywkaS9vQidFTexut1jawAwDNXYOzg4HL2w4FFTBRVJgtUmCxSCBMREDouk0k7FEz2M6AO4WNxuxadpQBZ4YwuUYWsYiN68asBhz5d0Q1Pz6HApwZFWYDlJxOPGALkH3D7FE9fS4NslYKxWB0+J6zLzjxuGNP+tLnrh4cUIVwepK4pj6lNcJ8AJbMZXTspnbyDHjyTD2T1CVm8Q6xXpGU2qpegODEDSFf9BJEGi/tl/m65j8ifUImtDTItDadHAWjt5jLOqmYExsa77UgPhiy61W7XYWP4o4Ond/fS6rbz+xpJizOkFVE8gbpbf247IH0oY8FCQnbyU+a3WaOTNapa+SlPTOx3rQEjW34Ooie+tRpI/G8bKRrljA47Q2xbKBQ7gIpC05zQ+iuGAEnTNfcgsTMT/ry1/a/G4topTyotls16jYMozhukCJBSTNLX41yO77HJwDnwZPtJ8hBewwAFQr9SvcBMqARtuwosA4253fivgGJjiAugqhSTJajrjnchgBxumFPYxW57XyWgtNEqXBnLcT1cdt7/wnvZgYuo7S0u8Mzpwn9mIscs27CRMU9ZBHjCmuEmiGQhFjIGMvMSJBt7sGhTrxoK6fo5XwVMUOujTNB26EpQ3smOFEIBmAdFQrl/QBZ2KGKnI0KTCQQy66mtysDziYHIQKhWI5jMUmDSJGTf0VGJqTHdO6UEuJmlgVIQ3paHhmLZ2xDGsdPj+3NkM5+8IT/6igAlHOuc540BJ5hiCCcft9MQhXGORyMX5R2iE1re7+mwSwjHGbcVFc9pfEn7IRN5OFRLirncBNZ3t++G+DV0x0OUgQJYHwM9pfi1Rn99eTuZ6e9UKYpm/d2zFYlTMe9Y2T1Ts8fvzXKFFzcE8/WiiCxFSQECf22xKHZ2G+mZOwi6H5W/w7P8/awLSJGKWYxCSMZHagkjlk4CCPOzDnS2PhY2Uc7WMa9RAuRGCtOciWOmUAjhdDpT+nU77I9etseUci7Xfrdq6RUtIngV0I5h6ZxNEf/M6dWMwBoJ3+eO+63V2newZnzATj9lImHSByqP/2O+Se0mOFjLDOzJQIkQm8LlkkniNfrdtcG+Q1Q6gWZtzPaUeI74UWmuBt2NzWJrQASRdYmzDYHcx3zi26pIs+U+LcvQrsuIKABYABNBIgWkaVtDg6PFqqWlyhnAPR8uEzOqp20TfSLMjbr3eGUgFRrzRdDnfsgYqdXS16dLf+rABM4rubMWMeY1MujKbZkwSy/k8gsFtoa2ZN8tfy/SibamTNZbycWuctmkU5M62R/tlPgzE7USSFRx63wsmidzhk40bh3HPpR3K3UrYcRkUQQfY2CiJgBvASiBRFytQXfeGcel7S5r/FkJT+k2U0Wf7fjkWKUIq3JYRVYjMt3CZQVT/VR7i49dgLSdi8ZkQCcEjUwCzCEQVEEhL0zRGo5zn7JBgRhRJdCuZCXGv44gBLKRC7i7uCcBzhP0vLP7yhlyvInY8y/eJzbGgLYvJH69s88UQBmp/kMoAQVAloWBNZa+TM7ZVAg8jkvE5Dv+461pqZOUKv7YaqBMHt2/OLI7KTUvdENgrWMKEpJOsQw5mumCY0rdfK/exLsAbfIHLqSpqBxKvUsTpCeHhs8pdMNNE2hcGwJd6JfxAl/3t5XcUVX6EwDOh3RfIxhj5RKtVV9XGz/Rts6MHMOSStz43x3d/SQ5s2W2i7Mkmn5YNtsbTKfGyeKnMpvul22N+vLezT6y2ZpU2lpzDZi3BMxxrJ1zBd3gYxFMKfekuVHuW842bi3D73ze5bU5ixNbsQFXFL+TKzcnHJdbqdWmimVj6O7Sc6y6sn22OcZH7hdJFBa1BR0FlDuTjlceFYc8bJJY0ofj/Mlp7h0Z3UsCIGwSpHvLQQB0Kn4vKuj5pJLyRYmAVEpXAvaMQbGSQ55Z2hKQxq2LaXdDyjoQA2ecqd2gNlqPzpu46LGnZk6fRrI7yp2cGYv+5gtV975gxggFtHAIaISTncqxMD5JzsFcqBXU5/gxru/x0nX1slqifm/zIoQVpyLj0O5qxx0bnuj793G/p1T4NT1ClgJaxAl1BQUQQMICKEwIgA8ZvhFXnk/TdMeC9R/0gmTPWbAwKnZH4JoFQAYFlakEJQBS0RKSZLERFopbYxFFKUCa60IaK0AjAgopRjAmoRQkVImSRBBKcUsIqK1tjYBYK1CyyxsSWkAsNYSEREZkxApIrLWAohSipmdNgizZWFNWtL3K0XGGPeL1hoAVEoxW2YOdMAiAlZp5W6jkwdhY538hzEGEZUiAHf92rAVY3WgRYDZKiKtVJIkRESkjEkIiZRitsKsdMDMzM5Y0DILkQJCk8SEpLQ2ScKSafp6b9zsGZ2ivZ5+VIu4h30BMSA7PDM4bjIoZF9eE69bDDlPgrFl2Cc3/X8727cJH/s8czuz0ZjU+P4JuV0de0RxmGtRItaT8FAAVPocEzCl3mnoq3Z5J1Evt5ZzTk0jHLY/SKUFWPFOD5DGNv8Dpgai1BG9ZYc3k9pRX3LX3BaWoZyu9Q7OLGlwlFR3CJiAGNAAOO6IcnYbiCK+TpDulpzcGDJJpsAwWTMC08rBBAO/w9aDX81djUTI2+54Ryw10fa343fBaSzIvwHzb/tPYuYXI1oy106fJQo+LpkCQk7XOy/uzSIdkzjnULhzK2S6XWOfoDILWKVRKUpiAcBGbRPqUIdBqzYCIFGl0qo1QFpBqa/ZGgXbVGGPVkFtdL0uVLSm2ugwqK5CIWzUhgAwKEyPm6MAjajU22q0YjFBVBTg1uhoEPUg6eroOhWUdRDVq8MAVKgUG/U6sCmUZzRaI2BqQbEHWDXr20gXwoKujQ5Q0B0GUa26GYAKpZ5GowZcL3R1N+stsUlU7LUcN+ujKuwOgmKtuo7CktKFZq0GQEGh2GiOgDVRYVYcV9kMFkrTjIFmvU5BFEZBo7qZgm6lis3aZsAgiMqtRr0lrajSFbeMTRqF8rQ4qdv6qAq6grBYG92AuhgVotroVoCoUCo0m6PAJihMj1sNaNbCYg+ACrQCELZO/j6TEJmg0TPh4eHnj+aFzILMxIKMzsoHRayAEbAiFoQ9Pi0V8COisRYHRNm/dtomPRleqYTho3n52lfe6+TRtlh2dvlp96h8D9UZbSJCiBIikFOOQVRImUooEgGRjP0TkZAIFSEREoL/Mxeq046XD0zsuT3oBBHZ7QUw5RnszEt1+GF1XJiQEqK8W9aOzkbKfVX/hTM/Buc8KADAhIaICYWQCJSX4XPKoen/eTUu/wXHvASIt58Bg2sPMHc8iQ7HmK7UTioHU59oQnSqhgREY0RdxX0lIfAS8k/WJ3FKrwyv4PdJDBQDxoAMSCAaRAM+TkLZuQzYE4BEhHmMg5sjHNLOYz5c9E0SA0BBGBhrNIWopFV7uD5yV5JU2Taf+8IT9z+0JFw79czjz3zukUlz+REnzDr/Jc82rY2HHNF/4SuP753RQl1/1Rsu6J05kjSXX/Km5x5w0CwD609/9ryznneoTdYddfxBz7voqUm8/NCjFj73BeeUuk25b+uLLjmlvx+T1oaXv+HsBfvHFtc+49zjTz3zsDh+5Oindr3gZU+Pm0sOObTnBa88otizpbsfXvSy5+2+ZyluLn/pq89duGB+3Bo894VHnHr2gthuOfyoPc6/+JS4ufyQI/te8srnqqA5fU7rxZecNG9+IW4+csmbn7PXAYkxy8857/QTTjnE2LVHnzj9gpeemSTL9z2w52VvOomDR2bOCc574Rnz9gji+JGLX/2sPfaYZ5P1z7/o1GNOnsW47ejj93/+RacmreUL9lEvedVz4uba3XdXL3nNabvvUYybw6943Yv3PrAQNx85/6KnHX3iAQlsOuqpPee+8GiTbNlr3/kXvvxMY1caO1AfXVwfXRbHI5aF7RjF+CkEYHnUB4xxMMzqKbZtYAepHwR4e5rxhjXZv+aW410vzGkC4BMJvJowA87HYAGySM5nNEAIEFXb4ZGww72n44Ve3Ls91K6PRt6tHnJJLWIbDNxhaciAMm7KTPHVaUPjLyYTlM5+mNKZXbDuUP11M1Y0QIBIgIzERDY9bfu3OgIwyo5eOwjAbsnOH5wZiKYQm8wicwfWPLmBIxL05p8C/76vtGDjK/EJUCvF/WmAYOoykFMKwDB2NcVJV8ide/ZdDAjDUCvFbLSmYjm0SeOgI/e97KrPd/d0WVOfu6Cn3C0C8fSZfTNnFdnUevph9/kzxNa7enD+XuWoaJF43oJewqo19bkLuqKSsGybt1c4Y45iW582vbxgYQ+b0d6e4u7zZurA6mh0wV7dKmDh+l77zS52NYVGZs7qmjmnwlDtncbzFvawHalUYN4eRRXUVGB3nz8rKho2owv2mF4qFdkmfTOoZzpwa7BYUfP36Oek1jMN5y+cFceNUgXm790VFhO2jb32nVXuTUSqc+b2zpjZIzBS6eX5C6azbZQrtOd+3aDrYYH32HtOuWI5ru6z/9yunjLbxrwFPdNmktJxsaT32mc2J9VixcxfOJNtMyi2Zs4NdZCwrS5YOLvSI2yquy/snTa9DNTsmy7zF/aKHSoUov32343tyG5zp737gx9+ysknsNmgQ6u1bjUTaxhyQ7v9qYJh8ahHmyTl/soRpBy8BMewsEF2ZEb/b6tA+3/zEA8x4JSfnpXDsspxxxzwvMDJ6Yb5ZSc1fu+kK+QYyeOvZDLxxJ3cWEw2mXfmLO0r6bimtC085uvkPx495XdKHzNxCTodF9m+HGn7cXNCtjlFj0k+rq03t0NJlCf93HdQhpSdbSTVoyKv7sTOZO5R3yc3OtZwVFTV4XueecFTjj76+Ku+/J2B9bZYnM0220d1nH+KK2THexzxTEGctJLGKEANIJm9YP6hhx79tz/fHoahLtTqtappRcViISriyPBwsVxUWBweHA2KJtTNJOk2SbFUsYmpseVCqVQfrhsxle4EqQJ2OkusdGNkW7OnZy6SVKuDLLWu7h4bd9VrjUqXadS3Jlzo6Z5uTFJrDHZ3l6Kwb3BLvVQWCLY1G2SbeubM2cOjVWsblUpffVQ3G6Plvti0RsVOF+RC0dQb9SCIAiqODsc6NMWuxCSVVh27u6HeGGYp93TPaMWNWmNbFLKmsklKQdhCtWW0JoHuL0VRdWTAiJ02Y1ZjNGCxhUojTqrNWhgG5XIlHB3eFhYjTaXhwWEVJYWoZeLImK5SScW2Fse1UhQaLhubBFGdLDZb3Qiqb3owsHlLsdB78qmnr1q5dPGiPwMYwLlRNA9JnGB+CopMdaI9qgfzNlaPIgBPOvCUmitk1Od/ByHJJ+EilF/oYYzsIuSEoLFz9He8RmSxgae235r6mf93Vuq2d0KnmP4TM/MnC8DZBaXiBdnfCALRpAF4x3aH/2bzvu0T4xIJFs62jIQpLOOx0bS2H4CFccIAPMXrZ2Fnl8YshGLYKkXN2siCPRe85e2v+upXv/jwolUA3SrUYRiCqGarhShsGRhUWGRrBExUCONmUowKSpfqtSaQaA0AYgwTMQCyNUEhUoriZgtRGyPCWiTRgSJQccKEhIqiIKjXq0Gok7gRFcuklI05NgYBRGIADqLAJLEIEoZIZI1RWgdaNxtxGGpjvSGeZ9UJklLMCRFby9Y6zLEmFQCwUmAlsTFHUQSAiYm1UqTIsnGBqRUb56FkmZljIiQMmIGNVToUQeYkjBQitlq1IAhElDWidcCYaGTLWCpVRoarXV2V2CRxqxnoIEmE0FgbAzQW7tP1zve9/htf+tl9d28sV3oS0/CCGSDOWZoFxeYsR9MArB/dPB2XOkiby4g5Cb1dT/X/7wd2/gdO/A//rvcFx/w40Y164gNHxn7ADrLmruOxDS/mJJdzMvXjNqD/Jw4Bb/vusJNuq8DasiLVOzoMv/z59Vs2tgD6te7WmhEYEcMgMoaDQFgYwOiAACOxpLWyQmIaKkgAlZNuC0PNwiigtQZGkwhhSKSEjBAjFgiUoA0jZMtEItTSESCKDiNmFraMHIQMAgIBAQGw1kX0Zg8miDQis8RhQYCsAgZUSCgMpJ21kiFEwoghCZRFImYj0CJSCAExUYSohW1CGgCB2SISkWKGQJNSZNkSoA5KjpGklBABgCVCBdppEoRRlzAgchCKsEEJgAjRNptNHVBiYmHROkAipREk0lRkCYa30Q+uvX79hqoOCokxLCmwU9CXUyDvYdOePPpR4Xpk3BIAHnGZMcR2qd/9f3tMyHDf8fungBF74s78bz4uY/5GMqWf1O920gd5Bw3Nqd/2JzoayRN+GTlliuwGileth4zNP+atj3IQYarzf/vNu47vnXnlMInn57eMMaDU4NZtf//LctQFpStaR4qYpRWbGEERKRBGcGALYafuLmJMgmS9FDQ44UkrTIAibEEQQTMIW0skDAyihVnQAhlSBGCNSYhEGAiVgBVkFAMIDgUCXpHVeiUSBQDGhS3EhK3Ldy0bJIK06sMgynKCxIjMYgQYFYOQZSbUgtYYS0QIbDlG1CjKGhYgRcRsRdKemr+jDOhBGywKBMV3b53QciLChGATAWRBK8DGWgQNgCwGUTmBR0XhyLC94e+LwgIn3CQoEpacSLPDkWKqPet9KzKcozxKGtJEE+BfBxTadTzhR8Ynn+JoTn302z7hj/eZd43LRMsyTl6MyqlgwvjItbNJ3hQFUnb6G0/JLPLxugzMNNTG3rrHcR6mzNEpvXOqn5hpKzpXH7FKJy2zae8D9nrz21/3/eu+c/P1N+pgvkZ0lFZmACEnE8POj8GFJVGpojgAhGI1ohEQYEQiAQJgRMf1VwCMaBlQmBCMkABaACugHblfRACddK54+Qin0uyjUgKYiAQgoR9q1uCvS0QUgNPPYEIU0b4CQSaVXDYAAhIgoHhFWBIgYXI3AhBQFKARTAQKJBFAU9Bk/qGIzGAzJXdEC0TASpBFnLuiFcjo2SJkEAhFMSAhMxigRACZpbsyfXhkYP4e/O73v/4zH/vB0kVbg0LZmRUBiZOPRmfW5FV1yYlD6sclt9iVqTyZjl0Z8JNkXKaaAeMk/GDc+Qz4CeKmw05mwI/aITs1AujIgCEnCPtY5+H4DFi2++apZsDtBjY4iwJmwiDasGnd179+1Zo1qyCskFIIzDZxeRgROM1k9Gh5SPWFHX/SCb8ToEKHA/dmgpzOLHbmuymZgAFtKmoFPkJjpl7ntjS67acomT6RSiGMKieCRShO0ClFLiGgeAchb7MgGpBRlIBCtI5bgYjICEQAClNQMCIisLv+dCvq9XAws7nxFmcWkNLPBBBCsv7epjxC8KKUgCBABkURqGazgSyr16z43Bc+u2EDUlABEHZSQF6syvGCsv1umgELP04B2Onzi+zKU54ECz0COHbLFOXupjj6/syp6t2uefXEj4swyiSaAJmhJE0UByTnKQmpwcY4z4wccAnwiWiLjkeKPZGXkaJYvP+8+FstIkxtuaPHPoicu92YoyGNM8mYMmix3XMA54hnDaF014ari+5eq4OuMCiwIUBmTlJ2k4hQGnDASxcAgQtjikEsExMCeVFVZwMgAO4m2zSeiSJIZV/F/+AUdYgmcTdxDIIARHuHCQIQBnKZqxtCFvRWPyxMxB5MiIpBnC5VFosdddup6AI4ZUYNjIzGqRYIM2BMiALK2eMKgrAQacgKQE4LltzHps1bEFCOAKJy+rECQMiAJAIaAQViHal4tLz4jmHE3mKhmCTWJEkQkAiyE3UgC0ypyrV1p9lVgt51TDya6Wb0CSlBeyWgXfPqf3lcOtygJ14l05L3OIn5nDFHW0rliShUeDWBXGr1RF8GpvOzfeueuBK0tOWw0Fmd5fRr04+eyudmLt0+pBBLctLJx46MxPfdeW9QKCOSZfa9YvS9Xve/XiYVJQtB7lQILIiABAxAjkyThiFXW06DVDv0ZnxCv3WbsP7ilaQ7dQfS7FBQgIEyEDqgoIAIsXg0nM/Rc/ruqj1jod1V8fPbbyVRwNnpOhUUghyqXbJp3t7dChCDUJvmgKo9J4FSSXAG0EmShBECqxOe+sxKuff6v/wDURWLkbEiLOTVKhEyOwC/rUQNu45dx67j3/qYcGWXnS9BPzEZ8P+Jy3jcv1T2U0Yq8757zECPwuuwvRuxAuzDMI4edPjc9Wtq990VI7Sdf3x7GwGAGZgyGRx/IZyVaVNrg1QjFTCLkR5z7w2t86y8DFiAUxpWbAulp99FhH1Y5HZjwDnwucR1oi4MQgemwfG3WQSACJjbwn7uPIwiLDTmGWjbQWZogKyuMF7UIHM3EK1UEOhE04J5cwvFbkdkytTpxInkkwAzkqN6K3ctuwLwrmPXsevYdfwrDxSnV5YGg6zQDakh0k6n2S4HdaZKZImRQVSIX/3c5wEUBkdYa5FSZ/j2L3khYMh8qTNTHMzS8DG7mhz1zv2UL0uMUdSZlBA/UfWiQ3ckc/n1BtepA267dDZBSQAnOGe7fJCW3rIzA4J08OYBx3y97ZFpfY3CO+2K1GrVUlf/97/7RQAKivsoUiyCQiwoAkhAguwE6nIGiLsC8K5j17Hr2HX8Kw8HLXKxL1WgJHTO8ETC/Kh033wiy5gil6zlE057yvBW9eD9azHozdQR2/1sZ5UJ0I6jj5HoP/4kj+40aQleuS0KIYjzuEZGUM41ZCrnTu8jjvkBkQSEHHYrJ04lO9SN67w/rmLAEoYhC9ZGNh5y1BmFqPv++x6yxgCLQIQggARCIuyEbFNMxq4AvOvYdTz5D3lUPVH5l3zKFC9D/uWX8USh7jPvW/RewCLMiOg8rHKesjvpN5yViQEzcw1p6lNOfs66tUMP3vctIg/26tCW3ynZlqndkrwa08RXmusRT/5Rkhonppxdj/dKnW1lp9oS7Ux8zJlz3sjpP8MO/esy+fr0F1ElcRwVldjm4Ycf0dc7Y9E9DypSzWaNdODqDr7ijQIKhDNRX3w8aUgIuySdnwxHhr3cKbLQVEb/iTvzrnHZ7t17VJlI2xsR0vaZdHp15OHHTxgNqW0+jdDh1PQEXoYX0s67kMnjI1nv2D6MDMSQQpScmrobLiJk9p+ysyPubheCEiEApYK+z3/2G2CV0tPBN5tpzKl24uu0KUQTBL+xfO1srDp87VMfk/Q948/WNix1V8cAqYen+J4zIGC+tr1DmEDG+8kL1zkyM2OuW43t9+0IcY6eUIQsoFCUsa3EGAy6v/+97xIE1pCgJl3wUKuM/juGfA+inTLIYzyycsCuVfJJcPjdMSFOsRYz5dFvozrpcT7zrnGZ/O4xPjpgMKYLp/8synUCxzXJkNtr3eP8tf8XLiP1SPW3+nGch84+GyVzcRd0DpIMUaGQxDZfn8yeF9qxDwM4tw8BSq3GDKh6pQdbdUwSgxhMzaB2ex8B241P2KlHzOOA6u4HymXAE54tHxE5h0cjToMX5LJamUrIHHdydPLSj46zJgAEwkDsIVtiwjBi2wBplsplZKlWmzroMgaAHWuYEQBJMlsWYM+Xe5xoSNixRuw6/r8+2nSLqU7qqY7+E3fmXeMy+d17LNTVzoRlzFIK+Z7fE62U8i+9jHZfFB/neSji0caIBEDMopRyeilKkUHDDER+k5GnIU3tDnl6ECGjSmx94KWveM2Gda3rrvmR0iWvH/HoLx0gb8gy7h99Np8rQXdEOGmTpPIBeMzZOohLWYYK/v2A7QiK7P/V6VxMYtTcaRuTnRz95XlzhJ2eHe4DCdB73jsPUDGjz3r2C2bNmXXlF64C5GKh2Gy6arklBCR09RTMkvrHqwSdzc5dpcInwbET+js7OfpP3Jl3jcukN+8xCmR0lKBzC9CY2u8TzfzJd/Ge+MuYUNH+cSpBo1dhEgWA1towDLQmYdtsNUAorRJL9nFT7ji4PxgRAS1DKyj0/+OvS4YGRoOwBwmBBdBBvfx0AshIsLi9e+EpNwDg7WYnzKWz07WLyGNY2bnk1QVRHwsnOk8G68acRpn7p47pgCJtBtUkjwxAZh6aPwPAJEnwRPc7985cD1gcSgxYJCqUTWvmbTcsLleWM5eYQ7Ra2Hr5MBQR5aaoePQ0AIh+fNe1Xavkk+B41IIDO5EB75pX/8pxeWwf28E/GXPKf53p2b/0MrDzIx/Xeeg4NeTkEkNdUUqhigFtkjQDVULEjAq8cyPOgMTgoyWDAOriHTf9GSAgWsiSuNjfAcLCyRLa9Fq9rQ+17zKDEE6cAecipWvZSz64S/qf4sWYYSLWdl6WQyj9lY5BScfGbyT8t5JOm87USjzdMyGOv8h2BiyplEju8sZ1rmEcRLxdGGFj4lYrLExftvQegAbArEKp0GzESgXg9UOECNnRqcQxjBkeFeV717Hr2HXsOnYdj+7wUZAtUzDtrruWlcrR7LndkDQVBWkUAXkUIPRMjFMIIEAJ4+aGt3/gdRe+9CXMm1JNKMdDar9IEFlIhESI/QvdD+KcGRBZHEXKI4/yRGL/Zx58Li5TJAElQgL+BaAECABwe/jn9hdyKpC8w22VT+chJ5Oe1QyYeczfZAeljCOQnCprGpU9xMrVKjgXodtRWgAMYOzOrbUuloNW86GXXXLRO9//3kJXbGEbqgaqxFkZI2oQRD86BLtoSLuOXceuY9fxLz5cr1BQrLGB7tu8ak2lK+ifUQGpF4vlZtOICBEwT636nfdgIAEmSOUqgBRw6/a7/jo6UAAoKa2NSSAXitISNAAAAQECkv8/RBQWa61lK8JpEi7QlpXKpYBOjTK1rBDnguQMpQTHSlHmuMoTVX7zCp2CjO0ic6epSNog8JKWqX0TtJUmc7cOJmJbeVcmEgdSzEjArmDttDpT1wdwCimeQwacgrCcQyIAKGOa9UZdUO574ObokULMowFREGpm8Gg+AGBB8ZWNXQF417Hr2HXsOv7Vh6swI7C1rFV/CzauX79m4d4BhJTEAEgIDL5oimN+sfNMOUgSjnfSsCgJht03/GGRDueEhVnGGPB+BdBRmwUABMuWLRtrc7ksaq2VUikSzclBS6a37IFPvt3LAuThga7FyY7+5rWjc3XoLPRkteK2WkaqCJY2kX1cxww1nusKpKXcVC3LJ7s+O/U3hAjzcLbsE7PqNXrXXhFKnSAEmJDGqJFlelrYyawSJYKEwtbahqVgxn13r7FswRaxUA6CcqtpBYDACiAiCdhUgsujoBXpObueil3HrmPXsev41xwOAC3CYgNrcc2m2176iufec+fqgfUjOiiICBKIMAuD02wA6DQtyKBEubgr5KnLrtlKFlBsXD/xlFN6e+auX71OqUIG58oLcTg8tjG2q6swf8HMnt5Kb2/PzFnTevsqAK1Ga1QkQQQESh2oHJTX9S5dRRkYLIIIg6Q4X+cvTCQsLMIE4KwVCL1JH6T9YKSs4C6ILp6RI/q2wxyAWHT0KmZAl+Q6hUofTjPCNAtYVwFAUKnFYeYvmX6ij6XOhQoICNkl9u4beW4YtF2m0rIBCPimLudszUkEomIpaVSPPvrEffc9cN26TdZQoEtsXVS3IAiUmoVIppoC+gmnD+w6dh27jl3HrgMAAEQYgSwKIjNXo1L0yD2bBzYEpz39+GsW/7BS6alWA2MTEUMKRRRI6Mx8JNMQdo5A0taeBCAQEhYgFrEAqe0dxcccv+/6Vcm9d9wLSAAIwpkuMnqTPgyUbjY3P+3Mc3943Req9aRSjjDFRtea9vLPXPnRj1xmknKgK4IkyMIgAlEUWWtIEaJp1KoAqFSkMQBBFEFgRgmjoFarMtsoKpjEUXEoiZNAR2JZRJRSBBQnMTNrFRYKlWq1USoWWCxh09o4sTYqVcCCMYyoiBSzDSOdxPXEtMIwInIpKxrDSWKPOvrQ448/9JZb77nz9vuKUT+LtFpVgAQRwzBEJAEmFIVkUZJmUxh0WAjDQqvRJFGkleWECJGUTRqEChUl1lhriBCVAkBEi4TeVRJBRAGz0mEYhg3A/fbfb/qMrltvvaFhTJw0211vFLGcyVFnhHVFavaup2LXsevYdew6/gWHz1JBABjIAsYURjffcMeHPvKmh1c/vOz+B3TYK4xhGFlrPNkUnLgVIlBKP838Gb0brnjsE4iQOHoMoKiRW/7xlwfvW4Q4Gwm9KgQApTVoQERBHehWvO2Qgw94wQXP2jpU3bC+tmVLfetgPY6bvd2l0049TkD/7W+3KYqigkK0IBbQMCc6IESJTV3/v/a+PM6Oqsr/e86tqvdeL+klnXQSsi+QBAJhDWASQHbZIqvLjIPojMsMzuio8xvUUdxYdFTcRocZHR0VZFwQh11QtgASlrAYCGBWErJ3d7r7vVdV95zfH7fq9etOJ4SIaDL3+8knvry+devUPS2nzvY9IQCYgAiclzhroRD0l8tRGAZhmKZpVAjSJE1jC1VjyNrUGMMBkiQOI1OIwkKxVCmnYRhVKxXAAqkJQAYqNgoDIrLWEpExTLBMYCaFMnMQGCLEcRwE/J73XnzlFe/r7Bx9/fXXFwqtDBaphhFFEVtJRWKoFU1TmyoQRVEYFqEiNiUKTAATwNpE1AYBR2FomMAoFArOIReV2kQHV/oFZNShitTaCowsffTehxb/OhUKTBFggJVAJOomFWNoUjzwDR4eHh4erxeElF2Rj1ACTRitPRvX/8u//MuV//qRD77/m08uXhkWJ1QrsQmLKuKyhur+U5618sjgOmSGgthmHcYwEONagTW1E6Z3pnH7+tUxcyBWwXUVSllIOht/m6SJqt5zz73vePtfp0kMFIH0u/91/V+8/fhPfOLSf/vm9S+//FK1NwEQhA1BEICpr28TYMNiU1ypBlEUV/vZFA2XABDQ27OZo8ZyX8W9baTVbUBIQVNDIajG/SI2jrsQR1GhSSVNJe3rWx8GnXFsAUnSXiBlY8PAEHPf9k2ACQptVioqJq72AaZQbCTVOK5YmwAShIUk2bB+wwpV7e3fCqxO07ZqnDCncbUM9LFpLBSKSZymSQUIW5om9vb226QbICABLCBBWAQoisK+vq2AFAoNRKa/v9/aKhAEhYKqunnJJERgcm8+ZFUSE6okXaMntoVBad3aLUHANnUZbhdxJjdtMssiiHEtUL4Iy8PDw+N1Q05G6CYykLGJKTVPfOSepz//6Wuv+sLHP//Za+771UNIS8C4wLSTMapgNvksHeQdtRaOzlgDQK1Wk3K5UGoXKyACMZSQhhdf/JEtGyrfvOZapmYlqU08rI08zNKmWXcyNZSKY8ZM3LSxUgxbestbrvjcFxYsnDll0tgxnR29vdtPOW3++InjZkyfMXJke3d31wP333/n7Xds3Lz52AUL33jCwptv/dUTS54LosBKmiaVC966aPLkyT/6wc+3bVn/3kvfs2bNumW/W376aaccfvjBK1esvP2OO1a8+PTMWXMXLDx+VEeHlfTH1//Pb+6+B2iIosJJJ5+w/8yp48d1tneMFJIHH3j4lv+9bf1LG0yhycbVKVPGn3jScccce0ylUunq7n5h+fJnnnlmyZLHzrvggkXnnKzA+ImTTz/zryeOn/TQg0uWLr2noXHEsfNPO+GE4w44YOaaNasWL374gfsfWbd2FRAddczRC95wxNKljz304F1vWHjizJmzbr7l1t8//7vZBx5y6iknz5lzEJg2btz26JLHV/x+05LHHmUTuKKtXBHqaLdVhRRpuXz+ue/tHDv2qk9fnaSS9R9r3YxhHTx7CqCwcJj//4SHh4fH6wXJyRhTJSGNVMmEabWy+ujjxvy/T73z9jtvf+DXa556aIOmJaATMHVMGMhJHS0oURKSkooA3VOmT13x/Avg5iAoQAMgSNPeYgNpytUYQRC4/lZRDfIiLFW11paKpd6+VYvOPfvnP/32Tbfe9Z53/ePGl/vaWiZ0b980cmTTXff9aNb0ydNmHNfRMe6Rh69XoKu7D6RtI5oA/ORnd7/lwtP++WOf+8zlH/nJjb969yUfsUmU2ooJ0g2bljYWgrmHndbd07XihYdy0VGxKBn09PWXY+5sKyZAalEyAHD8Gy+859d37X/Agc89e69VpGnSW7alUrEhxOIHn3jzm9+1efNLcw875pc3XTtuTAcG9y01No3t7V1PQG+aNAah+/5zV3z745f97WUfv/pzn/kQgJVrNowf1xkY3H7Hb88776JKNb7qC1f849+/Y+1L6+65b8nb33J21eqC+Se0tbX99Cc3NDWEkrdNAbjv3s0Lj1vIQUREUFIWIiFANSSNVCSITFLt4yhJkz5IStwchI2EUKBMqauqY+JMfXkVtPeAPTw8PF43OPNJENKsAtgSBWm1oVCc8tDdv7vg0X/6l8s/9JEPv3nx4ieWP/Ncd9f27v6+nu6txvDgHSy4rFCSRis2KlWu+tcPf+mL33r4/rUqY5maVFKY3kIjNG1JUgNCNvewrhjajd4TVUCsCgC11oplA2Kb2o2Tp04rlRqZKQjo6Wcev/oL31299oVVq1aJrSxccMIHPvDXhx22/wEz599+x+K/u7TrDUcfNmnyfk898SJITjru2J6eShzR0sfvmz5zbpKkvb29N9953wP3LWHuv+jCCxccc3h/pfu/r7tt8QOLrcbve++lB82c+LGPXXbfvQ9u3Lj1so9d09O7eePG9dVK/8Fzj3jPu9961JFzz7/o/G9+9bJ//n+XjhvT8fNf3PWru+6wKVpaWmfPnrVi5cr+vv63/+UH/uZ97zp63qwHlzz50x//cvKkOTfccNORR5/z3vdc3N3T/+Uvf/vW224/8KDZl3/y46eectTffuD9V19x5cbN65MkHdkxbtE5Z99z70MPPrRk2bPPfeUr/9pQNN//wU8feOA3JigWCm1HHDb31lseRy0CkTdGEQNQglVGtdIfhNLU1MBqtnV3ZarKxh6q66baseTZG2APDw+P1w1uPLvJhupRQgigBLY2joLiHNle/sQ/fGfarIlnnHfwaRfMTmVDX2+3Yj/UqqAHPOB+JUvSLCqbu56L2h6+7qYPzZryrrSrFWhmkyBef8FfLNq0NvzFDb8JgjFWBwga8xC0EnHemQoASRxv3bLJprq1S0aObLjkXW9taW6qJtLTsy0ul//po5fUHuPBxUve+e6/bm5unT590h133Lbk8afOOHnB2LHjnnz8WWjvhRdeOHZU0y9uuY+oIQyiMAxWr3v5L992CawFtq1ZvWH+z7637JkXPvj3/7xl00qgUjTtV139z4fMOahYaOjatu2Kz3+w1mR10403z5kz5/xFox2HBXMcx/G99zz8za99BYhzccIgGnXdD641kRx/7Nefffa5L33x40AnsOmTl39jwvj2yz97zeWf+hCA3z50e0Ox6ctf+uRb3nLR1VdeXYyawzB4YdnaT11+5R13/KZr2zMTJx09afwUa+1tt9x23XX/Uae4sUFhTJokQciimhXHZexgopIUG1Hp3bTw+EVjx4793nd/UOkTikitqiiRusQx1PFvoUby4Q2wh4eHx+sGyugN3Tw8BK5WllSJNK1SodBaCFpeXPb7r372BwjQORUTJoxvGdFmxSKfk5jngGMlkKTWxqlNFp1+8FWf+l9UGogaNbUwADU///SW7T0FkLGS1HxfpRqdhKO9MIAaQwAOnDP7c1d9KtCgEJlxE8efdeZJoaHPXfGf27Z0iVSOPuasI4+Y3djc3Ng0Yvx+4xoK3NunxVJQKW9YtXK1ihx04NS77/x1klSPPmaOtfKzn96oykFgAAiHnaPHV/qrfeUmEa4KOkaNnjJ1Uiq23Nv3u2XLurv7R3WMILJA/8yZC974xoUdoxqKDY0dHSOPPPxgItPU2ARo33aOoujyT3907uGzly9ftr275/nlK2+79TaiICrtN3G/6araUGgOw5aWtmlbN4ejOxpFJAz53PMvLBbbbJo2txaqSdra2gClSrkCYNmy52/48TdKDbObmmZu2/pytVoNw/Cqqz930imnPPn0cz1dvUuXvvDYkodF4sAEEFf2FmcjlcAEUlhrDShatXJ1d/d2ESITpNWUTYEI6hrGkI+2BDwTloeHh8frD8dlKCDjSJuzb0lANog4lX5KEDWMC0yn1XTDinjD8gToBjgjQcwoIADYvII35ij4t6Zlv/yfB4D9gygQWFIibb/njruAEUE0g9lKXQg6N8CsClV2hFQAZs6YOutD763J+uzzL9308//97OVfSRKcctKF13ztwzNnTgawbt22bV3dTY1BuZKKtYC+uHyFJT773LN+9IMfpbpfe1toDN9912JACoUCgIA5tUE1SdK4KhJb0SAI43Jfz9atgBoDExAISdI9dcq0f//2NQsWzgWwdVvv1s3dzU0FIsQVBcKvf+0/CiU57Yz5f/X2RcAiAOvWvfz5qw74xle/xDwyLlsiCgJOkoa+7kSkub29g5kv+6dLgUvr1cBcgKYiFkBDYykIRhtTYjI9PRu+fM23i6XSgoXzLrn4Ard4yePPf+LjX77tll8FoVE14ISQuE4yAimlzEGapByWli65A4hgRpPrMMpyvUwCcG1ylzfAHh4eHn8C1M2zrQ3kIygpKTliYlVoqnFqgCDkEheJmAbzG2fkxapMGoJSUfvL//llsbh/NRbVCpEltqov/8W73rV+bfybX91HZpQL2NYooDNrQCZj5hABcP9Dj3zj6/8eV4S5odyfbNy8bcnDdwBNgHzhi5+aObPjlpt//c1/u3bVqhWdneN+fMMPQUaVADyx9JmVK9ceddis9lGts2bPam9te2l97+aN64HYUV8ZIubQsAUi4igwjtaiEIQlm8ZsYAyYiQO+9APvWbBw7sNLnrry81e+8OJLQdj0mc/+05mnLUilHwh++8jiSy99bt4PZ02eOM4UggvefNGxxxx+1RWf+v53ruvtqypSdz5BwA2lUiXe3LO9W1VvuOGm+x+4u1RsSxJJxTY2FLq6Y5BxWVwRSdNYRKxFGE2+645f//7FVUceeXhnZ2t7e/sFF1xwxKEzvvDFz9x556/BpBakRjUCMVFEyiARTcKCxuX1iy78q46Ocdf/6MbermrQ0GwTVVXSLAM8QHCZTzf0BtjDw8PjdUNet+t8znzQsuNMzut0lAgi4pK0qSis5ixYOYGzIjfAiSK1EgZRp9XEBAJYpZQQw/T02dWxFK01QUYeqTWTk2eUSVUAdjRNa1at+fEPfwjEwEiAgKhUGhdXyla3jxnXVK3Yb33rv26++ToA616a2N21LSpGXV09RPzwgw8/9dTT06fs19vXe/AhBxUL0a233h1XFWhN0ox8kimExkBIFAJEFDKFUAMYN7eaFMQybfpka+3DDz56489/BIDN6I0b16tquS9mDlQKG19+8pc3PulO8fvf+emq3z+jIk1NY3v7VodRoIpqZXuavrStx6iurlYSAC+uePnrX/vqUE1wJw2MfWQiTm3VjaxY8eKDK1580C176uk13/nOFRMmjpS0S6nNcAPUAIGqASJVqCZhQYPIxv3Vvv7NspmSaplMUC1XjCkSVKBESuCBXjLvAXt4eHj8KeBmDQwaTzDQT+MShbVxtlAmdjNrAbAZPEchG7UXMQoKgabMsEqkgSqC0tif/9ftQLMJZ4m1btBhLRDtbqakVhUwAk2SNCg0dYw9oGtz0lBst5KA0jSuFktNff3lLVu2t7e1vuXt561Z99zI9tYTjntjR0cTsZk2bfpdv2rs612/YuXmJEkv+9iH5x5xmIrceOPPREJAbcxJkibVpFK2qgbQcl9/XEn7unv6y6ISqkp/b6VaTpKGlMRs3dxtU5k3b97xJ5zevX3rCW88bd6x86y1sw6aItJ78Tsvnf+GY55+Zsm27o2QZN4Rb+AADaWGzVvWQdMtm7bZNJk6bdY7L/lAqdhxxx03LV786CWXXPg3776odUTz4vvv7e7a3tzaOm3ajF//5u4H7v8NBEmSVuMY2E6wMKRJ/Pcf+sj+B0x66snHtnV1NTUUzzjrHCbtK1eJI3Y1a2pAAohSTADIqtW4ahG23/m/vwQiUKcJS6CAyADKpIC4sUhDfhW8Afbw8PB4PUE7+ZyhZl/zEQI13kOo5BPxlEFCUIUhZYCJAEpFHcuWATjtNwtPvrB7c/XJJ5ZS0I5sYi4AMDuTzvl4IY6CKAyDke0dhUJ7mmyOSWzmdrMxBgi+/vVrv/H1y972lrPnH3t484gRba3NTtoP/N3fPf3UqsUPXrdu3aYwDP/mnW+LU7HESx553GWsR40aE4ZBQ0NbW2tH17aufqBlRMeIhmDq5KmtLe2GV1vR8WOndo4eyUxh2Pjtb/znX118/ryjZn3/e98vlHR0xyh3o/e99/yf3PDTBQvmXPLOM4Ez4yROUttYKgG45kvXJUkZiH77yO+CMDz6yNkzpl89srXwyU+PvPrKj7550ekXXnTq+9//tovfca5N4lJTYxCaH10/84HFD40fPz4Mg46OFiBUsZJaDoLzzztx/rFzK+l5cVwOo0IpMADe+/5/ENFSQzGuEpPNDbAoQGSSJI2iCIk98tgzSg0jfvvQE9UKAhNASAicFWHVqFQG4LmgPTw8PP5MQflghLx9KEv/ZqXUBGgEdX6UBVIikDKIQWrTyhlnnREVmpY9/WwQNeSTffNRSC71q1ASsVRNknWbttxy893PPL1CU86dbwWECDbF40uXPPbo82la3LY1ue3mez51+VVf+vJ/dG21W7eW7733wY0b169/+eW7frOYAj3kwFkPP/rEf3zrujBqSZIEwPoNW2+5+b7HHnu6v78iklbj3tUvbbjxxjsffGBJpRIbCirV5MXfr/v5z+587JGnV65d++D9S9O4EFt65OGln//8Vz7zmSufemZtxKPuu3/JL2+644UX1v1u2fLVa9b//sU1v7jxzk987Orv/ff1oekohC0vrV97110PC4I1q1+6++6Hbrv17hdfXH33Xfc8+uizmzb0bd7Sv2zZyltuvvt7/33DT37yi5fXb+yvVJ98asVNv7h7+fKVhUK7iqRJ95NPPbv0qWXLl7/YX05ffHHt93/wsw9/5BN3/ep+QilN1RgDSkCxknWzikGkomFk0rjr6GMXdI4Z++yy5UliiUKoIcC5vxhu8JFnwvLw8PDYi1DrAxaAYYtQA05AKcgCgHI2QIl7S1Fs47BcaTBB6IqoVYWImAmAiCuBBpGK9AJ9KiVCMQwbIK4sWsTGzKSqia0CUioVDRX7yz2iFYCKhRZiJNUkKrFqudz/+3//znXvfudFH/zwJ6751++WSmMJpr+8jaisGgHNBGMMUtsNpEAShe2GC2KT1MZWlcGCakSFWMulYmMQhjaN+8t9QC/Q2tQ4olpJE1sBkiCQIGAiSRNO0qRYGAVpKEWlcnV7Jd1SKhWiiPr6qmkqbiiwqBYiEwRsJY1jAanYvkKhqZokkBQIjGk2xrFc2Wq8DUiCgAulBsCU+/vF9gbhqCBoSGIbBKEgYSRKJDDQgJREhdimtrtYYqKgWrFEJUaD2hCkRClU8uGNgxDUF9d5eHh4ePx5o36cjoISaAooREEEEkdQTAhs0tuvWwidRM0E48pwmTNaS2eJKR9zb6gIYZiQOXANTpRVRgciwkyFsFFEquVUUWYuFMNGAsdx1Wq/CQAUE4umlv0PPmgWge67bykQJUnCSIMgUhA0JFcKTUTcrGqhpBqkFkTGBAW2ljjrywo1qFQSrVhmE4QjDLWlqe3tqxguBKYZmqhNqqkAYHAhHAExItX+JAWhELVWqpVqVYDIjTs0xlhrq3FcjYURghAwadgIUMCiJACYWcW5syYMW1WtSNrXa6FiuCmKWgC2qRo2qpbAQCHL3ysrArFVY4hsDLByKppEYQMJWRElBaUAVJhIhthgb4A9PDw89i5oRuwAABa10h4hN+8oq3ZOk09+/uq1q/uu/fq1YXG/1Arlxbd5mtn9UYEwBWyCrCRMRZlUQezaZ4yLoDIxh9FAihoaBAFJCE6JkVb7Tjrjr/afMS0VrF/bDYBIrBAzMxVUGUouok4aMkeqKqJE7sWB2WSuvcuqRmwUpGCCqpIxxpjI1Y4TAoLRgceGSOpoqaBKxKEp5u3OSgqxIJiQS8Q6UMFGUCVmhapCoEpggUKUTcAcMml9sZtCtTbnQjk/f4UyEROHUaD9FfrLd/xNZ+eoa77yje1dZSIypkguRA2qDb2ohx9H6OHh4bF3wRH6GwCgbJ4gSKEMBVhVE4UA7V/47HfFFoKwU9SVP7ty3FopNVQtXL7X2VjK+qPIfUHsAtUMkqwgLCumZlZVUtdJrEQaAtTS0kbQa7/9i61btgGBQgFRJRCrKtTm7VNwUgICuFHGblwuZ03KqjU3X4c8OEgdu3L9UF6AACY4G+ecSs3XMZOIanZUuVVVMENEs4CCkpst6B7RCTlAWJIdsTP/lE1TAIOVAIVlpkpZgObrf3BbmtpKhaFFDiKQqBDIwM0lJB5ibimIDvW/zh4eHh57CQYcxUHzgLIRC1BYcozDVC4UKSlrmpRMGIlYZscFMeAEO1OkGWkTsp9qFl3NjJvWe5vuOkVOZ6lqoSBmK4mIVekDFGgKgtBNnycignFbERFRoKLuJs6Y50ZOa+wgzg13VnW42qXaYq136AlGHe2jE7FW852bdMossJsEiex2kttZ5D3ZTOS6d3VQ41B2F4YqkZKChZWUraViKWJO+/q3FYuRqLUiaVXCqEEsK5TJDn60gT0Nm7H+N9rDw8NjL8HANNnBDU3qiA9JoRoyF9Lq8xe/7+Sx+0167plnw3CEaoK6azJKLOLc6rrocJ4UzgqllWAIhvLqaWIQOWYuYmbVfKwDMYGYgyhqZG4wJiAYNzAo75LKdsw/iJuHTExEWWya2N3ZODtHINfCQyyE/NakNVmIQWACk6lNvAfIkjsNuIS3qgpzNn7ZFZATsQtZMzsuFCIyqsRMbGpiOtnqwJQFr0kJCrJKChiiwNqYTTWRDWecc8xhR01/dtljxCE0FBsQCSgBrPObcx7uDL4P2MPDw2MfQOZwZpxaKqDg+edXlLe3AJwkcc5nqYM7kbTGxqWODROOiQvZXnlANo/3ZrHh3NGEm0iQjXYAbBZmpvxvAhhuDi7yQfbOgZYawUjG8pXdoT6InH2mfJQ9atHg7JsBuTQLTueL8584l57qHevMLyZSFVUGHAko1QLQLha/s4N2B5DfRJnUpom1Fla2btkWJ6mkwmysFdWUNCPvdvvToJi2D0F7eHh47ENQSGbiuFurq4BmYCK5UiGmPDybBVSZCI4gkTJrWGPYyvOtBpKFtAEFS2Y4ARFhZlVVWx+qrQWHkU+eyCLJed11oFAiqRtLACBrkoIQ1IAUbOs+SyZDPbL1DGWYdPCFDIaKELNaGTaS7KIIxKpCKpwXZykZUeHa5N9BjzI4Rq5QC4IQEQOiqFqpIN0KKBfbGMW0qkQhMwtbFiI2AiFlcq8gSoD6ELSHh4fHPoCab0oAM7EkW9507pva2ie+tGZ1VGhUlcwtzCLMmqdCNYtqD/KAqT7xm5V6kfPgSJ1HnF2c+XfZFc62Df3AqIW2Xf50INJd9ycLrVP9vCDsbHG2fhC1ct1iJ1jm7OZi5AygA//MHPe8kK02GZnqqtvqforc99bM7SeyRNbamAOWeNu8+QsOOnjeqhfWGBPaVNgYl3jOhcoegrKgvx/G4OHh4bEvgEACYSUCGAqgMmV6exiWgX4ybaQqkk2AICJkBVDOTgmURA1IBWBlUlJWEgZbsGShU2djybFwuSi0s4y1gmQeXDY8RD5WqMJmQWCiQYuHWDsYkKJWvpTZ2rqdB9bL4MU5vaaTit2rQb0Y0Pw2CgYpGZv1Ozmrm5UuC2oxYwx20KFKCgExlKxSzCYIQkrj/vETO8Z2Tr3nrvtTq0EYWbEgYmKBQIWZiFSUOBtTSD4E7eHh4bEPIO/cIRJhYiOyVtN1QAMwkwPJ2mxqJJQY8GGzxLGyaxFipazQOiu3rjd72ZeSX+TunH0PGojZDqW81nyp5vtwnn4eFNgdMJGa35pk6GLsGB+uLdZBJdI63EHV7Hz2EjHkAZHPixzyJpEnmLP3DVawUoUpSVMFGROkaXk1QKBJJiwQQaQ++u2i3qjr4fZFWB4eHh77AggEiDiXlJRhoyOPPmV7b+HZp1eQFonSzO/NC4AGrqwzVFlTrJJmhUYCVoiL9WZVXkqqJFTzNbNd8kbkzLFmN4wh91w1Cxfne2UlWkMqurNrFXBRa8mdWmewsYMHvMNipUHmvrZ4kDGtc75pCD9GbsKHvwqAZMJk52OUU2MCa1ni9JDD3lQIi088+XScJIYNs0GeLKesA0oBQBgsALP/tfXw8PDY+6F5w65S5trRnEOPmTJ5BlAxIauKqrq/kbch7Qh3vXD2txALWIglcwlJyLFK5DlhpdyU6oAfPDRxygMdvc6oO5qMzMuUwQaTc1OdVyOrc7uHLEZdr3DdYhJAQIP/IBdfhz5rvgPVxc+HP93scvfIWTc2E7FKwBwZYrHlWQfNnjP3kCAIGWxM4FqRs9Zq5Zy6cuBNwoegPTw8PPYBuPpkBUQlIAqs7WofGSkat/ckgFpJmUiy4meWrPa55pbV/NGBFCnqQswD9lLzRljk7UbZGsDZmAEajdomzvpagCCCjHOqVj9V7y4TYAYMrWi+mOp25jqv2gAE2Jz1SkAykLitQXMHPTui2mtB7o4PBKxt3sgktX6l/MWifjtAA2igJECqSkqpJus7OlrFtHZtrYRBlForYrPuIyJGIFAeLJsPQXt4eHjsAxgIvSpcRVK6ZdM6gMHNbJqJIqWc3opyL9l5c65ZVTnjhgSTa43Ndq6FajPfVwF1/Ui1NmJXtYSBXl+A4Qilsn/W5YAd7zIUUjN+tbvUkUu6AivNGCoh9U1LOlBspbVnr+uzrZ1F1qmc1SzXSchDW4wGoNlNB5qV6wq5atVY7pCVgZAZNu1VbN20aRMQcDBdETnrm7VcZ41HOblYDh+C9vDw8NhX4BxFEmaoxDNmH/Hlb37ryKMPlaSLiVTAjs9JSYVVQMqqRGqIOCeZcp0zQnW9OoBFjemSlEhIiUgcqTQJZzxT2d+OQUooa/wdAteyZPJWHK1jnHKvBZJ977pmHfmVGmLOJaJsfwhBiIRcVjoTjOskcc+kRERiiLTuciV1NxKCdffInijrmGZSIs53ViJhcuEDd1zZHQGlMAzFJtMO3P+r3/3SpOkHirJNE2YmJtRoxnSYs/B9wB4eHh77BjKvMRuYoNLfV3nppa2rVq6vVFnFAGyTGMSAgRpCoMJ53JkG0r+OPdHN/NE8gaoC2JzwSrMZiACUoUH2IzelQGrFSpJnTOv94GweYv5NnsTNbmSz9DDy3K2TDZw5nS40rQqk2WJ3L0jdJXXxZOeCK0NNXtqdl0yThaaZ5E6WbHMz4PxLzW9mqMkLtuscdyVVsFGRNK6kL6/vWb26Jy5bKBEFjlmLwAAN15nlc8AeHh4e+wKy7KxCAKiCmdI4hlZABZASQ8VAAGJiQygQuaJlAaW5cWIog2NwDAmgAcjm1U8YIL6oDTICQ0OoATu64yC3cwK2uTFjkCtXljxrq1nilgRqAM5zrinYQsMsoM0CIG+9ZWgATkAJ1EAZlIBTwN2xtn/N+gZ5QtcJWYAGQFqXxoaL0kMBdu8NeTOxFKAhKAXZgcVA9nrB+WmoBRHUEFMabwX6gQiIYCLKxwzWphlmRCU7MFz6ELSHh4fHvoPaUAVVbRzRDC7tP3PGt79z1QGzR0A2ApZMlgtWBZEoBBDKfEfXLuz8XWc/BLCkAgVsQBpAATUkJUgBarK6KHFtxNbZLWKFGNiINAQFQEBqnB3NGJGVASFKAIEaymqpFEqwIRCSq6wWJqonbwaAfD1DDTkDLwFpCAmhhrJiq4gkyAqbJSSNICE0yMYba0gSujcMIgMxEEMoQN2XISGCBtCQNAAY4t4qElBKrtAMkkmIII37px/U9m8/vOywIw8ATBg25ZlfqPO/Hc0Y6gLjNXgP2MPDw2PvR+4Bu8IlQKw1zBwEQaCjxkYbXn4+SaixcVTfdlEhQcoUkhYElqhCLCqARoQCTLdSH0mrSkmxHVwGVKVgqFEpBfdACmRHg2OlHkIIDVRBLEplwGraSFQA9YNBUlRlKMikSmVIACkJKmSqREwaqoQEA0oVCcEQk2gMMGCAVBEDIBhIA2kR3CPUx9oKLQlvZY5VGtVGABFZcKwqzEbVAhZk8uh3QBqqM9IsQtuJlKRZIEQVcKoipEWgRFRRKpOMUGkG9YErmnFOhsSivE1twNIJSpW7iQLSQqHQmCQVRKvbR6PcNaraOypNrZWqs7U5DTVlAy52CEN7D9jDw8Nj34Ei/0+/MVY1rlbL/emq5dsqPaUDD5nytWs/OqIxlmTzEcd0TJoBi237z+w86g2TbLJi0rTgiKNn2GTDxKnFeQs7SyPKmnYds/CAhtbtqhsXnDhl3ISCmNUHHFqZNTe06UvT9u+Yd1ynrb4wdr/wmAWzS83lQtNLp5w9sW2USLL2+FOmtI3daLF8zmEjDzqszeqzU2fFxy6YIOmaMRNwxPyw0LAxiuyJJx89ejzb+NnjT53R0l5Q6jv0mMbZcyHVFzrHB0cv2E/TtROmysITZ0dRf1TaeNRxI1vayjbdeNKbZo4c2y2yat78GVOmtwjWTJxRmX/CFFtZP36yOe70FglWto9O5x9/wMhR22387AlnjG8fmdhky6HzWicd0K/By/tNKJ1w6gzRlaPHVY87ebYka1s7eo49cVT7qD6xq+fNnzR6/HaV5+efMH7KjBFBcfPkAyqHv6Hdpj0tbdH8E6dZu6K1RS7/3AdPP+OIuLt7y7qWni4TJ2XRhJlUWZWJDJH7MOxgY7B6eHh4eOz1yGbpuaF82ZyBLBiqQdRGGPn00uUf/eBlXb1lgM468+wxY8YQYcH8499wzHGwfOjcY0879XSgf9rUmeeceVHriPZic+Pb3vqXbSNGIea3XPiOsePGR0HjCced/sYTTgX6Z86cecqJpwN8wPT9Tz3lrJamUa0tnWedeVFH+xjAnvvmi6ZOnMFB8cQTT1o4fwESPnDW3DPPvgCoHjLnsHPPfWuxOGJkx7izzzmnvbUFMIvOOX/8fpNsOTnxhDcdcsiRAM2dc9gZp58DS7NmH3jGmW8StuMmTLjwvLeOnzgZ6DvnzPNGd0xAIqecePJxxx8PNXMOOuL0U84E4kkTDjjj9DcjpbFjJp9z1vnjJ00DmXMXLZoy/UCgetYZZ887aj4R5s074qQTT0WVJkycevbZ5wB23LgJbzr1nNFj9gPSRYvePH6/qUjNonMuOPTQw6t98ZyDjrzg/L8AqpMnT3vTaWchxZYtW774xavue+B+8HhJWghF0pxmm5QoU0z+gXbUmQ9Be3h4eOwDqIWgLYHUpR9V1QozgQxUBH1IU6KCgqDbgAjUBBhoD1GjagKUQe3QCtAPlAAACbgEJqQVIGQi4QpshcNJkvQDm4hGZBxPKHGQSNoFNHLQLOkGIOSwJEkC9AIlIAWIuEWlG+gHtxjTaJMtQMBRSeIeoMlETTbeAlgK2jTtBmJEARKXk3YVTFVgRKFxZLVvE2AQNCDdAjRQUCSIpH2g0dAeoJu5VbiIdBtAFBU17gOaiULVLeCQuKgikDKgoABaITKqrnSrCA4hfaAiBUaTfiDkIJJ0K0AmGmvTGLIeppWIFZYNgAg2JAQZuQexiDJn5M/OHuc0I4NAJpzrf3M9PDw89hGQo0TOh9qLK7lSx4kYhCGTieMKM9iYpBKbsAg1xIaZiJAkFYgUis1WEtGYwGJdZy0DwgbMgYhaax03FrMhSJpSGDYkSRlaFWUQM+KoOKLc12OCkNikSWxMEBXC1FZtkpigoAqbJMzCYcEwA2wFSSVho0QBMUlaIQOFEDEbspIQODQlIiRxwlxShUhKrGItG2M4UtUkSUBaiAKisFpNjLFpagFlsmQCkGEy1sbWJkQURlFcjZm5WCrE1YpaY8IwqfZyUGAyaerGKcGExhiTJEmhECZxYlWZSDUh0tQmbigyIVRxjb/u3IeMYdBhQ9DEwSH+N9bDw8NjL0fW6DJogsAOvaeqAiVigFQlG02b/SOrFVLAaN5olI0azCKrqOvzYSIAohklJe9gcqAqLgBeG5ekEJASWMUxU+RyAHnyOps5qCp50ZK4MmhSAolqTplJWe+yI8PUnP3KSQJAxBITk3HF3qhRYGVDoJyEGZOG690iR1NJ2fgEVRFRZgOoiLBhZGOQNZ+oKAR2Ef98zkJtbrHNHyQfuTQc0bT3gD08PDz2Jehw/5PB2Uh1hiTzkykzsLnBqC/ZzY1LPuihngxSXZYZqDl8OmjCg6sFq+fcIFJ388xy6oBI2ab5Bvm1yObXO/Ndb+Izo466PbJFyAK/Q0ca1dvd/C75SOOcXoTq7DTgMrhcV8888PDO9DuZ8sNBjQTbpX6HnYs8SB3eAHt4eHj8n4EOYjbOhwIPWjCIchk7zMTFUE5m7NrSDP7pTtfu8ANH4DzMQic/YTc23Y01dQei9Mrb7HiGg+5Awx3aTuGHMXh4eHj83wENM1V3yILhPw/7De1slx3W5Earxio11IjusAnRzvejXUjlvFXn5g5uxn2lA6Fhdhi8yXBnOEgK3eHtZFfwBtjDw8PD44+NHQ0//bHuVE8DOTjEvWc7vJpNdv36MhSeiMPDw8PDw+NPAG+APTw8PDw8/gTwBtjDw8PDw+NPAG+APTw8PDw8/gR4tQZYd/J5jzfZ463+cEn+TMR4TSTxevF68XrxevF62cv08mqroKluoz2uYaPB0tAebVXfbkWvhRjYUzFekwMZIgb9icTwevF68XrxevF6eZ30smceMA/LqrVHm/AOUu7+Jn/I5Rh8vnv8RK/VgdAfdiBeL14vXi9eL14ve5legsHcYTuChussdv+UugXY000oJxd9VTu4TbiO5PoPF6P2RPgjH8gunmWPD8TrxevF68XrxetlL9NLsBv9xfRKP9odD/0P3+SPLQZ2O9rwR32WP58D8XrxevF68Xrxevkj6sUQd77SNcMShungBfgDNtE92mHYBXsmBnZbjNfkQGhXrKR7fiBeL14vXi9eL14ve5NegnwU1LCHyDtsOiQ4UBuSLDvXxC420boQAe1cDALMcM+mO7j8upOtdiFGfYRBXolSfDcPRHYuxq6fZTcPxOvF68XrxevF62Wv18uuQ9A0nBnPxzEO3Ix2GfTYySaDrsWrjwA4Seq/puHeO3ZfDOxG6Gb3D2T3xcAOatuDA/F68XrxevF68XrZy/TCux2yqLsN7X5eehcPjMEhAn2VuxGgwwyEem3E2OsOxOvF68XrxevF62Uv00tQPy35FTbMBiBTZrZJd3t64q5FpFc92XFAEndMuzcO8pXF4D0V4zU/EHi9eL14vXi9eL3s23rhV9F0pQAUCghDOZvviD/8gPhV92xlkjCEB14v8JocEO3pgdBrfSBeL14vXi9eL14v+7JeDPHoweuGFydfkk8trs1VJuwecYkOJ5YO7tPSnUhCw+wwSBIFUBcuoFcjRr0wuxZj9w9kF5fTzsXY8UC8XrxevF68Xrxe9lm9BDt/vCFd1fUf8yo10rqSs11XqWHn1XS6Q759xzWDd8j+VXchDSk5e1ViDFtr92oPhOoORHdZPbiLogAdrCqvF68XrxevF6+XfVYvu8gB72C0B/LiLkYvWax8p2rYmeWvl0B3kHvYVioZtEMmCWUvOIOyBbSnYgxRzx4ciL7SgQz3LEN/QfWVcideL14vXi9eL14v+4Jegh0ObsimQ7ZSDLQtSd3nXR/QENTTbO74nrU78QEnicl/pHWnQ69SjPoa912/Oe7+gdCrjNsoYOp+UXS43xuvF68XrxevF6+XfUovwc7ru3TnN5MdpNFdxiJ2sckrxvd154+tu/GC84pi6O6J8ZocyCs+y+4fiNeL14vXi9fLPqoXhRKR7lQMzeLTe71eiIOD8aqxO2rezU3+kH1eWzH+tJL8mYjh9eL14vXi9fLnIsaQduBX0xC0d+jl/wPdlIh5c683RAAAAABJRU5ErkJggg==;" vertex="1" parent="1">
          <mxGeometry x="330" y="280" width="508.6" height="240" as="geometry" />
        </mxCell>
      </root>
    </mxGraphModel>
  </diagram>
</mxfile>
